<svg width="11" height="13" viewBox="0 0 11 13" fill="none" xmlns="http://www.w3.org/2000/svg">
<path d="M9.96637 6.02945C9.96637 6.44606 9.63578 6.78331 9.22813 6.78331H5.90601V10.1746C5.90601 10.5913 5.57541 10.928 5.16776 10.928C4.76011 10.928 4.42951 10.5913 4.42951 10.1746V6.78331H1.10739C0.699738 6.78331 0.369141 6.44606 0.369141 6.02945C0.369141 5.61283 0.699738 5.27605 1.10739 5.27605H4.42951V1.88472C4.42951 1.46811 4.76011 1.13086 5.16776 1.13086C5.57541 1.13086 5.90601 1.46811 5.90601 1.88472V5.27605H9.22813C9.63647 5.27582 9.96637 5.6126 9.96637 6.02945Z" fill="#07689F" fill-opacity="0.66"/>
</svg>
