<svg width="25" height="25" viewBox="0 0 25 25" fill="none" xmlns="http://www.w3.org/2000/svg">
<path d="M2.76855 20.3224C2.9901 20.6311 3.28345 20.8812 3.62327 21.0511C3.96309 21.221 4.33917 21.3056 4.71901 21.2977C5.09886 21.3056 5.47494 21.221 5.81476 21.0511C6.15458 20.8812 6.44793 20.6311 6.66947 20.3224C6.89102 20.0138 7.18437 19.7637 7.52419 19.5938C7.86401 19.4239 8.24008 19.3392 8.61993 19.3472C8.99978 19.3392 9.37586 19.4239 9.71568 19.5938C10.0555 19.7637 10.3488 20.0138 10.5704 20.3224C10.7919 20.6311 11.0853 20.8812 11.4251 21.0511C11.7649 21.221 12.141 21.3056 12.5209 21.2977C12.9007 21.3056 13.2768 21.221 13.6166 21.0511C13.9564 20.8812 14.2498 20.6311 14.4713 20.3224C14.6929 20.0138 14.9862 19.7637 15.326 19.5938C15.6658 19.4239 16.0419 19.3392 16.4218 19.3472C16.8016 19.3392 17.1777 19.4239 17.5175 19.5938C17.8573 19.7637 18.1507 20.0138 18.3722 20.3224C18.5938 20.6311 18.8871 20.8812 19.2269 21.0511C19.5668 21.221 19.9428 21.3056 20.3227 21.2977C20.7025 21.3056 21.0786 21.221 21.4184 21.0511C21.7583 20.8812 22.0516 20.6311 22.2731 20.3224" stroke="#8DA3AF" stroke-width="1.46284" stroke-linecap="round" stroke-linejoin="round"/>
<path d="M4.72035 18.3732L3.74512 13.4971H21.2992L19.3488 17.398" stroke="#8DA3AF" stroke-width="1.46284" stroke-linecap="round" stroke-linejoin="round"/>
<path d="M5.69531 13.4976V7.64624H13.4971L17.3981 13.4976" stroke="#8DA3AF" stroke-width="1.46284" stroke-linecap="round" stroke-linejoin="round"/>
<path d="M7.64515 7.64603V3.74512H6.66992" stroke="#8DA3AF" stroke-width="1.46284" stroke-linecap="round" stroke-linejoin="round"/>
</svg>
