<svg width="25" height="25" viewBox="0 0 25 25" fill="none" xmlns="http://www.w3.org/2000/svg">
<path d="M21.0343 16.0922C20.3326 15.3904 19.1907 15.3904 18.4889 16.0922L16.6472 17.9339C16.391 17.2518 15.7322 16.7649 14.9616 16.7649H13.0144C12.7382 16.7649 12.6161 16.6136 12.3362 16.3674C11.4637 15.5995 10.2993 15.2253 9.14198 15.3413C8.06811 15.4488 7.10195 15.951 6.39072 16.7649H4.08169C3.75033 16.7649 3.48169 17.0336 3.48169 17.3649V22.1649C3.48169 22.4962 3.75033 22.7649 4.08169 22.7649C4.58616 22.7649 15.6557 22.7649 16.1616 22.7649C16.6423 22.7649 17.0943 22.5776 17.4343 22.2376L21.0343 18.6376C21.736 17.9358 21.736 16.794 21.0343 16.0922ZM5.96168 21.5649H4.68168V17.9649H5.96168V21.5649ZM20.1858 17.7891L16.5858 21.3891C16.4741 21.5008 16.3195 21.5649 16.1616 21.5649C15.9646 21.5649 7.35455 21.5649 7.16167 21.5649V17.7171C7.68171 17.0386 8.42675 16.6188 9.2615 16.5353C10.0883 16.4526 10.9203 16.7197 11.5435 17.2682C11.8476 17.5358 12.2498 17.9649 13.0144 17.9649H14.9616C15.2925 17.9649 15.5616 18.2341 15.5616 18.5649C15.5616 18.8957 15.2925 19.1649 14.9616 19.1649H12.5105C11.9347 19.1649 11.3894 19.4435 11.052 19.91C10.8578 20.1785 10.918 20.5536 11.1865 20.7478C11.455 20.942 11.8301 20.8818 12.0243 20.6133C12.1368 20.4577 12.3186 20.3649 12.5105 20.3649C13.1521 20.3649 15.0125 20.3649 15.6648 20.3649C15.8239 20.3649 15.9765 20.3017 16.089 20.1891L19.3374 16.9407C19.5713 16.7068 19.9519 16.7068 20.1858 16.9407C20.4197 17.1746 20.4197 17.5552 20.1858 17.7891Z" fill="#8DA3AF"/>
<path d="M22.1634 13.1624H21.5433C21.2712 8.98068 18.1628 5.56978 14.1988 4.8331C14.3042 4.60446 14.3634 4.3503 14.3634 4.08246C14.3634 3.08995 13.5559 2.28247 12.5634 2.28247C11.5709 2.28247 10.7634 3.08995 10.7634 4.08246C10.7634 4.34998 10.8225 4.60386 10.9276 4.8323C6.96447 5.56394 3.78208 8.9656 3.50388 13.1624H2.88344C2.55209 13.1624 2.28345 13.4311 2.28345 13.7624C2.28345 14.0938 2.55209 14.3624 2.88344 14.3624H22.1634C22.4947 14.3624 22.7634 14.0938 22.7634 13.7624C22.7634 13.4311 22.4947 13.1624 22.1634 13.1624ZM12.5634 3.48247C12.8942 3.48247 13.1634 3.75162 13.1634 4.08246C13.1634 4.4133 12.8942 4.68246 12.5634 4.68246C12.2326 4.68246 11.9634 4.4133 11.9634 4.08246C11.9634 3.75162 12.2326 3.48247 12.5634 3.48247ZM4.70728 13.1624C5.02555 9.15848 8.49358 5.87445 12.5634 5.87445C16.6645 5.87445 20.0365 9.0966 20.3409 13.1624H4.70728Z" fill="#8DA3AF"/>
</svg>
