<svg width="25" height="25" viewBox="0 0 25 25" fill="none" xmlns="http://www.w3.org/2000/svg">
<path d="M16.4227 10.5708C16.9613 10.5708 17.398 10.1342 17.398 9.59559C17.398 9.05699 16.9613 8.62036 16.4227 8.62036C15.8841 8.62036 15.4475 9.05699 15.4475 9.59559C15.4475 10.1342 15.8841 10.5708 16.4227 10.5708Z" stroke="#8DA3AF" stroke-width="1.46284" stroke-linecap="round" stroke-linejoin="round"/>
<path d="M6.66919 11.5474L10.5701 9.59692L13.9834 12.5226L12.5206 14.4731" stroke="#8DA3AF" stroke-width="1.46284" stroke-linecap="round" stroke-linejoin="round"/>
<path d="M3.74438 17.1547C4.04797 17.3056 4.38072 17.3888 4.71961 17.3985C5.09946 17.4064 5.47554 17.3218 5.81536 17.1519C6.15518 16.982 6.44853 16.7319 6.67007 16.4233C6.89162 16.1146 7.18497 15.8645 7.52479 15.6946C7.86461 15.5247 8.24068 15.4401 8.62053 15.448C9.00038 15.4401 9.37646 15.5247 9.71628 15.6946C10.0561 15.8645 10.3494 16.1146 10.571 16.4233C10.7925 16.7319 11.0859 16.982 11.4257 17.1519C11.7655 17.3218 12.1416 17.4064 12.5215 17.3985C12.9013 17.4064 13.2774 17.3218 13.6172 17.1519C13.957 16.982 14.2504 16.7319 14.4719 16.4233C14.6935 16.1146 14.9868 15.8645 15.3266 15.6946C15.6664 15.5247 16.0425 15.4401 16.4224 15.448C16.8022 15.4401 17.1783 15.5247 17.5181 15.6946C17.8579 15.8645 18.1513 16.1146 18.3728 16.4233C18.5944 16.7319 18.8877 16.982 19.2275 17.1519C19.5674 17.3218 19.9434 17.4064 20.3233 17.3985C20.6622 17.3888 20.9949 17.3056 21.2985 17.1547" stroke="#8DA3AF" stroke-width="1.46284" stroke-linecap="round" stroke-linejoin="round"/>
</svg>
