<svg width="16" height="16" viewBox="0 0 16 16" fill="none" xmlns="http://www.w3.org/2000/svg">
<path d="M1.5419 4.98834C1.71864 4.81166 1.95831 4.7124 2.20822 4.7124C2.45813 4.7124 2.6978 4.81166 2.87454 4.98834L7.53971 9.65352L12.2049 4.98834C12.3826 4.81667 12.6207 4.72167 12.8678 4.72382C13.1149 4.72596 13.3513 4.82508 13.526 4.99982C13.7008 5.17456 13.7999 5.41094 13.8021 5.65805C13.8042 5.90516 13.7092 6.14323 13.5375 6.32098L8.20603 11.6525C8.0293 11.8292 7.78962 11.9284 7.53971 11.9284C7.28981 11.9284 7.05013 11.8292 6.8734 11.6525L1.5419 6.32098C1.36522 6.14424 1.26596 5.90457 1.26596 5.65466C1.26596 5.40475 1.36522 5.16508 1.5419 4.98834Z" fill="#9FA6AB"/>
</svg>
