<svg width="24" height="24" viewBox="0 0 24 24" fill="none" xmlns="http://www.w3.org/2000/svg">
<g clip-path="url(#clip0_3258_10470)">
<path d="M18.2359 5.00413L18.309 5L18.3985 5.00551L18.4605 5.01654L18.5453 5.04065L18.619 5.07234L18.6879 5.11161L18.7499 5.15778L18.8064 5.20945L18.8422 5.2501L18.8987 5.33002L18.9345 5.39616C18.9669 5.46506 18.9876 5.53809 18.9966 5.61388L19 5.68691C19 5.73858 18.9945 5.78957 18.9835 5.83848L18.9594 5.92323L14.459 18.3778C14.3736 18.5636 14.2368 18.7209 14.0648 18.8312C13.8927 18.9415 13.6926 19.0001 13.4882 19C13.3041 19.0006 13.123 18.9535 12.9626 18.8633C12.8021 18.7731 12.6677 18.6429 12.5725 18.4853L12.5278 18.3978L10.2183 13.7803L5.62283 11.4819C5.4528 11.4041 5.30616 11.2831 5.19758 11.1308C5.089 10.9786 5.0223 10.8006 5.00413 10.6145L5 10.5118C5 10.126 5.20738 9.77323 5.57943 9.56791L5.67589 9.51968L18.0892 5.0372L18.1622 5.01654L18.2359 5.00413Z" fill="#58646D"/>
</g>
<defs>
<clipPath id="clip0_3258_10470">
<rect width="24" height="24" fill="white"/>
</clipPath>
</defs>
</svg>
