<svg width="24" height="23" viewBox="0 0 24 23" fill="none" xmlns="http://www.w3.org/2000/svg">
<path d="M12 9.59623C13.2312 9.59623 14.2266 10.5296 14.2266 11.6776C14.2266 12.8257 13.2312 13.759 12 13.759C10.7688 13.759 9.77344 12.8257 9.77344 11.6776C9.77344 10.5296 10.7688 9.59623 12 9.59623Z" fill="white" stroke="white" stroke-width="0.046875"/>
<path d="M14.25 4.66127C14.25 3.4988 13.2426 2.55644 12 2.55644C10.7574 2.55644 9.75 3.4988 9.75 4.66127C9.75 5.82375 10.7574 6.76611 12 6.76611C13.2426 6.76611 14.25 5.82374 14.25 4.66127Z" fill="white"/>
<path d="M14.25 18.6937C14.25 17.5313 13.2426 16.5889 12 16.5889C10.7574 16.5889 9.75 17.5313 9.75 18.6937C9.75 19.8562 10.7574 20.7986 12 20.7986C13.2426 20.7986 14.25 19.8562 14.25 18.6937Z" fill="white"/>
</svg>
