<svg width="21" height="21" viewBox="0 0 21 21" fill="none" xmlns="http://www.w3.org/2000/svg">
<ellipse cx="8.75" cy="15.3125" rx="6.125" ry="3.0625" stroke="#28303F" stroke-width="1.5" stroke-linejoin="round"/>
<circle cx="8.75" cy="6.125" r="3.5" stroke="#28303F" stroke-width="1.5" stroke-linejoin="round"/>
<path fill-rule="evenodd" clip-rule="evenodd" d="M13.2245 8.87249C12.9127 9.37932 12.5171 9.82914 12.0571 10.2027C12.3927 10.3145 12.7518 10.3751 13.1249 10.3751C14.9889 10.3751 16.4999 8.86406 16.4999 7.00009C16.4999 5.21938 15.1209 3.76077 13.3725 3.63403C13.6496 4.14716 13.8437 4.71166 13.937 5.30958C14.5659 5.61222 14.9999 6.25547 14.9999 7.00009C14.9999 8.00222 14.2138 8.82072 13.2245 8.87249Z" fill="#28303F"/>
<path fill-rule="evenodd" clip-rule="evenodd" d="M16.1196 17.0125C16.4463 16.4839 16.625 15.9109 16.625 15.3124C16.625 15.2948 16.6249 15.2772 16.6246 15.2596C17.0049 15.0935 17.2719 14.9164 17.4361 14.7546C17.6084 14.5849 17.625 14.4782 17.625 14.4374C17.625 14.3967 17.6084 14.2899 17.4361 14.1203C17.2612 13.948 16.9697 13.7583 16.5489 13.583C16.3694 13.5082 16.1729 13.4387 15.9613 13.3756C15.4294 12.6371 14.6026 11.9958 13.572 11.5073C14.9244 11.5522 16.1686 11.7995 17.1258 12.1983C17.6551 12.4189 18.1324 12.7005 18.4888 13.0517C18.8479 13.4054 19.125 13.8741 19.125 14.4374C19.125 15.0007 18.8479 15.4695 18.4888 15.8232C18.1324 16.1743 17.6551 16.456 17.1258 16.6765C16.8181 16.8048 16.4807 16.9173 16.1196 17.0125Z" fill="#28303F"/>
</svg>
