<svg xmlns="http://www.w3.org/2000/svg" width="125" height="37" viewBox="0 0 125 37" fill="none">
  <path d="M119.85 1.15976C121.967 1.15976 123.69 2.84635 123.69 4.91906V31.7792C123.69 33.8519 121.967 35.5385 119.85 35.5385H5.53313C3.41598 35.5385 1.69322 33.8519 1.69322 31.7792V4.91906C1.69322 2.84635 3.41598 1.15976 5.53313 1.15976H119.85ZM119.85 0.442371H5.53313C3.0193 0.442371 0.960449 2.458 0.960449 4.91906V31.7792C0.960449 34.2402 3.0193 36.2559 5.53313 36.2559H119.85C122.364 36.2559 124.423 34.2402 124.423 31.7792V4.91906C124.423 2.458 122.364 0.442371 119.85 0.442371Z" fill="#4DCCB5"/>
  <path d="M28.5137 18.1557C28.4871 15.27 30.9271 13.8661 31.0387 13.8008C29.6568 11.8284 27.515 11.5589 26.7623 11.5374C24.9634 11.352 23.2185 12.5912 22.3021 12.5912C21.3675 12.5912 19.9563 11.5553 18.4355 11.5857C16.4784 11.6153 14.6475 12.7246 13.6433 14.4472C11.571 17.9596 13.1165 23.1212 15.102 25.9604C16.0952 27.3508 17.2557 28.9033 18.7748 28.8487C20.2609 28.7887 20.816 27.9211 22.6094 27.9211C24.3864 27.9211 24.9076 28.8487 26.4569 28.8138C28.0518 28.7887 29.056 27.4171 30.0144 26.0141C31.1622 24.4204 31.6231 22.8509 31.6414 22.7703C31.6039 22.7577 28.5438 21.6144 28.5137 18.1557Z" fill="#4DCCB5"/>
  <path d="M25.5871 9.6697C26.3864 8.6911 26.9333 7.35973 26.7815 6.00867C25.6246 6.05881 24.1778 6.79209 23.3447 7.7492C22.6076 8.59261 21.9491 9.97501 22.1192 11.275C23.4188 11.3699 24.7531 10.6331 25.5871 9.6697Z" fill="#4DCCB5"/>
  <path d="M45.8185 9.40373C45.8185 10.4575 45.4957 11.2508 44.851 11.7835C44.2538 12.2751 43.4051 12.5213 42.3058 12.5213C41.7607 12.5213 41.2943 12.498 40.9038 12.4515V6.69354C41.4132 6.61296 41.9619 6.57178 42.5545 6.57178C43.6017 6.57178 44.3909 6.79472 44.9232 7.24059C45.5195 7.74467 45.8185 8.46542 45.8185 9.40373ZM44.808 9.42969C44.808 8.74655 44.6232 8.22278 44.2538 7.85748C43.8843 7.49308 43.3447 7.31043 42.6341 7.31043C42.3323 7.31043 42.0753 7.33013 41.8622 7.37131V11.7486C41.9802 11.7665 42.196 11.7746 42.5097 11.7746C43.2432 11.7746 43.8093 11.5749 44.208 11.1756C44.6068 10.7763 44.808 10.1943 44.808 9.42969Z" fill="#4DCCB5"/>
  <path d="M51.1768 10.3243C51.1768 10.9734 50.9875 11.5053 50.6088 11.9225C50.2119 12.3514 49.6861 12.5653 49.0294 12.5653C48.3966 12.5653 47.8927 12.3603 47.5168 11.9484C47.1418 11.5375 46.9543 11.0191 46.9543 10.3941C46.9543 9.74055 47.1473 9.20424 47.5351 8.78791C47.9228 8.37158 48.4441 8.16296 49.1008 8.16296C49.7336 8.16296 50.2421 8.368 50.6271 8.77896C50.9929 9.17828 51.1768 9.69399 51.1768 10.3243ZM50.1827 10.3547C50.1827 9.96528 50.0967 9.63132 49.9257 9.35287C49.7245 9.01622 49.4382 8.8479 49.066 8.8479C48.681 8.8479 48.3883 9.01622 48.1871 9.35287C48.0152 9.63132 47.9302 9.97065 47.9302 10.3718C47.9302 10.7612 48.0161 11.0952 48.1871 11.3736C48.3947 11.7103 48.6837 11.8786 49.0569 11.8786C49.4227 11.8786 49.7098 11.7076 49.9165 11.3647C50.0939 11.0809 50.1827 10.7442 50.1827 10.3547Z" fill="#4DCCB5"/>
  <path d="M58.3615 8.24902L57.0126 12.4696H56.1346L55.5758 10.6369C55.4341 10.1794 55.3188 9.72454 55.2292 9.27329H55.2118C55.1286 9.73707 55.0134 10.191 54.8652 10.6369L54.2717 12.4696H53.3837L52.1152 8.24902H53.1002L53.5876 10.2555C53.7056 10.73 53.8026 11.1821 53.8803 11.6101H53.8977C53.969 11.2574 54.087 10.8079 54.2534 10.2644L54.8652 8.24992H55.6463L56.2325 10.2215C56.3742 10.7022 56.4895 11.1651 56.5782 11.611H56.6047C56.6696 11.1768 56.7675 10.7139 56.8973 10.2215L57.4205 8.24992H58.3615V8.24902Z" fill="#4DCCB5"/>
  <path d="M63.3301 12.4694H62.3717V10.052C62.3717 9.30708 62.0827 8.93462 61.5029 8.93462C61.2185 8.93462 60.9889 9.03669 60.8106 9.24172C60.6341 9.44676 60.5445 9.6885 60.5445 9.96516V12.4685H59.586V9.45481C59.586 9.08414 59.5741 8.68214 59.5513 8.247H60.3936L60.4384 8.90687H60.4649C60.5765 8.70184 60.7429 8.53262 60.9615 8.39742C61.2212 8.23984 61.512 8.16016 61.8303 8.16016C62.2327 8.16016 62.5674 8.28729 62.8335 8.54247C63.1646 8.85494 63.3301 9.32141 63.3301 9.94098V12.4694Z" fill="#4DCCB5"/>
  <path d="M65.9731 12.4695H65.0156V6.31226H65.9731V12.4695Z" fill="#4DCCB5"/>
  <path d="M71.6157 10.3243C71.6157 10.9734 71.4264 11.5053 71.0478 11.9225C70.6509 12.3514 70.1241 12.5653 69.4684 12.5653C68.8346 12.5653 68.3307 12.3603 67.9557 11.9484C67.5808 11.5375 67.3933 11.0191 67.3933 10.3941C67.3933 9.74055 67.5863 9.20424 67.974 8.78791C68.3618 8.37158 68.8831 8.16296 69.5388 8.16296C70.1726 8.16296 70.6801 8.368 71.0661 8.77896C71.4319 9.17828 71.6157 9.69399 71.6157 10.3243ZM70.6207 10.3547C70.6207 9.96528 70.5347 9.63132 70.3637 9.35287C70.1634 9.01622 69.8763 8.8479 69.505 8.8479C69.119 8.8479 68.8264 9.01622 68.6261 9.35287C68.4542 9.63132 68.3691 9.97065 68.3691 10.3718C68.3691 10.7612 68.4551 11.0952 68.6261 11.3736C68.8337 11.7103 69.1227 11.8786 69.4958 11.8786C69.8616 11.8786 70.1479 11.7076 70.3546 11.3647C70.5329 11.0809 70.6207 10.7442 70.6207 10.3547Z" fill="#4DCCB5"/>
  <path d="M76.2543 12.4695H75.3938L75.3224 11.9834H75.2959C75.0014 12.371 74.5817 12.5653 74.0366 12.5653C73.6296 12.5653 73.3004 12.4373 73.0526 12.183C72.8276 11.952 72.7151 11.6646 72.7151 11.3235C72.7151 10.8078 72.9346 10.4147 73.3763 10.1426C73.8171 9.87037 74.4372 9.73697 75.2355 9.74323V9.66444C75.2355 9.10844 74.9374 8.83089 74.3402 8.83089C73.915 8.83089 73.54 8.93564 73.2163 9.14336L73.0215 8.52737C73.422 8.28473 73.9168 8.16296 74.5003 8.16296C75.627 8.16296 76.1922 8.74493 76.1922 9.90887V11.4632C76.1922 11.8849 76.2132 12.2206 76.2543 12.4695ZM75.2593 11.0191V10.3682C74.2021 10.3503 73.6735 10.6341 73.6735 11.2188C73.6735 11.439 73.7339 11.6037 73.8573 11.7139C73.9808 11.824 74.1381 11.8786 74.3256 11.8786C74.5359 11.8786 74.7326 11.8133 74.9118 11.6834C75.092 11.5527 75.2026 11.3871 75.2438 11.1838C75.2538 11.1382 75.2593 11.0827 75.2593 11.0191Z" fill="#4DCCB5"/>
  <path d="M81.7004 12.4695H80.8498L80.805 11.7917H80.7785C80.5069 12.3074 80.0441 12.5653 79.3939 12.5653C78.8745 12.5653 78.4419 12.3656 78.0989 11.9663C77.756 11.567 77.585 11.0486 77.585 10.412C77.585 9.72886 77.7706 9.17554 78.1437 8.75294C78.505 8.359 78.9476 8.16202 79.4744 8.16202C80.0533 8.16202 80.4584 8.35273 80.6889 8.73504H80.7072V6.31226H81.6665V11.3324C81.6665 11.7434 81.6775 12.1221 81.7004 12.4695ZM80.7072 10.6896V9.98582C80.7072 9.86406 80.698 9.76557 80.6807 9.69036C80.6267 9.46474 80.5106 9.27493 80.334 9.12182C80.1557 8.96872 79.9408 8.89172 79.693 8.89172C79.3354 8.89172 79.0555 9.0305 78.8498 9.30895C78.6458 9.5874 78.5425 9.94285 78.5425 10.3771C78.5425 10.7943 78.6403 11.1328 78.837 11.3933C79.0446 11.6708 79.3244 11.8096 79.6747 11.8096C79.9893 11.8096 80.2408 11.6941 80.4319 11.4622C80.6166 11.2482 80.7072 10.9904 80.7072 10.6896Z" fill="#4DCCB5"/>
  <path d="M89.8972 10.3243C89.8972 10.9734 89.7079 11.5053 89.3293 11.9225C88.9324 12.3514 88.4074 12.5653 87.7499 12.5653C87.1179 12.5653 86.614 12.3603 86.2372 11.9484C85.8623 11.5375 85.6748 11.0191 85.6748 10.3941C85.6748 9.74055 85.8678 9.20424 86.2555 8.78791C86.6433 8.37158 87.1646 8.16296 87.8221 8.16296C88.4541 8.16296 88.9635 8.368 89.3476 8.77896C89.7134 9.17828 89.8972 9.69399 89.8972 10.3243ZM88.904 10.3547C88.904 9.96528 88.8181 9.63132 88.647 9.35287C88.4449 9.01622 88.1596 8.8479 87.7865 8.8479C87.4024 8.8479 87.1097 9.01622 86.9076 9.35287C86.7357 9.63132 86.6506 9.97065 86.6506 10.3718C86.6506 10.7612 86.7366 11.0952 86.9076 11.3736C87.1152 11.7103 87.4042 11.8786 87.7773 11.8786C88.1431 11.8786 88.4312 11.7076 88.6379 11.3647C88.8144 11.0809 88.904 10.7442 88.904 10.3547Z" fill="#4DCCB5"/>
  <path d="M95.0506 12.4694H94.0931V10.052C94.0931 9.30708 93.8041 8.93462 93.2234 8.93462C92.939 8.93462 92.7094 9.03669 92.532 9.24172C92.3546 9.44676 92.2659 9.6885 92.2659 9.96516V12.4685H91.3065V9.45481C91.3065 9.08414 91.2956 8.68214 91.2727 8.247H92.1141L92.1589 8.90687H92.1854C92.2979 8.70184 92.4643 8.53262 92.682 8.39742C92.9426 8.23984 93.2326 8.16016 93.5517 8.16016C93.9532 8.16016 94.2879 8.28729 94.554 8.54247C94.886 8.85494 95.0506 9.32141 95.0506 9.94098V12.4694Z" fill="#4DCCB5"/>
  <path d="M101.501 8.9516H100.445V11.0019C100.445 11.523 100.633 11.7835 101.004 11.7835C101.176 11.7835 101.319 11.7692 101.431 11.7397L101.456 12.4515C101.267 12.5213 101.018 12.5562 100.712 12.5562C100.333 12.5562 100.039 12.4434 99.8254 12.2178C99.6114 11.9922 99.5054 11.6125 99.5054 11.0798V8.9516H98.8752V8.24876H99.5054V7.47519L100.445 7.19763V8.24786H101.5V8.9516H101.501Z" fill="#4DCCB5"/>
  <path d="M106.575 12.4695H105.615V10.07C105.615 9.31343 105.326 8.9347 104.747 8.9347C104.303 8.9347 103.999 9.15406 103.833 9.59277C103.805 9.68499 103.788 9.7978 103.788 9.93031V12.4686H102.831V6.31226H103.788V8.85591H103.806C104.108 8.39302 104.541 8.16202 105.101 8.16202C105.498 8.16202 105.827 8.28916 106.087 8.54433C106.412 8.86218 106.575 9.33491 106.575 9.95986V12.4695Z" fill="#4DCCB5"/>
  <path d="M111.809 10.1596C111.809 10.3279 111.796 10.4694 111.773 10.5849H108.899C108.911 11.0021 109.049 11.3199 109.315 11.5402C109.558 11.7372 109.872 11.8356 110.256 11.8356C110.681 11.8356 111.069 11.7694 111.418 11.636L111.568 12.2878C111.159 12.4615 110.678 12.5483 110.121 12.5483C109.454 12.5483 108.928 12.3558 108.547 11.9708C108.165 11.5858 107.976 11.0692 107.976 10.421C107.976 9.78442 108.152 9.25438 108.508 8.83178C108.879 8.38053 109.381 8.15491 110.015 8.15491C110.635 8.15491 111.106 8.38053 111.425 8.83178C111.682 9.18992 111.809 9.63311 111.809 10.1596ZM110.894 9.91693C110.901 9.63848 110.838 9.39853 110.708 9.19618C110.542 8.93564 110.289 8.80492 109.946 8.80492C109.633 8.80492 109.378 8.93206 109.183 9.18723C109.024 9.39047 108.93 9.63311 108.899 9.91693H110.894Z" fill="#4DCCB5"/>
  <path d="M50.0207 28.6489H47.9437L46.8061 25.149H42.8516L41.7679 28.6489H39.7458L43.6637 16.7338H46.0836L50.0207 28.6489ZM46.4631 23.6807L45.4343 20.5694C45.3254 20.2515 45.1215 19.503 44.8206 18.3248H44.784C44.6642 18.8315 44.4713 19.58 44.206 20.5694L43.1955 23.6807H46.4631Z" fill="#4DCCB5"/>
  <path d="M60.096 24.2473C60.096 25.7085 59.6927 26.8635 58.8861 27.7114C58.1636 28.4661 57.2664 28.8431 56.1955 28.8431C55.0395 28.8431 54.2091 28.4366 53.7034 27.6236H53.6668V32.1495H51.717V22.8855C51.717 21.9669 51.6923 21.0241 51.6448 20.0571H53.3595L53.4684 21.4189H53.5049C54.1552 20.3929 55.142 19.8807 56.4662 19.8807C57.5015 19.8807 58.3657 20.281 59.0571 21.0823C59.7503 21.8845 60.096 22.9392 60.096 24.2473ZM58.1096 24.3171C58.1096 23.4809 57.9176 22.7915 57.5316 22.2489C57.11 21.6831 56.5439 21.4001 55.8343 21.4001C55.3532 21.4001 54.9161 21.5577 54.5256 21.8684C54.1341 22.1818 53.8781 22.5909 53.7583 23.0977C53.6979 23.3341 53.6677 23.5274 53.6677 23.6797V25.1122C53.6677 25.7371 53.8634 26.2645 54.2549 26.6952C54.6463 27.1258 55.1548 27.3407 55.7803 27.3407C56.5147 27.3407 57.0863 27.0631 57.4951 26.5098C57.9048 25.9556 58.1096 25.225 58.1096 24.3171Z" fill="#4DCCB5"/>
  <path d="M70.1898 24.2473C70.1898 25.7085 69.7865 26.8635 68.979 27.7114C68.2574 28.4661 67.3602 28.8431 66.2893 28.8431C65.1333 28.8431 64.3029 28.4366 63.7981 27.6236H63.7615V32.1495H61.8118V22.8855C61.8118 21.9669 61.7871 21.0241 61.7395 20.0571H63.4543L63.5631 21.4189H63.5997C64.249 20.3929 65.2358 19.8807 66.5609 19.8807C67.5953 19.8807 68.4595 20.281 69.1527 21.0823C69.8432 21.8845 70.1898 22.9392 70.1898 24.2473ZM68.2034 24.3171C68.2034 23.4809 68.0105 22.7915 67.6245 22.2489C67.2029 21.6831 66.6387 21.4001 65.9281 21.4001C65.4461 21.4001 65.0099 21.5577 64.6185 21.8684C64.227 22.1818 63.9719 22.5909 63.8521 23.0977C63.7926 23.3341 63.7615 23.5274 63.7615 23.6797V25.1122C63.7615 25.7371 63.9572 26.2645 64.3468 26.6952C64.7383 27.1249 65.2467 27.3407 65.8741 27.3407C66.6085 27.3407 67.1801 27.0631 67.5889 26.5098C67.9986 25.9556 68.2034 25.225 68.2034 24.3171Z" fill="#4DCCB5"/>
  <path d="M81.4752 25.3074C81.4752 26.3209 81.1158 27.1456 80.3942 27.7821C79.6013 28.4778 78.4975 28.8252 77.079 28.8252C75.7694 28.8252 74.7195 28.5781 73.9248 28.083L74.3766 26.492C75.2326 26.9987 76.1718 27.253 77.1952 27.253C77.9296 27.253 78.5011 27.09 78.9118 26.7659C79.3206 26.4418 79.5245 26.0067 79.5245 25.4641C79.5245 24.9806 79.3562 24.5732 79.0188 24.2429C78.6831 23.9125 78.1225 23.6054 77.3397 23.3216C75.2088 22.5435 74.1443 21.4038 74.1443 19.905C74.1443 18.9255 74.5174 18.1223 75.2646 17.4974C76.009 16.8716 77.0022 16.5591 78.2442 16.5591C79.3517 16.5591 80.2717 16.748 81.0061 17.1249L80.5186 18.681C79.8327 18.3157 79.0572 18.1331 78.1893 18.1331C77.5034 18.1331 76.9675 18.2987 76.5834 18.6282C76.2587 18.9228 76.0959 19.2818 76.0959 19.7071C76.0959 20.178 76.2816 20.5675 76.6547 20.8737C76.9794 21.1566 77.5692 21.4628 78.4252 21.7932C79.4724 22.206 80.2415 22.6886 80.7363 23.2419C81.2292 23.7934 81.4752 24.4837 81.4752 25.3074Z" fill="#4DCCB5"/>
  <path d="M87.9217 21.4897H85.7725V25.661C85.7725 26.722 86.1512 27.2521 86.9102 27.2521C87.2587 27.2521 87.5476 27.2225 87.7763 27.1634L87.8302 28.613C87.4461 28.7535 86.9404 28.8243 86.3139 28.8243C85.5439 28.8243 84.9421 28.5942 84.5077 28.1349C84.0752 27.6747 83.8575 26.9029 83.8575 25.8186V21.4879H82.5771V20.0553H83.8575V18.4822L85.7725 17.9164V20.0553H87.9217V21.4897Z" fill="#4DCCB5"/>
  <path d="M97.6187 24.2823C97.6187 25.6029 97.2327 26.6872 96.4627 27.5351C95.6552 28.408 94.5833 28.8431 93.2472 28.8431C91.9595 28.8431 90.9343 28.425 90.1698 27.5888C89.4052 26.7525 89.0229 25.6969 89.0229 24.4247C89.0229 23.0933 89.4162 22.0028 90.2054 21.1549C90.9929 20.3061 92.0555 19.8817 93.3917 19.8817C94.6793 19.8817 95.7155 20.2998 96.4974 21.137C97.2455 21.949 97.6187 22.9975 97.6187 24.2823ZM95.5957 24.3441C95.5957 23.5517 95.4229 22.8721 95.0726 22.3054C94.6638 21.6196 94.0794 21.2775 93.3222 21.2775C92.5384 21.2775 91.9431 21.6205 91.5343 22.3054C91.184 22.873 91.0112 23.5633 91.0112 24.3799C91.0112 25.1723 91.184 25.8518 91.5343 26.4177C91.9559 27.1035 92.5448 27.4455 93.3048 27.4455C94.0492 27.4455 94.6336 27.0963 95.0552 26.3998C95.4146 25.8223 95.5957 25.1356 95.5957 24.3441Z" fill="#4DCCB5"/>
  <path d="M103.956 21.7359C103.763 21.701 103.557 21.6831 103.342 21.6831C102.656 21.6831 102.125 21.9364 101.752 22.4441C101.428 22.8918 101.265 23.4576 101.265 24.1408V28.6488H99.3159L99.3342 22.7628C99.3342 21.7726 99.3095 20.871 99.261 20.058H100.959L101.031 21.7019H101.085C101.29 21.1369 101.615 20.6821 102.059 20.3409C102.494 20.0338 102.963 19.8807 103.469 19.8807C103.649 19.8807 103.812 19.8933 103.956 19.9157V21.7359Z" fill="#4DCCB5"/>
  <path d="M112.676 23.9465C112.676 24.2885 112.653 24.5768 112.605 24.8123H106.756C106.779 25.661 107.061 26.3102 107.604 26.7578C108.097 27.158 108.735 27.3586 109.518 27.3586C110.384 27.3586 111.174 27.2234 111.884 26.9521L112.19 28.2772C111.359 28.6318 110.379 28.8081 109.248 28.8081C107.887 28.8081 106.819 28.416 106.041 27.6326C105.266 26.8491 104.877 25.7971 104.877 24.4774C104.877 23.1818 105.238 22.103 105.962 21.2425C106.719 20.3239 107.742 19.8646 109.03 19.8646C110.295 19.8646 111.252 20.3239 111.903 21.2425C112.418 21.9722 112.676 22.8747 112.676 23.9465ZM110.817 23.4513C110.83 22.8855 110.703 22.3966 110.438 21.9839C110.101 21.453 109.582 21.1879 108.885 21.1879C108.247 21.1879 107.729 21.4467 107.333 21.966C107.008 22.3787 106.815 22.8739 106.756 23.4504H110.817V23.4513Z" fill="#4DCCB5"/>
</svg>