<svg width="25" height="24" viewBox="0 0 25 24" fill="none" xmlns="http://www.w3.org/2000/svg">
<g clip-path="url(#clip0_3256_9209)">
<path d="M19.4901 1.41577H5.74593C4.44455 1.41733 3.19692 1.93499 2.27671 2.8552C1.3565 3.77542 0.838839 5.02304 0.83728 6.32442L0.83728 18.1052C0.838839 19.4066 1.3565 20.6542 2.27671 21.5744C3.19692 22.4946 4.44455 23.0123 5.74593 23.0138H19.4901C20.7915 23.0123 22.0391 22.4946 22.9594 21.5744C23.8796 20.6542 24.3972 19.4066 24.3988 18.1052V6.32442C24.3972 5.02304 23.8796 3.77542 22.9594 2.8552C22.0391 1.93499 20.7915 1.41733 19.4901 1.41577ZM5.74593 3.37923H19.4901C20.078 3.38039 20.652 3.55743 21.1384 3.88757C21.6248 4.21772 22.0013 4.68586 22.2193 5.23175L14.7013 12.7508C14.148 13.3019 13.3989 13.6113 12.618 13.6113C11.8371 13.6113 11.0881 13.3019 10.5348 12.7508L3.01672 5.23175C3.23481 4.68586 3.61127 4.21772 4.09765 3.88757C4.58403 3.55743 5.15808 3.38039 5.74593 3.37923ZM19.4901 21.0504H5.74593C4.96481 21.0504 4.21569 20.7401 3.66336 20.1877C3.11103 19.6354 2.80074 18.8863 2.80074 18.1052V7.79701L9.14664 14.139C10.0681 15.0581 11.3165 15.5743 12.618 15.5743C13.9196 15.5743 15.1679 15.0581 16.0894 14.139L22.4353 7.79701V18.1052C22.4353 18.8863 22.125 19.6354 21.5727 20.1877C21.0204 20.7401 20.2712 21.0504 19.4901 21.0504Z" fill="#4DCCB5"/>
</g>
<defs>
<clipPath id="clip0_3256_9209">
<rect width="23.5615" height="23.5615" fill="white" transform="translate(0.83728 0.43457)"/>
</clipPath>
</defs>
</svg>
