<svg xmlns="http://www.w3.org/2000/svg" width="124" height="37" viewBox="0 0 124 37" fill="none">
  <path d="M119.02 1.15976C121.138 1.15976 122.86 2.84635 122.86 4.91906V31.7792C122.86 33.8519 121.138 35.5385 119.02 35.5385H4.70354C2.58639 35.5385 0.863631 33.8519 0.863631 31.7792V4.91906C0.863631 2.84635 2.58639 1.15976 4.70354 1.15976H119.02ZM119.02 0.44237H4.70354C2.18971 0.44237 0.130859 2.458 0.130859 4.91906V31.7792C0.130859 34.2402 2.18971 36.2559 4.70354 36.2559H119.02C121.534 36.2559 123.593 34.2402 123.593 31.7792V4.91906C123.593 2.458 121.534 0.44237 119.02 0.44237Z" fill="#4DCCB5"/>
  <path d="M8.98808 7.19233C8.71944 7.46765 8.56396 7.89629 8.56396 8.4514V28.2518C8.56396 28.8069 8.71944 29.2355 8.98808 29.5109L9.05438 29.5713L20.3878 18.4803V18.2184L9.05438 7.12742L8.98808 7.19233Z" fill="#4DCCB5"/>
  <path d="M25.5331 22.1791L21.7595 18.4802V18.2183L25.5377 14.5195L25.6223 14.5676L30.0967 17.06C31.3736 17.7673 31.3736 18.9312 30.0967 19.643L25.6223 22.131L25.5331 22.1791Z" fill="#4DCCB5"/>
  <path d="M24.9365 22.8195L21.0738 19.0379L9.67407 30.1994C10.0982 30.6358 10.7898 30.6884 11.5763 30.252L24.9365 22.8195Z" fill="#4DCCB5"/>
  <path d="M24.9365 13.8788L11.5763 6.44643C10.7898 6.01443 10.0982 6.06703 9.67407 6.5035L21.0738 17.6605L24.9365 13.8788Z" fill="#4DCCB5"/>
  <path d="M43.4959 9.61399C43.4959 10.3616 43.2672 10.9604 42.8168 11.4069C42.299 11.9363 41.6245 12.2026 40.798 12.2026C40.0081 12.2026 39.3336 11.9318 38.7803 11.3979C38.2259 10.8563 37.9492 10.1915 37.9492 9.39575C37.9492 8.60002 38.2259 7.93523 38.7803 7.39803C39.3336 6.85971 40.0081 6.58887 40.798 6.58887C41.1912 6.58887 41.5662 6.66833 41.924 6.81606C42.2807 6.96491 42.5711 7.16636 42.7814 7.41482L42.3036 7.88711C41.9366 7.46294 41.437 7.25366 40.798 7.25366C40.2218 7.25366 39.7223 7.45063 39.2982 7.84793C38.8786 8.24636 38.6683 8.7623 38.6683 9.39575C38.6683 10.0292 38.8786 10.5496 39.2982 10.948C39.7223 11.3409 40.2218 11.5423 40.798 11.5423C41.4096 11.5423 41.924 11.3409 42.3298 10.9436C42.5973 10.6806 42.7494 10.3179 42.7894 9.85461H40.798V9.20773H43.4547C43.4867 9.34762 43.4959 9.48304 43.4959 9.61399Z" fill="#4DCCB5" stroke="#4DCCB5" stroke-width="0.150794" stroke-miterlimit="10"/>
  <path d="M47.7108 7.37111H45.2153V9.07225H47.465V9.71913H45.2153V11.4203H47.7108V12.0795H44.5088V6.71191H47.7108V7.37111Z" fill="#4DCCB5" stroke="#4DCCB5" stroke-width="0.150794" stroke-miterlimit="10"/>
  <path d="M50.6852 12.0795H49.9787V7.37111H48.448V6.71191H52.217V7.37111H50.6852V12.0795Z" fill="#4DCCB5" stroke="#4DCCB5" stroke-width="0.150794" stroke-miterlimit="10"/>
  <path d="M54.9448 12.0795V6.71191H55.6502V12.0795H54.9448Z" fill="#4DCCB5" stroke="#4DCCB5" stroke-width="0.150794" stroke-miterlimit="10"/>
  <path d="M58.7765 12.0795H58.0757V7.37111H56.5393V6.71191H60.3129V7.37111H58.7765V12.0795Z" fill="#4DCCB5" stroke="#4DCCB5" stroke-width="0.150794" stroke-miterlimit="10"/>
  <path d="M67.4486 11.389C66.9079 11.9318 66.238 12.2026 65.4389 12.2026C64.6353 12.2026 63.9654 11.9318 63.4247 11.389C62.8851 10.8473 62.6165 10.1825 62.6165 9.39575C62.6165 8.60897 62.8851 7.94418 63.4247 7.4025C63.9654 6.85971 64.6353 6.58887 65.4389 6.58887C66.2334 6.58887 66.9033 6.85971 67.4441 7.40698C67.9882 7.95314 68.2569 8.61345 68.2569 9.39575C68.2569 10.1825 67.9882 10.8473 67.4486 11.389ZM63.9471 10.9391C64.3541 11.3409 64.8491 11.5423 65.4389 11.5423C66.0242 11.5423 66.5238 11.3409 66.9262 10.9391C67.332 10.5373 67.5378 10.0214 67.5378 9.39575C67.5378 8.77013 67.332 8.25419 66.9262 7.85241C66.5238 7.45063 66.0242 7.24918 65.4389 7.24918C64.8491 7.24918 64.3541 7.45063 63.9471 7.85241C63.5413 8.25419 63.3355 8.77013 63.3355 9.39575C63.3355 10.0214 63.5413 10.5373 63.9471 10.9391Z" fill="#4DCCB5" stroke="#4DCCB5" stroke-width="0.150794" stroke-miterlimit="10"/>
  <path d="M69.248 12.0795V6.71191H70.1054L72.7713 10.8864H72.8022L72.7713 9.85455V6.71191H73.4766V12.0795H72.7404L69.9488 7.69902H69.9179L69.9488 8.73538V12.0795H69.248Z" fill="#4DCCB5" stroke="#4DCCB5" stroke-width="0.150794" stroke-miterlimit="10"/>
  <path d="M62.4427 19.918C60.2946 19.918 58.5399 21.5184 58.5399 23.7265C58.5399 25.9167 60.2946 27.5339 62.4427 27.5339C64.5953 27.5339 66.35 25.9167 66.35 23.7265C66.35 21.5184 64.5953 19.918 62.4427 19.918ZM62.4427 26.0342C61.2641 26.0342 60.2501 25.0818 60.2501 23.7265C60.2501 22.3533 61.2641 21.4177 62.4427 21.4177C63.6213 21.4177 64.6398 22.3533 64.6398 23.7265C64.6398 25.0818 63.6213 26.0342 62.4427 26.0342ZM53.9272 19.918C51.7746 19.918 50.0244 21.5184 50.0244 23.7265C50.0244 25.9167 51.7746 27.5339 53.9272 27.5339C56.0786 27.5339 57.83 25.9167 57.83 23.7265C57.83 21.5184 56.0786 19.918 53.9272 19.918ZM53.9272 26.0342C52.7474 26.0342 51.73 25.0818 51.73 23.7265C51.73 22.3533 52.7474 21.4177 53.9272 21.4177C55.1058 21.4177 56.1198 22.3533 56.1198 23.7265C56.1198 25.0818 55.1058 26.0342 53.9272 26.0342ZM43.7941 21.0853V22.7036H47.7415C47.626 23.6079 47.3174 24.2727 46.8441 24.736C46.268 25.2956 45.3706 25.9167 43.7941 25.9167C41.3649 25.9167 39.4627 23.9974 39.4627 21.6191C39.4627 19.2409 41.3649 17.3215 43.7941 17.3215C45.1076 17.3215 46.0633 17.824 46.7687 18.4754L47.9336 17.3349C46.947 16.4127 45.6346 15.7043 43.7941 15.7043C40.463 15.7043 37.6633 18.3579 37.6633 21.6191C37.6633 24.8804 40.463 27.5339 43.7941 27.5339C45.5946 27.5339 46.947 26.9564 48.0102 25.8731C49.0996 24.8065 49.4391 23.3068 49.4391 22.0959C49.4391 21.7198 49.4071 21.374 49.3499 21.0853H43.7941ZM85.2295 22.3399C84.9082 21.4882 83.9171 19.918 81.8983 19.918C79.8977 19.918 78.2321 21.4613 78.2321 23.7265C78.2321 25.8597 79.8806 27.5339 82.0903 27.5339C83.8771 27.5339 84.9082 26.4674 85.3323 25.8462L84.0063 24.9811C83.5639 25.6146 82.9614 26.0342 82.0903 26.0342C81.2249 26.0342 80.6042 25.6459 80.2064 24.8804L85.4089 22.773L85.2295 22.3399ZM79.9251 23.6079C79.8806 22.1395 81.09 21.3874 81.9566 21.3874C82.6356 21.3874 83.2118 21.7198 83.4038 22.1955L79.9251 23.6079ZM75.6966 27.3023H77.4067V16.1106H75.6966V27.3023ZM72.8958 20.7663H72.8386C72.4545 20.3209 71.7218 19.918 70.7935 19.918C68.8456 19.918 67.0645 21.5923 67.0645 23.7388C67.0645 25.8731 68.8456 27.5339 70.7935 27.5339C71.7218 27.5339 72.4545 27.1277 72.8386 26.6688H72.8958V27.215C72.8958 28.671 72.1013 29.4533 70.8198 29.4533C69.7749 29.4533 69.1268 28.7147 68.8593 28.0935L67.372 28.7012C67.8007 29.7107 68.9359 30.953 70.8198 30.953C72.8249 30.953 74.5168 29.798 74.5168 26.9878V20.1496H72.8958V20.7663ZM70.9398 26.0342C69.7612 26.0342 68.7747 25.0684 68.7747 23.7388C68.7747 22.3969 69.7612 21.4177 70.9398 21.4177C72.1013 21.4177 73.017 22.3969 73.017 23.7388C73.017 25.0684 72.1013 26.0342 70.9398 26.0342ZM93.2362 16.1106H89.1459V27.3023H90.8516V23.0617H93.2362C95.1304 23.0617 96.9881 21.7198 96.9881 19.5856C96.9881 17.4524 95.1259 16.1106 93.2362 16.1106ZM93.2808 21.505H90.8516V17.6673H93.2808C94.5543 17.6673 95.2813 18.7026 95.2813 19.5856C95.2813 20.4518 94.5543 21.505 93.2808 21.505ZM103.824 19.8967C102.592 19.8967 101.31 20.4294 100.783 21.6102L102.297 22.2313C102.623 21.6102 103.222 21.4087 103.855 21.4087C104.74 21.4087 105.637 21.9291 105.651 22.848V22.9655C105.342 22.7909 104.682 22.5324 103.869 22.5324C102.239 22.5324 100.578 23.4109 100.578 25.0505C100.578 26.5502 101.913 27.516 103.414 27.516C104.562 27.516 105.195 27.009 105.593 26.4192H105.651V27.2844H107.298V22.9912C107.298 21.0069 105.785 19.8967 103.824 19.8967ZM103.618 26.0298C103.061 26.0298 102.283 25.7589 102.283 25.0818C102.283 24.2156 103.253 23.8832 104.092 23.8832C104.843 23.8832 105.195 24.0455 105.651 24.2592C105.517 25.2956 104.606 26.0298 103.618 26.0298ZM113.3 20.1418L111.339 24.9934H111.281L109.254 20.1418H107.415L110.46 26.9217L108.723 30.6945H110.505L115.198 20.1418H113.3ZM97.9255 27.3023H99.6357V16.1106H97.9255V27.3023Z" fill="#4DCCB5"/>
</svg>