<svg width="25" height="25" viewBox="0 0 25 25" fill="none" xmlns="http://www.w3.org/2000/svg">
<g clip-path="url(#clip0_3256_9198)">
<path d="M13.7147 1.97561C13.7147 1.71524 13.8182 1.46553 14.0023 1.28142C14.1864 1.09731 14.4361 0.993877 14.6965 0.993877C17.2993 0.996736 19.7947 2.03197 21.6352 3.87245C23.4757 5.71293 24.5109 8.20834 24.5137 10.8112C24.5137 11.0715 24.4103 11.3213 24.2262 11.5054C24.0421 11.6895 23.7924 11.7929 23.532 11.7929C23.2716 11.7929 23.0219 11.6895 22.8378 11.5054C22.6537 11.3213 22.5503 11.0715 22.5503 10.8112C22.5479 8.72893 21.7197 6.73263 20.2474 5.26026C18.775 3.78788 16.7787 2.95968 14.6965 2.95734C14.4361 2.95734 14.1864 2.8539 14.0023 2.66979C13.8182 2.48568 13.7147 2.23598 13.7147 1.97561ZM14.6965 6.88426C15.7379 6.88426 16.7368 7.29798 17.4732 8.03442C18.2096 8.77086 18.6234 9.76969 18.6234 10.8112C18.6234 11.0715 18.7268 11.3213 18.9109 11.5054C19.095 11.6895 19.3447 11.7929 19.6051 11.7929C19.8655 11.7929 20.1152 11.6895 20.2993 11.5054C20.4834 11.3213 20.5868 11.0715 20.5868 10.8112C20.5853 9.24943 19.9642 7.75209 18.8599 6.64777C17.7555 5.54345 16.2582 4.92236 14.6965 4.9208C14.4361 4.9208 14.1864 5.02423 14.0023 5.20834C13.8182 5.39245 13.7147 5.64215 13.7147 5.90253C13.7147 6.1629 13.8182 6.4126 14.0023 6.59671C14.1864 6.78082 14.4361 6.88426 14.6965 6.88426ZM23.6233 17.427C24.1922 17.9975 24.5117 18.7704 24.5117 19.5761C24.5117 20.3817 24.1922 21.1546 23.6233 21.7251L22.7299 22.7549C14.6896 30.4526 -4.87629 10.8917 2.70266 2.82578L3.83165 1.84406C4.40279 1.29102 5.1687 0.98509 5.96368 0.992439C6.75865 0.999788 7.51878 1.31983 8.07959 1.88332C8.11003 1.91376 9.92917 4.27678 9.92917 4.27678C10.469 4.84386 10.7694 5.59714 10.7682 6.38004C10.7669 7.16295 10.4639 7.91524 9.9223 8.48055L8.78546 9.90995C9.4146 11.4386 10.3396 12.8279 11.5073 13.998C12.675 15.168 14.0624 16.0958 15.5898 16.7281L17.0281 15.5843C17.5934 15.0431 18.3456 14.7405 19.1283 14.7394C19.9109 14.7383 20.6639 15.0388 21.2308 15.5785C21.2308 15.5785 23.5929 17.3966 23.6233 17.427ZM22.2725 18.8545C22.2725 18.8545 19.9232 17.0471 19.8927 17.0167C19.6905 16.8161 19.4172 16.7036 19.1324 16.7036C18.8476 16.7036 18.5743 16.8161 18.372 17.0167C18.3455 17.0442 16.3654 18.6218 16.3654 18.6218C16.232 18.728 16.0731 18.7976 15.9046 18.8238C15.7361 18.85 15.5636 18.8318 15.4043 18.771C13.4256 18.0343 11.6283 16.881 10.1342 15.3891C8.6401 13.8972 7.48408 12.1016 6.74444 10.124C6.67886 9.96243 6.65748 9.78634 6.6825 9.6138C6.70752 9.44126 6.77803 9.27849 6.88679 9.14223C6.88679 9.14223 8.46443 7.1611 8.49094 7.13558C8.69147 6.93333 8.80399 6.66004 8.80399 6.37523C8.80399 6.09041 8.69147 5.81713 8.49094 5.61488C8.46051 5.58543 6.65314 3.23418 6.65314 3.23418C6.44786 3.05012 6.17995 2.95154 5.90433 2.95866C5.6287 2.96578 5.36623 3.07805 5.17073 3.27247L4.04174 4.2542C-1.49718 10.9143 15.4583 26.9292 21.2947 21.4139L22.189 20.383C22.3986 20.1889 22.5245 19.9209 22.54 19.6356C22.5556 19.3504 22.4597 19.0703 22.2725 18.8545Z" fill="#4DCCB5"/>
</g>
<defs>
<clipPath id="clip0_3256_9198">
<rect width="23.5615" height="23.5615" fill="white" transform="translate(0.952393 0.994141)"/>
</clipPath>
</defs>
</svg>
