<svg width="24" height="25" viewBox="0 0 24 25" fill="none" xmlns="http://www.w3.org/2000/svg">
<g clip-path="url(#clip0_3256_9200)">
<path fill-rule="evenodd" clip-rule="evenodd" d="M20.0893 4.41841C17.8843 2.21148 14.9529 0.995122 11.83 0.994141C5.39479 0.994141 0.15727 6.23068 0.154325 12.6689C0.153344 14.7266 0.691331 16.7352 1.71331 18.5062L0.0561523 24.5556L6.24497 22.9319C7.95023 23.8625 9.8705 24.3524 11.8241 24.3534H11.829C18.2633 24.3534 23.5018 19.1159 23.5047 12.6777C23.5067 9.55874 22.2933 6.62436 20.0893 4.41841ZM11.83 22.3811H11.8261C10.0845 22.3811 8.37729 21.9128 6.88702 21.0283L6.53262 20.8182L2.85997 21.7813L3.84072 18.1999L3.61001 17.8328C2.6381 16.2875 2.12564 14.5018 2.12662 12.6689C2.12858 7.31844 6.48255 2.96545 11.8349 2.96545C14.4267 2.96545 16.8634 3.97663 18.6953 5.8105C20.5272 7.64535 21.5354 10.083 21.5344 12.6757C21.5315 18.0281 17.1785 22.3811 11.83 22.3811ZM17.153 15.1134C16.8614 14.9671 15.4271 14.2612 15.1591 14.164C14.892 14.0668 14.6977 14.0178 14.5023 14.3093C14.3069 14.6009 13.7493 15.2587 13.5785 15.454C13.4086 15.6484 13.2378 15.673 12.9463 15.5267C12.6547 15.3804 11.7142 15.0731 10.5999 14.0786C9.73305 13.305 9.14696 12.3498 8.97712 12.0572C8.80728 11.7647 8.95945 11.6076 9.10475 11.4623C9.2363 11.3317 9.39632 11.1217 9.5426 10.9508C9.68986 10.782 9.73796 10.6602 9.83614 10.4649C9.93333 10.2705 9.88522 10.0997 9.81159 9.9534C9.73796 9.8081 9.15482 8.37183 8.91233 7.78771C8.67573 7.2183 8.43521 7.29586 8.25555 7.28702C8.08571 7.27819 7.89133 7.27721 7.69597 7.27721C7.50158 7.27721 7.18547 7.34985 6.91844 7.64241C6.65141 7.93496 5.89744 8.64083 5.89744 10.0761C5.89744 11.5124 6.94298 12.8996 7.08828 13.094C7.23357 13.2883 9.145 16.2355 12.0715 17.499C12.7676 17.7994 13.3115 17.979 13.7346 18.1135C14.4336 18.3354 15.0697 18.304 15.5724 18.2294C16.1329 18.1459 17.2983 17.5235 17.5417 16.8422C17.7852 16.1609 17.7852 15.5758 17.7116 15.455C17.6389 15.3323 17.4445 15.2596 17.153 15.1134Z" fill="#4DCCB5"/>
</g>
<defs>
<clipPath id="clip0_3256_9200">
<rect width="23.5615" height="23.5615" fill="white" transform="translate(0 0.994141)"/>
</clipPath>
</defs>
</svg>
