<svg width="16" height="16" viewBox="0 0 16 16" fill="none" xmlns="http://www.w3.org/2000/svg">
<g clip-path="url(#clip0_3342_4808)">
<path d="M12.0003 2.66675H4.00033C3.26395 2.66675 2.66699 3.2637 2.66699 4.00008V12.0001C2.66699 12.7365 3.26395 13.3334 4.00033 13.3334H12.0003C12.7367 13.3334 13.3337 12.7365 13.3337 12.0001V4.00008C13.3337 3.2637 12.7367 2.66675 12.0003 2.66675Z" stroke="#1F2D43" stroke-width="1.25" stroke-linecap="round" stroke-linejoin="round"/>
<path d="M6 10.6666V5.33325H8.66667C9.02029 5.33325 9.35943 5.47373 9.60948 5.72378C9.85952 5.97383 10 6.31296 10 6.66659C10 7.02021 9.85952 7.35935 9.60948 7.60939C9.35943 7.85944 9.02029 7.99992 8.66667 7.99992H6" stroke="#1F2D43" stroke-width="1.25" stroke-linecap="round" stroke-linejoin="round"/>
</g>
<defs>
<clipPath id="clip0_3342_4808">
<rect width="16" height="16" fill="white"/>
</clipPath>
</defs>
</svg>
