<svg width="16" height="16" viewBox="0 0 16 16" fill="none" xmlns="http://www.w3.org/2000/svg">
<g clip-path="url(#clip0_3342_4773)">
<path d="M2 3.33325H9.33333" stroke="#1F2D43" stroke-width="1.25" stroke-linecap="round" stroke-linejoin="round"/>
<path d="M8 4.66667L9.33333 3.33333L8 2" stroke="#1F2D43" stroke-width="1.25" stroke-linecap="round" stroke-linejoin="round"/>
<path d="M3.33333 2L2 3.33333L3.33333 4.66667" stroke="#1F2D43" stroke-width="1.25" stroke-linecap="round" stroke-linejoin="round"/>
<path d="M12.667 6.66675V14.0001" stroke="#1F2D43" stroke-width="1.25" stroke-linecap="round" stroke-linejoin="round"/>
<path d="M11.333 12.6667L12.6663 14.0001L13.9997 12.6667" stroke="#1F2D43" stroke-width="1.25" stroke-linecap="round" stroke-linejoin="round"/>
<path d="M13.9997 8.00008L12.6663 6.66675L11.333 8.00008" stroke="#1F2D43" stroke-width="1.25" stroke-linecap="round" stroke-linejoin="round"/>
<path d="M8 6.66675H3.33333C2.59695 6.66675 2 7.2637 2 8.00008V12.6667C2 13.4031 2.59695 14.0001 3.33333 14.0001H8C8.73638 14.0001 9.33333 13.4031 9.33333 12.6667V8.00008C9.33333 7.2637 8.73638 6.66675 8 6.66675Z" stroke="#1F2D43" stroke-width="1.25" stroke-linecap="round" stroke-linejoin="round"/>
</g>
<defs>
<clipPath id="clip0_3342_4773">
<rect width="16" height="16" fill="white"/>
</clipPath>
</defs>
</svg>
