<svg width="77" height="117" viewBox="0 0 77 117" fill="none" xmlns="http://www.w3.org/2000/svg">
<g clip-path="url(#clip0_3256_8850)">
<g opacity="0.2">
<path d="M1.87353 116.501C7.19817 111.18 25.6022 92.8503 40.5001 78.0126C49.4863 69.0628 57.1968 61.3835 59.992 58.5957C60.2344 58.8396 60.4919 59.0986 60.7636 59.372C62.4673 61.0859 64.7319 63.3641 67.3495 66.0256L67.3497 66.0258C73.1362 71.9005 74.3337 82.758 67.8468 89.3986C60.9192 96.4321 53.9328 103.407 46.9309 110.37L46.9307 110.369L46.9223 110.378C45.4925 111.892 44.0099 113.383 42.4099 114.715C41.5385 115.433 40.59 116.036 39.5886 116.501H1.87353Z" stroke="#4DCCB5" stroke-opacity="0.7" stroke-width="0.7803"/>
<path d="M91.0791 62.6669L91.0786 62.6685C90.4803 64.3701 89.5839 65.957 88.4305 67.3237C82.5691 73.5982 76.6059 79.7908 70.5929 85.9278C73.9686 79.1407 72.2159 70.53 67.2356 65.4737C64.5723 62.7683 62.2774 60.4586 60.5654 58.7356C60.2628 58.4311 59.9784 58.1448 59.7134 57.8779V57.8613L59.5976 57.7468C54.4623 52.6648 27.981 26.1405 12.4644 10.5988C8.05484 6.18205 4.53079 2.65228 2.63385 0.753676H38.9033C39.3292 0.992112 39.7569 1.27649 40.1627 1.57872C41.1441 2.31946 42.1068 3.09462 42.9946 3.93801C57.7887 18.794 72.6382 33.606 87.4874 48.3888L87.4897 48.3911C88.9844 49.8545 90.1436 51.6435 90.9327 53.5893C92.0983 56.4762 92.1252 59.7312 91.0791 62.6669Z" stroke="#4DCCB5" stroke-opacity="0.7" stroke-width="0.7803"/>
</g>
</g>
<defs>
<clipPath id="clip0_3256_8850">
<rect width="75.6891" height="116.265" fill="white" transform="translate(0.931519 0.363525)"/>
</clipPath>
</defs>
</svg>
