<svg width="744" height="469" viewBox="0 0 744 469" fill="none" xmlns="http://www.w3.org/2000/svg">
<path d="M229.775 467.442C228.687 466.354 230.213 463.178 232.056 462.696C234.303 462.108 236.452 464.379 235.643 466.487C235.088 467.934 230.942 468.609 229.775 467.442ZM223.409 458.494C223.045 457.042 221.716 455.462 220.457 454.983C218.386 454.196 218.177 453.508 218.274 447.806C218.333 444.338 218.028 439.422 217.597 436.882C217.006 433.404 217.206 431.503 218.406 429.181C220.462 425.207 220.481 418.644 218.442 416.952C216.485 415.328 216.843 410.523 219.22 406.5C220.195 404.85 220.997 402.825 221.002 402C221.007 401.175 221.683 399.213 222.503 397.641C223.997 394.777 226.498 386.591 227.902 379.972C228.778 375.841 228.496 363.216 227.324 354.08C226.537 347.947 226.299 347.519 222 344.5C216.535 340.662 209 330.285 209 326.596C209 325.993 207.313 324.083 205.25 322.351C201.874 319.516 201.51 318.743 201.596 314.6C201.652 311.896 202.354 309.266 203.298 308.223C204.182 307.247 205.201 304.595 205.563 302.33C206.022 299.462 207.06 297.592 208.984 296.17C212.014 293.93 212.109 291.386 209.39 285.309C207.965 282.123 207.956 282.12 204.466 283.578C201.068 284.998 200.891 284.957 198.085 282.087C196.498 280.463 194.929 279.404 194.599 279.734C194.27 280.064 194 279.625 194 278.758C194 277.892 191.997 275.917 189.549 274.368C187.101 272.819 184.56 270.546 183.902 269.317C182.344 266.405 175.067 263.021 170.716 263.184C167.063 263.322 150 255.733 150 253.971C150 253.437 149.437 252.99 148.75 252.979C147.315 252.954 142.604 246.582 141.573 243.273C141.192 242.047 139.361 239.227 137.505 237.006C135.648 234.784 133.384 231.286 132.472 229.233C130.591 224.997 126.587 221.561 124.476 222.371C123.256 222.839 123.254 223.468 124.46 226.887C125.795 230.669 128.723 235.927 130.092 237C131.218 237.882 132.167 242 131.244 242C129.136 242 122.007 231.534 120.466 226.176C119.568 223.054 117.662 219.262 116.23 217.75C114.798 216.238 114.002 215 114.461 215C115.217 215 112.525 212.271 107.409 207.851C104.788 205.587 101.579 201.51 101.121 199.864C100.272 196.81 99.2357 182.323 99.6933 179.914C99.9635 178.491 99.7488 175.75 99.2163 173.821C98.4986 171.222 98.617 169.438 99.6739 166.924C101.686 162.14 100.835 160.103 94.57 154.693C89.1115 149.981 87.7911 147.9 84.4639 138.764C83.5153 136.159 82.1228 133.517 81.3696 132.892C80.6163 132.267 80 131.351 80 130.856C80 130.362 78.8152 128.167 77.3671 125.979C75.3653 122.954 74.0793 122 72.0019 122C70.4992 122 68.1255 121.1 66.7271 120C65.3287 118.9 63.3102 118 62.2415 118C59.5368 118 54.4233 116.286 48.3035 113.328C45.4455 111.946 42.702 111.066 42.2067 111.372C41.7115 111.678 41.2656 113.363 41.2157 115.117C41.1337 118.001 39.7503 119.944 37.75 119.985C36.5611 120.009 36.8704 117.554 38.5684 113.491C40.5104 108.843 39.1738 106.826 36.1532 109.847C32.9485 113.052 31.1407 117.285 31.7085 120.256C32.0974 122.29 31.7588 123.154 30.3642 123.686C29.3389 124.077 26.12 126.333 23.2111 128.699C20.3022 131.064 17.3022 133 16.5444 133C15.7866 133 14.9772 133.562 14.7456 134.25C14.514 134.938 13.994 133.748 13.59 131.606C13.186 129.465 12.213 127.07 11.4277 126.285C10.6425 125.5 9.99998 123.821 9.99998 122.554C9.99998 117.092 8.69372 113.893 5.86629 112.431C4.22482 111.582 2.99998 110.13 2.99998 109.033C2.99998 107.98 2.5664 106.85 2.03646 106.523C0.895079 105.817 4.43325 102.007 6.24998 101.985C6.93748 101.977 9.29998 101.346 11.5 100.584C15.0013 99.3714 15.5373 98.7729 15.7994 95.7834C16.0602 92.8078 15.6722 92.1384 12.7851 90.5836C10.9626 89.6021 8.35289 88.959 6.98573 89.1543C3.62237 89.635 -0.284489 86.0488 0.161986 82.8907C0.441512 80.9136 0.996836 80.5531 3.37216 80.807C4.95186 80.9759 7.36892 81.8509 8.7434 82.7514C11.066 84.2733 11.3299 84.2692 12.4815 82.6944C13.1629 81.7625 14.2334 81 14.8602 81C15.4871 81 16 79.875 16 78.5C16 76.5 15.5 76 13.5 76C12.125 76 11 75.5704 11 75.0454C11 73.4928 5.953 68.911 4.93541 69.5399C4.42092 69.8579 3.99383 69.529 3.98632 68.809C3.97882 68.0891 3.7147 66.5386 3.39939 65.3636C2.92295 63.588 3.63142 62.8279 7.59374 60.8636C10.2159 59.5636 13.0364 57.3311 13.8615 55.9024C14.6866 54.4736 17.318 52.2669 19.709 50.9984C23.4835 48.9961 24.3731 48.8617 26.4607 49.979C27.7831 50.6867 29.6338 50.9708 30.5734 50.6102C31.513 50.2496 33.3117 50.6295 34.5705 51.4542C35.8293 52.279 38.8034 53.2275 41.1796 53.562C43.5558 53.8964 47.075 54.7289 49 55.412C50.925 56.095 54.2477 56.4944 56.3837 56.2996C58.9034 56.0697 61.1863 56.5557 62.8837 57.6835C64.3227 58.6395 66.175 59.5274 67 59.6566C67.825 59.7858 69.4909 61.0409 70.702 62.4457C73.6056 65.8138 76.154 65.671 79.2213 61.9685C81.9938 58.6219 87.0394 56.7208 90.7063 57.6411C92.8371 58.1759 93.0322 57.9619 92.5977 55.5656C92.2682 53.7485 92.6077 52.7042 93.6575 52.3012C95.4356 51.6189 96.7954 53.3089 97.6563 57.2708C98.3875 60.6363 99.4497 61.4073 101.655 60.1732C103.303 59.2507 107.877 60.5311 112.5 63.2091C113.6 63.8463 116.075 64.6285 118 64.9473C120.67 65.3895 121.577 66.0699 121.827 67.8173C122.028 69.2309 123.177 70.4726 124.827 71.0607C126.297 71.5849 128.694 72.6856 130.154 73.5069C134.174 75.768 135.613 75.3641 139.13 70.9879C142.097 67.2959 142.639 67.0271 145.927 67.6183C147.892 67.9717 150.041 68.6893 150.702 69.213C151.363 69.7367 152.752 69.896 153.789 69.5669C154.945 69.2002 157.095 69.9327 159.345 71.4591C162.903 73.8741 163.051 73.8917 164.207 72.0398C165.068 70.6607 166.137 70.2774 168.052 70.6605C171.479 71.3459 175 67.1682 175 62.416C175 59.8035 174.259 58.5366 171.5 56.4322C167.881 53.6715 166.807 49.5928 169.098 47.3025C171.041 45.3594 175.692 48.8575 175.79 52.3363C175.837 53.9689 176.288 55.5736 176.793 55.9023C177.297 56.2311 178.251 58.1596 178.912 60.1879C179.723 62.6769 180.8 63.9773 182.223 64.1879C183.59 64.3902 184.726 65.6753 185.451 67.8401C187.226 73.1358 189.646 73.8334 193.105 70.0465C194.697 68.3031 196 66.0793 196 65.1049C196 62.6862 196.755 62.1231 199.155 62.7507C200.788 63.1778 201.081 63.8441 200.629 66.1031C200.319 67.6538 200.494 69.1876 201.019 69.5116C202.043 70.1448 201.83 73.5037 200.692 74.6409C200.312 75.0217 200 76.3833 200 77.6667C200 79.5533 199.466 80 197.211 80C195.678 80 192.64 80.9152 190.461 82.0338C188.283 83.1523 185.596 83.8461 184.492 83.5754C181.933 82.9483 179.135 84.5536 180.508 85.8613C181.054 86.3808 182.363 86.9621 183.417 87.1529C184.472 87.3438 185.507 88.0182 185.718 88.6516C186.142 89.9259 180.673 93 177.981 93C173.086 93 168.573 100.414 167.492 110.234C167.144 113.388 166.441 116.227 165.93 116.543C164.747 117.274 164.757 120.068 165.95 121.954C166.731 123.187 167.248 123.205 169.368 122.071C173.137 120.054 175 121.288 175 125.802C175 130.289 175.765 131.44 177.688 129.844C179.807 128.086 183.705 130.357 185.358 134.314C186.591 137.264 187.345 137.775 191.258 138.312C198.173 139.26 201.259 140.972 200.501 143.441C200.154 144.573 199.674 146.175 199.436 147C199.181 147.884 200.54 149.656 202.747 151.316L206.49 154.131L208.745 151.51C210.354 149.64 211 147.614 211 144.444C211 142 211.04 139.887 211.089 139.75C212.394 136.065 212.523 130.065 211.379 126.262C210.298 122.673 210.227 120.243 211.051 115.088C212.837 103.909 212.855 103.859 214.775 104.815C215.724 105.288 219.088 106.23 222.25 106.909C225.788 107.669 228 108.661 228 109.488C228 110.228 228.479 110.993 229.065 111.188C229.65 111.383 230.383 113.437 230.694 115.752C231.187 119.429 231.813 120.286 235.643 122.531C240.464 125.356 242 125.107 242 121.5C242 118.241 243.65 117.47 244.382 120.386C244.71 121.691 246.783 125.73 248.989 129.361C251.195 132.993 253 136.229 253 136.553C253 137.483 255.31 139.363 258.536 141.057C261.163 142.438 261.494 143.124 261.451 147.091C261.382 153.361 257.287 158 251.821 158C249.705 158 247.147 157.484 246.137 156.854C242.336 154.48 234 159.135 234 163.632C234 165.124 234.423 165.857 235.057 165.465C235.638 165.106 237.119 165.064 238.349 165.373C239.965 165.778 240.572 166.657 240.542 168.546C240.507 170.696 241.186 171.396 244.375 172.504C250.076 174.484 250.584 175.371 248.055 178.923C246.636 180.915 245.006 182 243.432 182C240.616 182 240.427 181.264 242.486 178.324C243.807 176.437 243.799 176.137 242.41 175.604C239.73 174.575 232.227 179.722 224.35 187.993C221.804 190.666 219.26 192.686 217.674 193.295C216.69 193.672 215.974 195.084 215.936 196.719C215.755 204.617 215.24 205.899 210.519 210.195C204.05 216.082 202.696 218.999 203.446 225.427C203.846 228.845 203.588 231.75 202.698 233.868C201.354 237.064 201.318 237.078 199.089 235.273C197.062 233.632 196.965 233.172 198.112 230.653C198.888 228.951 199.017 227.591 198.443 227.178C197.924 226.805 197.004 225.6 196.399 224.5C194.819 221.631 188.456 221.236 185.636 223.831C183.846 225.478 182.334 225.748 176.308 225.493C167.894 225.138 163.56 226.91 160.813 231.827C157.667 237.46 159.782 250.607 164.012 251.713C165.105 251.999 166 252.61 166 253.07C166 254.089 171.747 255.762 174.503 255.545C175.601 255.459 178.387 254.133 180.692 252.599C182.998 251.065 185.361 250.105 185.942 250.464C187.486 251.418 187.235 254.56 185.5 256C181.918 258.972 184.539 263 190.054 263C195.336 263 199.315 266.873 198.702 271.419C198.453 273.273 197.978 275.227 197.648 275.761C196.589 277.474 200.64 280.249 203.071 279.477C204.29 279.091 206.951 279.324 208.985 279.995C212.092 281.021 213.177 280.96 215.782 279.613C217.486 278.731 219.68 276.658 220.656 275.005C221.632 273.352 222.781 272 223.209 272C224.33 272 223.627 275.539 222.155 277.313C221.301 278.343 221.239 279.029 221.96 279.475C223.395 280.362 227.244 279.049 228.584 277.217C229.442 276.043 230.725 275.891 234.587 276.505C237.289 276.934 241.316 277.193 243.536 277.08C248.121 276.847 252.103 279.364 254.507 284.014C255.639 286.203 257.29 287.229 261.737 288.508C268.432 290.435 272.502 293.82 275.134 299.654C276.394 302.446 277.939 304.132 279.848 304.797C281.41 305.342 284.309 307.21 286.29 308.95C289.729 311.969 290.072 312.059 293.85 310.927C299.445 309.251 304.223 310.412 307.373 314.214C308.818 315.958 310 317.832 310 318.378C310 318.924 310.979 320.413 312.175 321.687C314.263 323.909 314.29 324.193 312.848 328.751C311.588 332.735 310.981 333.459 309.08 333.245C307.527 333.071 306.651 333.62 306.291 334.995C306.003 336.098 305.294 337 304.717 337C304.139 337 303.949 337.282 304.293 337.627C304.638 337.971 304.179 339.659 303.273 341.377C302.367 343.095 301.297 347.192 300.895 350.481C300.083 357.118 296.973 361 292.467 361C290.97 361 289.403 361.982 288.36 363.574C287.274 365.231 286.035 365.981 284.883 365.68C281.173 364.71 280.229 366.644 277.556 380.685C276.966 383.785 275.109 387 273.909 387C273.348 387 271.954 389.25 270.811 392C269.668 394.75 268.137 397 267.407 397C266.678 397 264.926 395.763 263.515 394.25C261.347 391.925 260.798 391.732 259.964 393C259.422 393.825 259.198 396.075 259.465 398C259.77 400.192 259.303 402.808 258.217 405C256.812 407.833 255.911 408.5 253.491 408.5C250.324 408.5 248.774 409.479 247.78 412.108C247.446 412.992 245.732 414.004 243.972 414.356C240.8 414.99 240.778 415.036 241.457 419.56C242.248 424.834 241.332 426.417 236.266 428.533C233.141 429.839 232.923 430.21 233.517 433.226C233.872 435.027 234.401 437.732 234.693 439.237C235.05 441.078 234.326 443.69 232.481 447.218C230.973 450.102 229.216 454.268 228.577 456.475C227.178 461.308 224.389 462.397 223.409 458.494ZM177.501 186C177.687 186 178.587 183.75 179.5 181C180.413 178.25 181.485 176 181.88 176C183.357 176 185 178.476 185 180.7C185 181.965 185.48 183 186.066 183C188.061 183 191 180.934 191 179.532C191 178.764 191.9 177.849 193 177.5C196.565 176.369 195.131 174.171 189.044 171.439C184.722 169.5 182.849 168.046 182.213 166.138C181.506 164.017 180.675 163.488 177.918 163.403C176.038 163.345 173.347 162.978 171.937 162.587C168.488 161.632 163.796 165.144 165.802 167.179C166.518 167.906 168.768 168.5 170.802 168.5C173.841 168.5 174.555 168.889 174.811 170.682C174.982 171.883 174.419 174.223 173.561 175.883C172.702 177.543 172 179.853 172 181.016C172 184.277 173.946 187.235 175.658 186.578C176.486 186.26 177.316 186 177.501 186ZM155.568 151.13C155.203 148.584 154.813 145.285 154.702 143.799C154.393 139.66 152.743 138.535 149.361 140.156C145.883 141.823 145.135 144.541 147.952 145.277C149.928 145.794 150.56 147.856 150.141 152.417C150.044 153.471 150.961 155.394 152.179 156.691C154.154 158.792 154.493 158.87 155.313 157.404C155.819 156.501 155.934 153.677 155.568 151.13ZM124.518 118.89C131.913 112.79 132.458 111.571 128.25 110.548C126.737 110.18 124.774 108.941 123.887 107.796C121.335 104.498 119.67 106.433 120.373 111.878C121.014 116.836 120.505 118.275 117.75 119.292C115.468 120.134 115.482 123 117.768 123C118.741 123 121.778 121.151 124.518 118.89ZM108.316 93.8503C109.517 93.218 110.837 92.2055 111.25 91.6003C111.767 90.8419 112.298 90.9636 112.958 91.9916C114.06 93.7058 115.471 92.7006 117.391 88.8342C118.028 87.5504 119.551 86.3562 120.775 86.1805C122.137 85.9849 123 85.1594 123 84.0529C123 81.7222 121.342 80.3978 117.032 79.285C114.186 78.5501 112.753 78.8184 109.032 80.7817C100.905 85.0708 97.9068 89.3769 103.345 88.9484C107.022 88.6587 107.278 88.9269 105.667 91.3854C103.451 94.767 104.579 95.8169 108.316 93.8503ZM841.774 455.78C839.224 452.637 840.799 449.888 849.237 442.75C852.438 440.043 854.739 440.479 854.507 443.75C854.218 447.841 854.061 448.394 853.381 447.714C853.04 447.374 852.108 447.749 851.31 448.548C850.511 449.346 848.963 450 847.87 450C846.776 450 846.147 450.429 846.472 450.954C847.326 452.337 846.028 456.775 844.61 457.319C843.944 457.575 842.669 456.882 841.774 455.78ZM850.493 447.011C850.843 446.445 850.442 446.277 849.552 446.618C847.82 447.283 847.503 448 848.941 448C849.458 448 850.157 447.555 850.493 447.011ZM781.857 442.604C780.146 441.741 779.595 440.742 779.848 438.958C780.039 437.606 780.264 436.43 780.348 436.345C780.67 436.017 783.602 435.768 785.81 435.882C787.843 435.986 788.083 436.44 787.81 439.66C787.465 443.729 785.762 444.571 781.857 442.604ZM860.206 432.375C859.499 431.619 859.219 431 859.583 431C859.947 431 859.718 430.365 859.074 429.589C858.235 428.579 858.214 427.986 858.998 427.501C859.6 427.129 859.887 425.524 859.637 423.934C859.183 421.057 859.192 421.051 861.559 422.772C862.867 423.722 863.951 425.245 863.969 426.156C863.991 427.315 864.601 427.656 866 427.29C868.651 426.596 868.546 428.454 865.776 431.224C863.072 433.928 861.885 434.173 860.206 432.375ZM780 424.425C777.422 423.531 776.141 423.504 775.135 424.323C773.733 425.466 772.339 424.226 767.595 417.615C766.547 416.155 764.616 414.691 763.302 414.361C761.899 414.009 760.98 413.09 761.073 412.131C761.696 405.692 759.435 404.154 755 408C752.035 410.571 751.148 410.519 750.079 407.709C748.597 403.81 746.121 402.531 740.116 402.563C736.131 402.584 732.69 403.415 728.267 405.425C723.102 407.772 721.132 408.167 716.767 407.726C713.87 407.434 709.602 407.691 707.282 408.296C704.962 408.902 702.763 409.096 702.394 408.727C702.025 408.358 701.592 406.216 701.432 403.966C701.272 401.715 700.623 399.251 699.991 398.49C699.359 397.728 698.614 395.619 698.335 393.802C698.057 391.986 697.028 389.6 696.05 388.5C694.692 386.973 694.467 385.804 695.1 383.56C695.621 381.712 695.529 380.137 694.853 379.322C694.251 378.598 694.116 377.248 694.547 376.263C694.971 375.293 695.249 374.172 695.166 373.772C694.926 372.62 700.521 370.064 704.693 369.419C714.055 367.972 715.368 367.445 717.017 364.469C717.922 362.836 719.456 361.346 720.427 361.158C721.398 360.97 723.448 359.411 724.984 357.692C727.308 355.091 728.028 354.778 729.285 355.822C732.492 358.483 734.815 357.953 739.704 353.444C742.342 351.012 745.287 349.017 746.25 349.011C747.213 349.005 748 348.59 748 348.088C748 347.106 749.187 347.181 752.792 348.392C754.807 349.068 755.048 349.724 754.792 353.831C754.502 358.475 754.525 358.512 759 360.613C766.553 364.16 768.911 364.412 769.897 361.775C770.365 360.524 770.369 359.257 769.904 358.96C768.795 358.25 770.289 352.737 771.719 352.26C772.33 352.056 773.12 352.803 773.474 353.919C773.828 355.035 775.554 356.951 777.309 358.176C781.448 361.066 781.966 361.884 781.984 365.561C781.996 367.887 783.062 369.605 786.426 372.718C788.86 374.971 791.059 376.608 791.311 376.356C791.956 375.71 798 383.2 798 384.645C798 385.298 798.52 386.007 799.156 386.219C800.838 386.78 801.73 394.85 800.624 399.5C800.101 401.7 798.621 405.067 797.336 406.982C796.051 408.897 795 411.495 795 412.754C795 415.022 788.136 423.401 785.062 424.884C784.203 425.299 781.925 425.092 780 424.425ZM451.904 400.384C450.021 398.115 446.985 389.646 445.315 382C445.014 380.625 444.214 379.05 443.538 378.5C441.468 376.818 439.305 371.728 438.722 367.172C438.418 364.792 437.486 362.09 436.652 361.168C433.98 358.216 433.619 350.261 435.8 342.436C437.506 336.316 437.596 334.911 436.471 331.936C435.756 330.046 433.987 325.384 432.539 321.576C431.091 317.768 429.182 314.122 428.295 313.474C426.981 312.513 426.803 311.157 427.33 306.12L427.975 299.945L425.057 299.361C423.452 299.04 421.226 297.928 420.111 296.889C418.996 295.85 417.663 295 417.149 295C416.635 295 415.955 294.325 415.638 293.5C414.885 291.537 410.056 291.572 407.217 293.561C404.845 295.222 400.305 294.95 394.299 292.787C391.866 291.91 390.476 291.918 388.502 292.817C383.46 295.114 380.26 294.312 375.508 289.561C373.066 287.119 370.807 284.081 370.487 282.811C370.167 281.54 368.365 279.493 366.484 278.262C361.504 275.003 360.047 271.579 361.053 265.5C361.508 262.75 361.908 257.89 361.94 254.7C362.009 247.986 363.702 244.102 369.001 238.5C371.082 236.3 373.089 233.488 373.46 232.25C373.831 231.013 374.543 230 375.042 230C376.991 230 382.243 223.226 384.345 218C386.727 212.077 386.442 212.197 394.825 213.573C398.28 214.141 399.911 213.856 402.93 212.16C406.017 210.425 408.682 209.987 417.486 209.768C427.682 209.514 428.305 209.615 429.053 211.625C429.548 212.956 429.312 214.772 428.421 216.489C426.259 220.658 426.569 221 432.514 221C435.546 221 438.809 221.385 439.764 221.855C440.719 222.325 443.623 223.389 446.218 224.219C450.634 225.632 451.043 225.61 452.623 223.865C454.492 221.798 456.157 221.541 458.764 222.916C463.576 225.454 468.067 226.968 472.069 227.401C474.506 227.665 477.741 228.186 479.258 228.558C480.775 228.931 483.256 228.722 484.772 228.094C489.411 226.173 493.659 215.896 491.235 212.458C489.979 210.677 482.734 208.984 477.5 209.248C472.62 209.494 472.492 209.428 472.161 206.5C471.975 204.85 471.405 202.995 470.894 202.377C469.101 200.208 471.111 198.42 478.522 195.59C485.491 192.93 486.358 192.816 491.25 193.927C500.721 196.076 501.947 196.23 504.487 195.593C508.375 194.617 507.587 191.551 502 185.904C499.25 183.125 497 180.033 497 179.033C497 177.228 495.144 176 492.418 176C491.502 176 491 177.086 491 179.07C491 181.681 490.664 182.091 488.75 181.82C487.283 181.611 486.386 180.695 486.172 179.189C485.992 177.918 485.201 176.631 484.415 176.329C482.25 175.498 478.334 178.534 477.552 181.648C477.171 183.167 475.991 185.019 474.929 185.762C473.777 186.569 473 188.282 473 190.018C473 193.622 469.574 197 465.918 197C463.077 197 462 198.518 462 202.523C462 206.043 460.524 206.312 457.087 203.42C455.054 201.709 453.477 199.008 452.45 195.477C451.058 190.687 450.425 189.9 446.396 187.95C443.921 186.752 441.193 184.698 440.333 183.386C438.356 180.368 435 180.185 435 183.096C435 186.438 438.599 190.591 443.484 192.888C448.314 195.158 448.849 196.05 446.532 197.973C445.725 198.644 445.103 199.486 445.15 199.846C445.654 203.66 442.522 204.217 441.584 200.48C441.236 199.094 439.95 196.775 438.726 195.327C436.112 192.235 426.828 183 426.333 183C426.146 183 424.314 183.9 422.261 185C420.209 186.1 417.086 187 415.321 187C412.093 187 409 189.835 409 192.794C409 194.129 406.57 197.105 405.536 197.036C405.241 197.016 404.559 197 404.02 197C403.481 197 402.071 198.913 400.886 201.25C398.632 205.697 397.137 207.203 395.8 206.376C395.362 206.106 393.73 206.637 392.173 207.557C389.552 209.105 389.11 209.108 386.201 207.604C382.373 205.625 381.099 203.423 381.178 198.926C381.211 197.042 381.031 194.347 380.777 192.939C380.524 191.53 380.702 189.334 381.174 188.059C381.949 185.964 382.438 185.808 386.266 186.441C397.338 188.273 396.815 188.418 397.583 183.298C398.38 177.98 396.474 173.705 393.071 173.18C391.932 173.005 391 172.286 391 171.583C391 169.609 394.533 166 396.466 166C400.153 166 405.062 162.555 414.84 153.106C424.482 143.79 425 143.079 425 139.176C425 133.342 427.564 134.658 428.395 140.917L429.031 145.714L435.596 146.327C440.696 146.803 442.705 146.584 444.593 145.347C446.147 144.329 448.087 143.967 449.973 144.345C453.338 145.018 454.025 144.299 455.56 138.502C456.595 134.593 456.722 134.5 461.06 134.5C465.403 134.5 465.507 134.424 465.832 131.004C466.257 126.519 467.352 125.275 472.13 123.843C477.79 122.147 479.016 120.275 475.971 117.978C472.585 115.424 469.136 114.963 464.739 116.478C460.153 118.058 459.754 117.572 459.335 109.89C459.073 105.093 459.511 103.232 462.025 98.4531C465.627 91.6042 466.313 86.7458 463.752 86.2158C461.074 85.6616 456.135 91.791 457.491 93.9856C458.079 94.9377 450.447 103 448.957 103C447.955 103 445.974 108.975 446.302 111.007C446.436 111.836 447.323 113.623 448.273 114.979C450.138 117.643 450.587 122.519 449.053 123.467C448.533 123.789 446.629 126.74 444.823 130.026C443.016 133.312 441.037 136 440.424 136C438.771 136 436 132.602 436 130.576C436 128.135 432.837 123 431.334 123C430.655 123 429.739 123.562 429.3 124.25C428.86 124.938 427.734 126.1 426.797 126.833C425.319 127.991 424.694 127.756 422.047 125.049C420.371 123.334 419 120.912 419 119.666C419 118.419 418.478 116.878 417.84 116.24C417.202 115.602 416.763 112.742 416.864 109.883C417.062 104.288 417.681 103.457 424.25 99.9569C427.976 97.9722 431.985 92.7879 433.497 88C433.932 86.625 435.122 84.912 436.143 84.1933C437.165 83.4746 438 82.0355 438 80.9952C438 79.9549 440.157 76.493 442.793 73.3019C445.429 70.1109 448.372 65.8186 449.333 63.7635C451.239 59.6894 454.268 57.5051 456.712 58.4429C457.568 58.7713 460.57 57.7608 463.384 56.1973C467.23 54.0604 469.927 53.3298 474.25 53.2542C480.76 53.1403 481.697 54.5644 477.826 58.6855L475.651 61H479.253C481.904 61 483.374 61.6601 484.821 63.5C486.204 65.2581 487.76 66 490.065 66C491.868 66 494.196 66.7723 495.239 67.7163C496.282 68.6603 498.731 70.3478 500.682 71.4663C503.08 72.8414 504.641 74.7212 505.503 77.2708C506.667 80.7109 506.603 81.1648 504.775 82.4454C503.672 83.2174 502.102 83.5925 501.284 83.2788C500.467 82.9652 499.443 83.2838 499.008 83.9865C497.908 85.7663 492.514 83.3291 490.907 80.3261C489.873 78.3941 486.919 77.0343 483.5 76.9164C482.95 76.8974 482.247 77.921 481.939 79.191C481.508 80.9616 482.091 82.0341 484.439 83.7906C487.806 86.3099 488.824 88.1875 488.93 92.0757C489.006 94.86 492.571 98.6721 495 98.5657C495.825 98.5296 496.647 97.4632 496.827 96.1961C497.024 94.8007 498.192 93.4974 499.787 92.891C501.235 92.3404 503.563 90.6165 504.96 89.0601C507.249 86.5097 510.272 85.5236 517.25 85.0508C518.707 84.9521 517.975 82.287 516 80.5C513.597 78.3253 513.435 75.7078 515.571 73.5714C517.891 71.252 519 71.6495 519 74.8C519 80.4737 524.375 81.9645 527.163 77.0641C529.427 73.0846 542 67.0413 542 69.9326C542 72.1252 546.211 72.1507 548.53 69.9721C550.208 68.3952 551.595 67.9326 553.334 68.3691C555.229 68.8446 556.483 68.2635 558.903 65.7883C561.902 62.7209 562.191 62.6379 566.178 63.7021C568.462 64.3117 570.887 64.5969 571.567 64.336C573.15 63.7286 573.969 60.6294 573.986 55.1843C573.994 52.8106 574.451 50.0254 575.003 48.995C575.691 47.7093 575.665 46.9108 574.92 46.4503C574.273 46.0508 575.081 45.0208 576.917 43.9044C578.613 42.8731 580 41.5728 580 41.0147C580 39.4123 585.617 39.8337 587.035 41.5424C588.005 42.7106 588.034 43.3656 587.158 44.2424C585.486 45.9144 585.747 53.9936 587.586 57.5C589.944 61.9941 590.124 70.1698 587.99 75.7478C586.337 80.0649 585.903 80.4732 583.243 80.2072C578.729 79.7557 577.252 82.2086 579.367 86.6437C580.661 89.3578 581.463 90.0224 582.779 89.472C583.726 89.0763 585.85 88.4571 587.5 88.096C591.156 87.2958 597 79.1986 597 74.934C597 71.4044 598.933 67 600.482 67C601.228 67 601.708 69.3898 601.827 73.7058C601.928 77.3939 602.433 80.8327 602.947 81.3474C604.23 82.6298 611 79.326 611 77.4179C611 76.5993 610.323 74.8972 609.497 73.6353C608.67 72.3735 607.816 69.4953 607.598 67.2395C607.09 61.9654 606.428 60.9869 603.53 61.2268C600.428 61.4836 596.189 59.1699 595.44 56.8114C593.762 51.5233 593.384 41.9235 594.757 39.4691C595.646 37.8808 595.888 37.9869 597.124 40.5079C597.881 42.0521 599.175 43.6163 600 43.984C608.823 47.9159 609.499 48.6017 609.531 53.6568C609.573 60.0529 610.354 61.2515 613.536 59.8018C615.484 58.9142 616.003 57.9269 616.014 55.0895C616.022 53.1153 616.271 50.5919 616.57 49.4821C616.95 48.0669 615.923 46.1377 613.132 43.0234C609.983 39.5083 609.353 38.2091 610.112 36.7913C610.639 35.8061 611.392 34.9666 611.785 34.9257C616.546 34.4308 619.352 32.6065 619.474 29.9267C619.488 29.6114 620.625 27.6987 622 25.6762C623.591 23.3353 625.034 22.2001 625.97 22.5523C626.778 22.8567 627.165 22.8314 626.83 22.4962C626.494 22.161 628.083 19.7948 630.36 17.2381C638.919 7.62736 638.214 8.05525 644.617 8.58432C649.727 9.0066 650.765 9.47194 653.211 12.4396C655.218 14.8746 656.559 15.6665 658.027 15.2827C661.182 14.4578 662.967 11.2494 661.996 8.15103C661.539 6.69296 660.895 4.2625 660.564 2.75C659.964 0.010397 659.983 0 665.462 0C670.546 0 671.011 0.1958 671.612 2.59146C672.171 4.81719 672.632 5.08348 674.881 4.47826C679.801 3.15442 684.175 3.56218 685.228 5.44266C685.777 6.42332 687.106 8.10616 688.182 9.18232C689.994 10.9943 690.023 11.316 688.569 13.5343C687.706 14.8517 687 16.8133 687 17.8934C687 20.1981 685.608 21.6152 680.07 24.951C677.831 26.2991 676 27.9545 676 28.6296C676 29.3048 675.348 30.5094 674.551 31.3066C673.361 32.4957 673.33 33.0693 674.377 34.5004C675.573 36.1364 675.897 36.0903 679.591 33.7584C681.757 32.3909 684.13 30.5484 684.864 29.664C686.07 28.2111 686.547 28.2017 689.814 29.5668C691.803 30.3977 693.671 31.4049 693.965 31.8049C694.259 32.2049 695.963 33.734 697.752 35.2029C700.267 37.2689 701.739 37.7592 704.252 37.3681C706.038 37.09 710.279 37.5205 713.674 38.3249C719.712 39.7549 719.927 39.7343 723.371 37.3937C727.128 34.841 729 34.3775 729 36C729 36.55 729.623 37 730.385 37C732.654 37 734.859 41.4161 735.19 46.6233L735.5 51.5L741.097 51.1775C744.254 50.9956 749.092 51.5522 752.195 52.4544C757.302 53.9389 761.578 53.7439 760.545 52.0735C760.302 51.6792 760.721 50.1633 761.478 48.7047C762.235 47.2462 762.999 45.0744 763.177 43.8786C763.355 42.6827 764.271 41.2209 765.214 40.6302C766.584 39.7715 767.519 40.1232 769.88 42.3847C772.852 45.2323 779.445 46.7078 780.629 44.7905C781.428 43.4981 786.988 44.9109 789.195 46.9671C790.219 47.9214 791.244 49.6709 791.472 50.8549C792.082 54.0207 792.687 54.6952 795.933 55.8269C798.283 56.646 799.625 56.4658 802.646 54.9253C808.552 51.9145 811.319 52.6619 812.155 57.4939C812.587 59.9909 816.328 62.0459 821.381 62.5613C823.516 62.779 826.804 63.8668 828.688 64.9786C830.573 66.0904 832.676 67 833.363 67C834.05 67 836.136 68.125 838 69.5C842.273 72.6523 847 72.892 847 69.9564C847 68.8324 848.097 66.7292 849.439 65.2826L851.878 62.6525L857.031 65.3263C859.865 66.7968 862.973 68 863.937 68C864.901 68 866.546 68.9461 867.593 70.1024C869.457 72.1627 875 75.5115 875 74.5777C875 74.3172 876.295 74.5555 877.878 75.1074C880.118 75.8883 880.883 76.8941 881.33 79.6446C881.645 81.5882 882.392 83.7668 882.988 84.486C884.13 85.862 888 85.3967 888 83.8834C888 82.4163 891.749 82.8914 893.429 84.5714C895.739 86.8822 895.361 89.1593 892.066 92.7669L889.131 95.9795L881.601 91.9898C877.459 89.7954 873.391 88 872.561 88C871.731 88 870.381 89.2955 869.563 90.8788C868.744 92.4622 867.33 94.043 866.421 94.3918C865.057 94.9152 864.841 96.1549 865.18 101.486L865.591 107.946L860.796 109.671C858.158 110.619 856 111.707 856 112.089C856 112.471 854.898 113.06 853.552 113.398C852.205 113.736 850.511 115.247 849.786 116.756C848.628 119.168 847.904 119.5 843.798 119.5C839.753 119.5 838.723 119.953 836.102 122.887C833.423 125.887 832.662 126.207 829.448 125.685C824.691 124.913 821.993 126.583 822.557 129.95C824.533 141.756 823.171 147.509 817.697 150.473C815.939 151.425 813.825 153.621 813 155.352C811.305 158.909 808.884 159.501 808.304 156.5C807.399 151.824 807.825 144.913 809.117 143.321C810.043 142.179 810.087 141.864 809.25 142.367C808.562 142.78 808 142.641 808 142.059C808 140.889 810.065 138.302 814.25 134.23C815.763 132.759 817 130.886 817 130.069C817 129.253 818.539 126.99 820.42 125.042C822.301 123.094 823.988 120.6 824.17 119.5C824.446 117.829 824.006 117.541 821.5 117.75C819.85 117.888 817.524 117.494 816.331 116.875C814.565 115.958 813.635 116.124 811.331 117.766C807.816 120.271 805.02 123.327 803.56 126.257C802.32 128.744 798.363 129.471 797.216 127.422C795.808 124.905 791.705 124.111 788.81 125.795C786.478 127.152 785.58 127.181 782.05 126.017C779.022 125.017 777.406 124.951 775.74 125.759C774.508 126.356 772.363 127.088 770.974 127.385C767.458 128.137 757.95 140.807 756.999 146.005C756.234 150.187 756.953 151.491 760.382 152.142C761.622 152.378 762.782 154.129 763.786 157.279C765.105 161.416 765.13 163.01 763.974 169.139C763.239 173.033 762.103 176.754 761.449 177.409C760.795 178.063 759.564 179.926 758.713 181.549C756.753 185.291 749.112 193 747.364 193C746.636 193 744.231 193.724 742.019 194.609C738.581 195.985 737.544 197.171 734.863 202.788C732.039 208.704 731.846 209.686 732.921 212.659C733.97 215.56 733.872 216.221 732.11 218.113L730.105 220.265L729.458 217.689C729.103 216.273 729.108 214.635 729.47 214.049C730.192 212.88 727.776 210 726.071 210C724.996 210 724.713 209.078 724.741 205.654C724.752 204.193 724.208 203.918 722.128 204.334C715.808 205.596 715.508 205.549 715.181 203.25C714.99 201.905 714.164 201 713.127 201C711.204 201 705 206.926 705 208.762C705 210.33 708.288 212 711.375 212C715.21 212 715.443 213.711 712.068 217.086C709.173 219.981 709.031 220.483 709.499 226.205C709.85 230.504 710.553 232.745 711.924 233.934C713.797 235.559 713.802 235.726 712.075 239.554C709.34 245.618 701.596 253.659 697.759 254.421C695.966 254.776 692.708 255.915 690.519 256.95C688.329 257.985 686.096 258.56 685.557 258.226C684.458 257.547 678.434 257.776 675.75 258.598C672.854 259.486 673.724 269.435 676.923 272C678.654 273.388 680.984 278.202 681.182 280.799C681.467 284.542 678.703 288.785 675.449 289.602C673.36 290.126 672.067 289.395 667.963 285.368C665.235 282.691 663.002 279.908 663.001 279.184C663.001 278.34 662.021 277.981 660.273 278.184C657.321 278.526 654.48 282.652 655.949 284.461C656.414 285.032 657.366 287.429 658.066 289.787C658.766 292.144 660.32 295.132 661.52 296.427C664.828 299.996 668.316 306.017 667.531 306.802C667.148 307.185 665.532 305.924 663.939 303.999C662.346 302.075 660.201 299.6 659.171 298.5C655.538 294.62 654.773 291.896 653.403 277.959C652.631 270.114 650.657 266.578 647.877 268.066C645.841 269.156 644 268.571 644 266.835C644 266.26 642.918 264.503 641.596 262.931C640.273 261.36 639.012 259.535 638.792 258.877C638.573 258.218 635.492 257.326 631.947 256.895C625.647 256.128 625.435 256.178 622.655 259.102C621.09 260.748 618.072 263.192 615.948 264.533C612.075 266.978 609.864 269.904 609.291 273.342C609.122 274.355 608.313 276.143 607.492 277.315C606.672 278.486 606 280.05 606 280.789C606 282.906 599.207 289.627 598.22 288.487C597.75 287.944 596.767 285.025 596.036 282C595.304 278.975 593.647 274.933 592.353 273.018C591.059 271.103 590 268.29 590 266.768C590 265.246 589.559 264 589.019 264C588.48 264 587.755 262.871 587.408 261.491C587.027 259.971 585.838 258.746 584.389 258.383C583.056 258.048 582 257.04 582 256.103C582 254.244 574.42 247.486 570.805 246.123C569.537 245.645 566.051 244.959 563.058 244.598C555.701 243.711 553.152 243.043 548.79 240.858C546.749 239.836 543.907 239 542.474 239C538.354 239 536.013 237.197 533.983 232.461C532.067 227.99 530.992 227.344 524.5 226.767C521.008 226.456 520.934 227.879 524.099 234.438C525.145 236.604 526 239.191 526 240.188C526 241.535 526.77 242 529 242C531.51 242 532 242.397 532 244.429C532 249.337 537.88 251.962 540 248C541.222 245.717 545 245.278 545 247.418C545 248.199 546.575 249.81 548.5 251C550.425 252.19 551.988 253.689 551.973 254.332C551.925 256.412 545.008 263.032 540.696 265.125C538.388 266.245 535.825 267.505 535 267.926C534.175 268.347 531.025 269.243 528 269.917C524.975 270.592 521.561 271.598 520.412 272.154C519.264 272.71 517.03 273.015 515.448 272.832C513.087 272.56 512.449 271.899 511.892 269.151C511.518 267.309 509.629 264.159 507.695 262.151C505.761 260.143 503.474 256.925 502.613 255C501.752 253.075 498.648 247 495.716 241.5C491.207 233.042 490.01 231.5 487.956 231.5C484.529 231.5 484.306 234.401 487.418 238.481C489.089 240.673 490 243.136 490 245.468C490 247.449 490.696 250.133 491.548 251.432C492.399 252.731 493.303 254.943 493.558 256.347C493.813 257.751 495.366 260.372 497.01 262.173C498.783 264.114 500 266.544 500 268.145C500 270.344 500.65 271.059 503.5 272C505.425 272.635 507.036 273.683 507.081 274.328C507.126 274.972 507.238 277.3 507.331 279.5C507.495 283.382 507.596 283.491 510.75 283.186C512.537 283.013 514 283.335 514 283.901C514 286.085 517.693 287 520.642 285.545C522.214 284.77 524.807 283.814 526.404 283.421C529.257 282.718 529.297 282.765 528.639 286.053C528.271 287.894 527.592 289.648 527.13 289.95C526.669 290.253 525.663 291.71 524.895 293.188C523.353 296.161 515.374 305.491 507.193 313.888C499.963 321.31 498.777 324.362 500.467 331.19C501.19 334.11 502.843 339.35 504.141 342.833L506.5 349.166L502.5 352.568C500.3 354.439 497.712 355.977 496.75 355.985C495.787 355.993 495 356.45 495 357C495 357.55 494.373 358 493.607 358C491.593 358 490.959 360.424 491.652 365.481C492.239 369.761 492.135 369.988 488.632 372.055C486.636 373.232 485.242 374.583 485.534 375.055C485.826 375.528 484.274 379.478 482.084 383.832C476.531 394.877 467.247 401.766 459.871 400.316C458.425 400.031 456.936 400.294 456.562 400.899C455.581 402.488 453.454 402.252 451.904 400.384ZM539.978 210.041C541.691 206.84 540.086 197.196 537.349 194.243C536.057 192.849 535 190.9 535 189.913C535 188.926 534.55 187.84 534 187.5C531.495 185.952 533.2 184.776 537.056 185.393L541.111 186.041L540.806 181.351C540.54 177.27 540.09 176.431 537.35 174.906C534.456 173.295 533.68 173.271 527.793 174.614C522.592 175.8 521.068 176.614 519.693 178.942C517.471 182.703 517.555 185.181 520 188C521.1 189.268 522 191.122 522 192.118C522 193.115 523.319 195.433 524.931 197.269C527.446 200.133 527.785 201.184 527.318 204.668C526.854 208.128 527.118 208.97 529.109 210.364C532.453 212.706 538.65 212.522 539.978 210.041ZM559.148 189.25C561.272 185.55 562.21 178.957 560.845 177.313C560.246 176.591 558.454 176 556.863 176C554.673 176 553.489 176.789 551.989 179.25C549.461 183.396 549.496 184.635 552.25 188.681C554.994 192.712 557.062 192.883 559.148 189.25ZM514 373.465C514 372.62 513.293 370.851 512.429 369.532C511.187 367.637 511.097 366.687 512 365C512.628 363.827 513.064 361.434 512.97 359.683C512.688 354.471 512.816 354.284 517.5 353.104C521.174 352.179 522 351.556 522 349.708C522 345.985 524.82 342.843 527.847 343.193C530.193 343.464 530.469 343.888 530.233 346.848C530.086 348.69 528.753 352.74 527.272 355.848C525.79 358.957 524.473 362.175 524.345 363C523.312 369.644 521.626 372.935 518.737 373.942C514.694 375.351 514 375.281 514 373.465ZM783.575 339.941C782.516 338.873 780.941 337.958 780.075 337.907C779.209 337.856 776.475 337.693 774 337.544C766.391 337.087 761.748 335.189 755.518 329.991C750.17 325.528 748.21 324.5 745.768 324.876C745.365 324.938 744.753 323.866 744.409 322.494C744.065 321.122 743.382 320 742.892 320C742.401 320 742 319.325 742 318.5C742 315.991 746.262 316.796 748.62 319.75C750.678 322.329 751.021 322.423 754.116 321.258C757.088 320.14 757.769 320.256 760.958 322.416C762.906 323.736 766.46 325.13 768.856 325.514C773.024 326.182 775.324 327.729 777.5 331.33C778.05 332.241 779.625 333.141 781 333.331C782.576 333.549 784.019 334.752 784.905 336.588C785.678 338.19 786.691 339.65 787.155 339.833C787.62 340.017 788 340.579 788 341.083C788 342.614 785.616 341.998 783.575 339.941ZM723 339.969C723 339.436 723.675 339 724.5 339C726.421 339 726.421 339.625 724.5 340.362C723.675 340.678 723 340.501 723 339.969ZM683.087 335.601C677.974 334.041 676.216 333.131 677.419 332.669C680.517 331.481 687.107 331.957 690.619 333.623C693.346 334.918 693.808 335.526 692.898 336.623C691.511 338.294 692.126 338.358 683.087 335.601ZM710.5 329C710.16 328.45 710.131 327.597 710.435 327.105C710.74 326.612 710.316 325.952 709.494 325.636C707.541 324.887 707.546 321 709.5 321C710.422 321 711 320.064 711 318.571C711 316.203 713.294 313 714.99 313C716.84 313 718.959 314.258 718.462 315.061C718.173 315.529 717.279 315.661 716.476 315.353C714.34 314.533 713.535 317.678 715.403 319.546C717.728 321.871 717.483 326.712 715 327.5C713.9 327.849 713 328.554 713 329.067C713 330.307 711.279 330.261 710.5 329ZM668.035 324.542C667.331 323.694 666.023 322.986 665.128 322.968C662.735 322.921 660.393 320.836 659.547 317.996C659.138 316.623 656.485 313.409 653.651 310.853C650.818 308.297 648.804 305.893 649.174 305.512C649.874 304.792 662.072 311.115 665.38 313.911C667.88 316.025 671.314 324.086 670.193 325.207C669.689 325.711 668.769 325.427 668.035 324.542ZM689.75 320.277C684.851 318.84 684.576 318.369 685.612 313.189C686.087 310.815 687.087 309.782 690.062 308.592C692.173 307.747 694.332 306.256 694.861 305.278C695.39 304.3 697.186 302.703 698.852 301.728C701.799 300.005 701.935 300.014 703.835 302.053C706.72 305.15 705.952 313.885 702.384 318.563C700.301 321.295 699.45 321.788 698.37 320.892C697.479 320.153 696.563 320.09 695.75 320.712C694.936 321.335 692.842 321.183 689.75 320.277ZM730 314C730 313.45 730.45 313 731 313C731.55 313 732 313.45 732 314C732 314.55 731.55 315 731 315C730.45 315 730 314.55 730 314ZM722 298.054C718.97 297.273 718.685 294.616 721.588 294.202C723.949 293.864 726.82 296.637 725.408 297.891C724.908 298.334 723.375 298.408 722 298.054ZM605.015 293.75C605.023 293.062 605.417 291.889 605.89 291.143C606.989 289.409 608.436 291.421 607.62 293.548C606.938 295.325 604.994 295.476 605.015 293.75ZM712.908 276.75C712.056 274.424 712.177 270.009 713.109 269.433C713.869 268.963 714.047 269.115 713.596 269.845C713.203 270.48 713.286 271 713.78 271C714.551 271 717 275.219 717 276.547C717 277.01 713.075 277.204 712.908 276.75ZM291.668 265.578C291.335 264.71 291.317 263.337 291.629 262.526C292.122 261.24 292.392 261.25 293.74 262.597C295.117 263.974 295.121 264.307 293.78 265.649C292.438 266.99 292.207 266.983 291.668 265.578ZM682.5 264C682.84 263.45 683.766 263 684.559 263C685.352 263 686 263.45 686 264C686 264.55 685.073 265 683.941 265C682.809 265 682.16 264.55 682.5 264ZM237.5 258C237.16 257.45 237.583 257 238.441 257C239.298 257 240 257.45 240 258C240 258.55 239.577 259 239.059 259C238.541 259 237.84 258.55 237.5 258ZM222 256.169C222 254.683 226.816 252.715 228.683 253.439C230.416 254.11 230.41 254.209 228.559 255.571C226.46 257.116 222 257.522 222 256.169ZM712 254.5C712 253.675 712.45 253 713 253C713.55 253 714 253.675 714 254.5C714 255.325 713.55 256 713 256C712.45 256 712 255.325 712 254.5ZM210 251.992C210 250.788 208.932 250.088 206.49 249.692C204.559 249.379 202.231 248.374 201.316 247.459C200.152 246.295 198.653 245.957 196.326 246.335C194.497 246.631 193 246.453 193 245.937C193 245.422 193.337 244.966 193.75 244.923C194.162 244.881 195.4 244.612 196.5 244.325C201.847 242.929 205.749 242.892 207.089 244.224C207.865 244.996 210.862 246.475 213.75 247.511C216.637 248.547 219 249.905 219 250.529C219 251.153 216.975 252.126 214.5 252.693C210.504 253.607 210 253.529 210 251.992ZM753.341 221.446C753.036 220.651 751.961 220 750.952 220C748.704 220 747.87 218.828 748.916 217.136C749.626 215.987 751.568 215.286 754.614 215.077C755.227 215.034 758.013 212.751 760.806 210.002C763.727 207.126 766.158 205.446 766.528 206.046C766.882 206.619 766.628 207.743 765.964 208.544C765.299 209.345 765.087 210 765.493 210C765.898 210 765.503 211.109 764.615 212.465C763.727 213.82 762.993 215.958 762.985 217.215C762.962 220.612 761.905 221.627 757.698 222.291C754.89 222.734 753.75 222.513 753.341 221.446ZM437.638 205.5C437.322 204.675 437.219 204 437.409 204C437.599 204 438.315 204.675 439 205.5C439.718 206.365 439.815 207 439.229 207C438.671 207 437.955 206.325 437.638 205.5ZM424 199.5C424 198.675 424.177 198 424.393 198C424.609 198 425.045 198.675 425.362 199.5C425.678 200.325 425.501 201 424.969 201C424.436 201 424 200.325 424 199.5ZM767.708 194.303C766.39 193.96 766.093 193.264 766.583 191.669C766.949 190.476 767.308 189.422 767.381 189.327C767.454 189.231 769.052 189.468 770.932 189.852C774.413 190.564 776.465 193 773.583 193C772.712 193 772 193.45 772 194C772 195.03 770.826 195.113 767.708 194.303ZM771.863 181.335C770.881 180.151 770.5 176.372 770.5 167.809C770.5 150.999 771.676 148.713 773.488 162C773.825 164.475 774.758 167.505 775.562 168.732C776.87 170.731 776.817 171.349 775.057 174.633C773.641 177.274 773.359 178.802 774.048 180.09C775.323 182.471 773.614 183.445 771.863 181.335ZM261.614 168.437C261.284 167.577 260.612 167.122 260.12 167.426C259.629 167.729 258.744 167.397 258.154 166.686C257.37 165.741 257.604 164.536 259.026 162.197C260.096 160.439 261.423 159 261.977 159C263.624 159 269 165.155 269 167.041C269 170.055 262.692 171.247 261.614 168.437ZM392.591 158C392.982 156.075 393.362 153.539 393.433 152.365C393.505 151.191 394.06 149.616 394.667 148.865C395.881 147.363 394.724 143 393.112 143C392.588 143 391.863 141.653 391.501 140.006C391.14 138.359 390.178 136.639 389.364 136.184C387.868 135.347 387.852 131.614 389.334 129.25C390.409 127.535 394.66 127.672 395.339 129.442C395.644 130.236 395.647 132.398 395.347 134.248C394.919 136.887 395.347 138.258 397.336 140.623C398.73 142.279 400.169 144.823 400.533 146.276C400.898 147.729 401.827 149.442 402.598 150.081C404.338 151.525 404.426 155.417 402.75 156.747C402.063 157.293 399.701 158.064 397.503 158.461C395.304 158.859 393.139 159.705 392.692 160.342C392.244 160.979 392.199 159.925 392.591 158ZM379.533 150.825C380.216 147.697 384.314 141.647 385.17 142.503C385.386 142.719 385.388 144.733 385.173 146.978C384.856 150.308 384.233 151.345 381.796 152.605L378.808 154.151L379.533 150.825ZM80 143.441C80 142.584 80.45 142.16 81 142.5C81.55 142.84 82 143.541 82 144.059C82 144.577 81.55 145 81 145C80.45 145 80 144.298 80 143.441ZM74.5 134C74.1601 133.45 74.3585 133 74.941 133C75.5234 133 76 133.45 76 134C76 134.55 75.8015 135 75.559 135C75.3165 135 74.8399 134.55 74.5 134ZM288.256 113.043C282.525 111.651 282.904 112.377 276.23 90C275.327 86.975 274.232 84.0725 273.795 83.55C271.875 81.2546 273.013 74.0805 276 69.6551C279.725 64.1354 279.741 62.8016 276.12 59.7543C272.864 57.0145 271.369 53.5078 273.022 52.4862C273.629 52.111 275 52.5954 276.069 53.5626C277.138 54.5297 278.288 55.0448 278.626 54.7072C279.759 53.5738 277.95 47 276.504 47C275.732 47 274.671 46.2338 274.146 45.2972C273.355 43.8828 272.931 43.8127 271.641 44.8833C269.175 46.9299 268 45.28 268 39.7697C268 36.306 267.436 34.0345 266.252 32.7255C265.139 31.4959 264.478 29.0867 264.435 26.0983C264.398 23.5159 264.019 20.8399 263.594 20.1517C263.168 19.4635 262.298 16.808 261.66 14.2506C260.787 10.7525 259.735 9.15556 257.412 7.80297C254.161 5.90998 246.704 5.30572 241.328 6.4996C238.49 7.12994 237.991 6.88313 236.578 4.15165C235.71 2.47287 235 0.851973 235 0.54966C235 0.247347 261.494 0 293.875 0H352.75L353.531 3.25C354.738 8.26698 354.244 11.3076 351.939 13.0461C349.613 14.8005 349.458 20.7084 351.75 20.25C353.602 19.8796 353.266 21.449 351.067 23.439C350.005 24.4009 349.378 25.8206 349.674 26.594C350.288 28.1942 350.427 28.1626 339.857 28.8325C336.134 29.0684 335.346 31.8009 338.64 33.0532C340.861 33.8978 341.155 34.4748 340.65 37.0015C340.173 39.387 340.488 40.1825 342.279 41.1053C346.4 43.2293 349 46.3089 349 49.0673C349 52.2575 346.559 53.5964 344.757 51.3941C341.903 47.9043 339.957 46.0004 339.25 46.0063C338.837 46.0098 337.707 47.4058 336.738 49.1086C335.65 51.0204 334.434 51.997 333.561 51.6618C332.009 51.0662 329.619 53.2858 330.675 54.342C331.037 54.7039 332.592 55 334.131 55C335.906 55 337.321 55.7315 338 57C338.701 58.3096 340.094 59 342.035 59C344.269 59 345 59.463 345 60.8776C345 63.4653 343.208 64.7208 337.777 65.938C334.859 66.5919 331.717 68.2804 329.318 70.4843C327.218 72.4127 324.6 73.995 323.5 74.0006C321.799 74.0096 317.862 78.4464 313.212 85.5956C312.821 86.1982 311.163 87.3232 309.528 88.0956C307.481 89.0634 306.055 90.8593 304.942 93.8725C304.053 96.2774 302.285 99.0307 301.012 99.9908C299.452 101.168 298.871 102.398 299.228 103.765C299.956 106.548 295.939 113.459 293.473 113.665C292.388 113.756 290.04 113.476 288.256 113.043ZM239.133 103.663C238.125 102.447 236.811 102.166 234.129 102.595C230.608 103.158 230.365 102.992 226.482 97.3384C222.687 91.8134 222.236 91.4896 218.079 91.3057C208.773 90.894 210.512 82.7399 220.101 81.8245C223.39 81.5105 223.501 81.3597 223.533 77.1441C223.551 74.7484 223.028 72.0527 222.37 71.1536C221.298 69.6866 220.906 69.8097 218.547 72.3546C216.119 74.9751 215.751 75.0791 213.71 73.7256C209.213 70.7449 211.341 67.9734 218.412 67.6008C221.662 67.4295 221.205 65.4758 217.61 64.1759C215.729 63.4959 213.94 62.2857 213.633 61.4866C213.319 60.6672 212.405 60.291 211.538 60.6238C210.539 61.007 210 60.639 210 59.5748C210 57.7961 206.277 55.967 204.237 56.7433C203.543 57.0075 202.327 56.6862 201.535 56.0293C200.743 55.3721 199.154 55.1338 198.001 55.4996C196.46 55.9889 194.665 55.1614 191.203 52.3661C188.616 50.2771 186.137 48.1026 185.694 47.5339C185.25 46.9653 185.118 43.35 185.4 39.5C185.842 33.4547 186.284 32.1782 188.639 30.1404C191.257 27.8758 191.421 27.8549 192.712 29.6209C193.516 30.7208 193.813 32.5752 193.449 34.2305C192.63 37.959 195.259 37.9692 198.471 34.25L200.846 31.5L201.889 34C204.008 39.0812 205.617 40.2466 209.941 39.8342C212.174 39.6213 214 39.71 214 40.0313C214 40.3525 216.282 40.6154 219.072 40.6154C225.055 40.6154 226.278 41.8929 225.423 47.25C224.875 50.6845 225.021 51.0001 227.162 51.0009C230.585 51.0019 237 57.957 237 61.6666C237 63.28 236.529 65.0709 235.954 65.6464C235.225 66.375 236.241 67.2021 239.297 68.3693C241.718 69.2939 244.255 71.1082 244.954 72.4148C245.652 73.7178 247.972 75.4713 250.111 76.3114C252.85 77.3873 253.829 78.2828 253.423 79.3412C253.105 80.1676 253.362 81.8076 253.992 82.9858C255.798 86.3601 253.602 88.188 248.145 87.8525C242.837 87.5261 242.191 88.5191 244.048 94.1457C245.074 97.2554 245.086 98.3108 244.103 99.28C243.127 100.242 242.592 100.129 241.572 98.75C240.209 96.9044 237 96.3383 237 97.9433C237 98.4621 237.941 99.5457 239.091 100.351C240.241 101.157 241.029 102.602 240.841 103.564C240.525 105.181 240.398 105.188 239.133 103.663ZM193.267 97.7751C189.43 95.0743 189.235 93.4679 192.285 89.6564L194.561 86.8127L199.281 89.1056C202.875 90.8518 204 91.9472 204 93.6993C204 95.3663 203.424 96 201.91 96C200.761 96 199.073 96.9113 198.16 98.0251L196.5 100.05L193.267 97.7751ZM356.5 96.7651C355.4 96.1194 352.7 95.3456 350.5 95.0455C346.586 94.5117 346.493 94.4058 346.186 90.1141C345.793 84.6341 346.719 83.6577 350.92 85.1221C353.361 85.973 354.395 85.9784 354.912 85.1429C355.295 84.5228 357.609 83.742 360.054 83.4079C363.916 82.8802 364.868 83.1416 367.3 85.3991C370.582 88.4448 370.287 89.2879 364.155 94.3871C359.322 98.4067 359.305 98.4118 356.5 96.7651ZM527.575 67.1211C527.265 66.6198 527.684 65.9515 528.506 65.6362C529.328 65.3208 530 65.4721 530 65.9724C530 67.3279 528.223 68.1697 527.575 67.1211ZM127.25 62.5379C120.751 59.5362 120.526 57.6086 126.5 56.1043C129.453 55.3608 131 54.4288 131 53.3936C131 52.0886 129.92 51.8751 124.75 52.158L118.5 52.5L118.837 47C119.301 39.4249 120.833 37.416 127.182 36.0544C131.935 35.0351 132.583 35.11 133.968 36.8386C134.811 37.8897 136.737 39.0396 138.25 39.3939C139.762 39.7482 141.017 40.592 141.038 41.2691C141.06 41.9461 142.522 43.4071 144.288 44.5157C146.055 45.6244 147.633 47.4518 147.795 48.5766C147.957 49.7014 149.417 51.4057 151.039 52.364C154.453 54.3807 155.6 57.7326 154.237 61.7071C153.472 63.9386 152.799 64.4101 150.89 64.0527C147.341 63.3883 138.921 63.5165 135.5 64.2869C133.348 64.7715 131.016 64.2769 127.25 62.5379ZM162.5 64C161.613 62.5649 162.835 60.9947 164.809 61.0318C166.927 61.0716 170.192 63.4742 169.318 64.3489C168.295 65.3713 163.186 65.1098 162.5 64ZM543.45 54.077C542.927 53.5693 541.158 53.0068 539.518 52.827C535.592 52.3964 533.759 48.0292 536.318 45.2015C537.243 44.1791 538.014 42.478 538.032 41.4213C538.049 40.3646 538.683 38.6829 539.44 37.6843C540.605 36.1476 541.127 36.0626 542.838 37.131C544.371 38.0882 544.632 38.82 543.916 40.1571C543.315 41.2804 543.352 43.4779 544.017 46.2103C545.906 53.9608 546.048 55 545.22 55C544.769 55 543.973 54.5846 543.45 54.077ZM867.799 51.8737C866.534 50.7593 866.024 50.1097 866.665 50.43C867.305 50.7504 867.98 50.5711 868.165 50.0318C868.641 48.6386 873 49.9709 873 51.5096C873 53.7631 870.168 53.9613 867.799 51.8737ZM103.434 46.2084C101.13 44.6536 99.3103 40.8273 99.7589 38.4807C100.02 37.1163 100.578 36 101 36C102.137 36 103.205 31.9448 103.021 28.3228C102.768 23.3519 106.016 22.4478 116.593 24.5445C119.089 25.0393 124 29.7202 124 31.6047C124 32.3372 121.997 34.4134 119.55 36.2183C117.102 38.0232 114.666 40.695 114.135 42.1557C113.604 43.6163 112.344 45.037 111.335 45.3127C106.575 46.6133 104.399 46.86 103.434 46.2084ZM160.667 45.3333C160.3 44.9667 159.997 43.9542 159.994 43.0833C159.991 42.2125 158.528 40.6622 156.744 39.6381L153.5 37.7763L155.75 36.2662C157.057 35.3892 158 33.7324 158 32.3147C158 30.1627 158.385 29.9104 161.25 30.1866C164.04 30.4556 164.544 30.9247 164.812 33.5C164.984 35.15 165.855 37.0611 166.749 37.7468C168.247 38.8964 168.243 39.2667 166.703 42.4968C165.143 45.769 162.394 47.0606 160.667 45.3333ZM171.381 36.25C171.02 34.7375 170.388 33.05 169.977 32.5C168.956 31.1334 170.605 27.0887 172.476 26.3708C173.314 26.0492 174.787 26.1268 175.75 26.5432C176.712 26.9597 178.4 27.4631 179.5 27.6619C180.6 27.8606 182.028 28.2155 182.672 28.4505C184.528 29.1267 183.045 32.7435 180.146 34.6108C178.69 35.548 177.14 36.919 176.7 37.6574C175.267 40.0634 172.091 39.2231 171.381 36.25ZM209.355 33.7858C207.298 32.3242 206.283 30.7947 206.369 29.2865C206.53 26.4744 207.028 26.4477 210.365 29.0726C211.814 30.2125 213 30.8324 213 30.4501C213 30.0679 213.666 30.3075 214.479 30.9826C215.577 31.8939 215.697 32.698 214.944 34.105C213.656 36.5121 213.152 36.4833 209.355 33.7858ZM766.473 31.9562C765.589 30.5259 767.851 28 770.015 28C771.883 28 773.397 30.549 772.444 32.0902C771.673 33.3387 767.266 33.2398 766.473 31.9562ZM543 29.5821C543 28.7768 543.389 27.8774 543.865 27.5834C544.341 27.2893 544.975 25.2206 545.275 22.9863C545.934 18.0701 548.423 14.001 550.773 13.9973C551.744 13.9958 553.376 12.3545 554.501 10.2473C556.446 6.60504 556.666 6.49619 562.351 6.3639C566.582 6.26546 568.992 5.64287 571.06 4.1139C574.432 1.62036 575.586 1.47843 576.348 3.46321C576.956 5.04929 573.242 8.47092 569.688 9.59914C568.507 9.974 566.362 11.5418 564.922 13.0831C563.483 14.6244 560.999 16.2026 559.402 16.5903C556.846 17.211 548 25.3752 548 27.1132C548 27.4744 546.875 28.5071 545.5 29.408C543.384 30.7943 543 30.821 543 29.5821ZM188.5 21.5429C186.85 20.8118 184.287 19.7365 182.805 19.1533C180.417 18.2138 180.031 17.3965 179.419 11.9838C178.75 6.07011 178.606 5.82633 174.941 4.35968C170.163 2.44802 168.935 -0.0131919 172.781 0.0318031C174.277 0.0492931 176.373 0.724295 177.441 1.5318C178.509 2.33931 180.196 3 181.191 3C182.186 3 183.014 3.5625 183.032 4.25C183.109 7.28444 185.875 8.94002 192.576 9.96343C196.384 10.545 201.637 11.5111 204.25 12.1102C208.601 13.108 209 13.4479 209 16.1588C209 18.1368 208.618 18.882 207.848 18.4062C207.215 18.0148 206.127 18.4738 205.43 19.4263C204.42 20.8079 203.752 20.9375 202.126 20.0672C200.513 19.204 199.4 19.3954 196.794 20.9844C192.993 23.3016 192.539 23.3322 188.5 21.5429ZM128.526 18.7145L129.18 15.2253L124.59 15.7427C120.336 16.2222 120 16.0944 120 13.9961C120 12.7509 120.521 9.99233 121.158 7.86602C122.472 3.48173 124.65 2.85101 127.521 6.02364C128.877 7.52142 129.551 7.72664 130.115 6.8134C130.689 5.88445 131.385 6.03825 132.929 7.43573C134.952 9.26657 135.001 9.24211 136.503 5.64597C137.341 3.64069 138.201 2 138.415 2C138.628 2 139.732 3.575 140.867 5.5C142.168 7.70347 143.698 9 144.998 9C147.853 9 148.441 11.2458 146.547 14.9097C144.809 18.2702 143.266 18.8565 142.362 16.5C141.786 15.0009 138.895 14.3322 139.118 15.75C139.692 19.384 138.925 20.2495 135.608 19.7112C133.41 19.3545 131.451 19.6964 130.043 20.6822C127.914 22.1738 127.884 22.1352 128.526 18.7145ZM759.153 20.1242L755.806 18.3483L759.153 14.8403C761.906 11.9555 763.237 11.3251 766.646 11.2913C770.097 11.257 770.98 11.6614 771.909 13.7C773.388 16.9465 772.569 18 768.563 18C766.408 18 764.763 18.6839 763.872 19.95C762.542 21.8404 762.398 21.8457 759.153 20.1242ZM171.207 19.4322C170.012 18.5952 168.66 16.4687 168.204 14.7067C167.115 10.5062 164 9.72226 164 13.6489V16.4444L161.852 14.2963C159.892 12.3365 159.505 12.278 157.443 13.6291C155.293 15.0379 155.151 14.9652 154.53 12.1372C154.171 10.5022 153.005 8.15859 151.939 6.92921C149.351 3.94601 149.474 2.59555 152.25 3.49885C155.095 4.42449 157.893 4.42935 160.694 3.5135C162.547 2.90745 163.122 3.35538 164.393 6.39802C165.221 8.37911 166.561 10 167.372 10C170.163 10 175.063 15.043 174.725 17.5679C174.283 20.8634 173.695 21.1751 171.207 19.4322ZM782.5 19C782.16 18.45 782.782 18 783.882 18C784.982 18 786.16 18.45 786.5 19C786.84 19.55 786.218 20 785.118 20C784.018 20 782.84 19.55 782.5 19ZM205.116 4.44394C202.542 2.27786 201.748 2.0647 199.913 3.04682C198.334 3.89168 197.104 3.91269 195.373 3.12432C190.443 0.87783 192.858 -0.0765987 202.738 0.213783C210.798 0.450641 212.531 0.780833 212.788 2.12862C213.102 3.76718 210.591 7 209.005 7C208.537 7 206.786 5.84977 205.116 4.44394ZM110.198 4.79769C109.539 4.13896 109 2.79 109 1.8C109 0.323809 109.839 0 113.667 0C116.233 0 118.144 0.1125 117.912 0.25C117.68 0.3875 116.119 1.73646 114.443 3.24769C112.076 5.38184 111.128 5.72795 110.198 4.79769Z" fill="#EDF9FF"/>
</svg>
