<svg width="19" height="18" viewBox="0 0 19 18" fill="none" xmlns="http://www.w3.org/2000/svg">
<path fill-rule="evenodd" clip-rule="evenodd" d="M18.6904 9C18.6904 13.9706 14.661 18 9.69043 18C4.71987 18 0.69043 13.9706 0.69043 9C0.69043 4.02944 4.71987 0 9.69043 0C14.661 0 18.6904 4.02944 18.6904 9ZM9.69043 8.325C9.06911 8.325 8.56543 7.82132 8.56543 7.2C8.56543 6.57868 9.06911 6.075 9.69043 6.075C10.3117 6.075 10.8154 6.57868 10.8154 7.2C10.8154 7.57279 11.1176 7.875 11.4904 7.875C11.8632 7.875 12.1654 7.57279 12.1654 7.2C12.1654 6.0671 11.4043 5.11198 10.3654 4.81816V4.05C10.3654 3.67721 10.0632 3.375 9.69043 3.375C9.31764 3.375 9.01543 3.67721 9.01543 4.05V4.81816C7.9766 5.11198 7.21543 6.0671 7.21543 7.2C7.21543 8.56691 8.32352 9.675 9.69043 9.675C10.3117 9.675 10.8154 10.1787 10.8154 10.8C10.8154 11.4213 10.3117 11.925 9.69043 11.925C9.06911 11.925 8.56543 11.4213 8.56543 10.8C8.56543 10.4272 8.26322 10.125 7.89043 10.125C7.51764 10.125 7.21543 10.4272 7.21543 10.8C7.21543 11.9329 7.9766 12.888 9.01543 13.1818V13.95C9.01543 14.3228 9.31764 14.625 9.69043 14.625C10.0632 14.625 10.3654 14.3228 10.3654 13.95V13.1818C11.4043 12.888 12.1654 11.9329 12.1654 10.8C12.1654 9.43382 11.0585 8.32618 9.69261 8.325L9.69043 8.325Z" fill="#28303F"/>
</svg>
