<svg width="54" height="56" viewBox="0 0 54 56" fill="none" xmlns="http://www.w3.org/2000/svg">
<g clip-path="url(#clip0_3256_8890)">
<path d="M53.3729 27.5925L50.0615 22.656C49.6227 21.9557 49.03 21.3679 48.3299 20.9388C47.6298 20.5097 46.8412 20.251 46.026 20.1828C46.554 19.5491 46.9302 18.8 47.1253 17.9942C47.3203 17.1883 47.3289 16.3476 47.1502 15.5379L46.0561 9.67134C46.0186 9.47221 45.9228 9.28917 45.7812 9.14613C45.6396 9.00309 45.4588 8.90671 45.2623 8.86957L39.4796 7.75953C38.6814 7.57795 37.8527 7.58644 37.0583 7.78432C36.2639 7.9822 35.5255 8.3641 34.901 8.90005C34.8341 8.07288 34.5792 7.27268 34.1562 6.56226C33.7333 5.85184 33.1537 5.25053 32.4632 4.80554L27.5989 1.44664C27.4344 1.33284 27.24 1.27197 27.041 1.27197C26.842 1.27197 26.6475 1.33284 26.4831 1.44664L21.6171 4.80726C20.9268 5.25237 20.3474 5.85362 19.9245 6.5639C19.5015 7.27418 19.2464 8.07418 19.1793 8.9012C18.5548 8.36529 17.8164 7.98341 17.022 7.78553C16.2276 7.58765 15.3989 7.57915 14.6007 7.76067L8.81793 8.87072C8.62208 8.90841 8.44195 9.00505 8.30099 9.14805C8.16003 9.29105 8.06478 9.47379 8.02762 9.67248L6.93344 15.539C6.75481 16.3487 6.76336 17.1893 6.9584 17.9951C7.15344 18.8008 7.52969 19.5498 8.05767 20.1834C7.24237 20.2515 6.45368 20.5102 5.75344 20.9393C5.05321 21.3684 4.46045 21.9562 4.02165 22.6566L0.710737 27.592C0.598267 27.7586 0.538086 27.9559 0.538086 28.1579C0.538086 28.3599 0.598267 28.5572 0.710737 28.7239L4.02165 33.6604C4.46055 34.3607 5.05333 34.9485 5.75355 35.3775C6.45376 35.8066 7.2424 36.0654 8.05767 36.1336C7.52968 36.7673 7.15343 37.5164 6.95839 38.3222C6.76335 39.1281 6.75481 39.9688 6.93344 40.7785L8.02762 46.6451C8.06478 46.8438 8.16003 47.0265 8.30099 47.1695C8.44195 47.3125 8.62208 47.4092 8.81793 47.4468L14.6007 48.5569C14.9909 48.6324 15.3872 48.6709 15.7845 48.6719C17.0285 48.6951 18.2372 48.2515 19.1787 47.4261C19.2465 48.2524 19.5019 49.0515 19.9248 49.7609C20.3477 50.4703 20.9267 51.0709 21.6165 51.5155L26.4814 54.8744C26.6458 54.9882 26.8402 55.0492 27.0393 55.0492C27.2383 55.0492 27.4328 54.9882 27.5972 54.8744L32.4632 51.5149C33.153 51.0704 33.732 50.47 34.155 49.7607C34.5779 49.0513 34.8332 48.2523 34.901 47.4261C35.842 48.2531 37.051 48.6982 38.2958 48.6759C38.6933 48.6749 39.0897 48.6364 39.4802 48.5609L45.2629 47.4509C45.4594 47.4137 45.6402 47.3173 45.7818 47.1743C45.9234 47.0313 46.0192 46.8482 46.0566 46.6491L47.1508 40.7825C47.3294 39.9729 47.3209 39.1323 47.1258 38.3265C46.9308 37.5208 46.5546 36.7718 46.0266 36.1382C46.8419 36.0701 47.6306 35.8114 48.3308 35.3823C49.031 34.9532 49.6238 34.3654 50.0626 33.665L53.3735 28.7296C53.487 28.5624 53.5477 28.3641 53.5476 28.161C53.5475 27.9579 53.4866 27.7597 53.3729 27.5925ZM39.1167 9.73633L44.2345 10.7187L45.2 15.9077C45.3302 16.4416 45.3291 16.9997 45.1969 17.5331C45.0646 18.0664 44.8052 18.5586 44.4414 18.9664L43.2633 20.1639H34.9214V11.7011L36.0989 10.5059C36.501 10.1361 36.9867 9.87251 37.513 9.73829C38.0393 9.60408 38.5901 9.6034 39.1167 9.73633ZM25.6378 38.0402L21.1448 42.6017V36.1531H23.7783L25.6378 38.0402ZM28.4442 18.2768L32.9371 13.7152V20.1639H30.3037L28.4442 18.2768ZM35.3778 28.1585L33.228 30.34C33.0419 30.5287 32.9373 30.7846 32.9371 31.0515V34.1401H29.8927C29.6296 34.1402 29.3773 34.2464 29.1914 34.4351L27.041 36.6161L24.8906 34.4351C24.7046 34.2464 24.4524 34.1402 24.1893 34.1401H21.1448V31.0515C21.1447 30.7846 21.0401 30.5287 20.854 30.34L18.707 28.1585L20.8568 25.9769C21.0419 25.7878 21.1455 25.532 21.1448 25.2655V22.1769H24.1893C24.4524 22.1768 24.7046 22.0706 24.8906 21.8818L27.041 19.7037L29.1914 21.8847C29.3773 22.0735 29.6296 22.1796 29.8927 22.1798H32.9371V25.2683C32.9373 25.5352 33.0419 25.7912 33.228 25.9798L35.3778 28.1585ZM23.7783 20.1639H21.1448V13.7152L25.6378 18.2768L23.7783 20.1639ZM19.1606 24.8485L17.3004 26.735L12.8041 22.1769H19.1606V24.8485ZM17.3004 29.582L19.1606 31.4685V34.1401H12.8041L17.3004 29.582ZM30.3037 36.1531H32.9371V42.6017L28.4442 38.0402L30.3037 36.1531ZM34.9214 31.4685L36.7815 29.582L41.2779 34.1401H34.9214V31.4685ZM36.7815 26.735L34.9214 24.8485V22.1769H41.2779L36.7815 26.735ZM22.7323 6.46715L27.041 3.49419L31.3457 6.46658C31.8087 6.75072 32.1959 7.14577 32.4734 7.61707C32.7508 8.08837 32.9101 8.62153 32.9371 9.1698V10.8648L27.041 16.8533L21.1448 10.8677V9.17268C21.1712 8.62439 21.3296 8.09103 21.6064 7.61934C21.8832 7.14765 22.2697 6.75202 22.7323 6.46715ZM8.882 15.9106L9.85033 10.7187L14.9652 9.73633C15.4914 9.6037 16.0417 9.60453 16.5675 9.73874C17.0934 9.87295 17.5785 10.1364 17.9802 10.5059L19.1606 11.7011V20.1639H10.8187L9.64056 18.9687C9.27685 18.561 9.01745 18.0689 8.88518 17.5357C8.75291 17.0024 8.75181 16.4444 8.882 15.9106ZM5.65953 32.5297L2.72903 28.1585L5.65896 23.7914C5.93905 23.3217 6.32845 22.9288 6.79301 22.6474C7.25758 22.3659 7.78313 22.2043 8.32357 22.1769H9.99433L15.8973 28.1585L9.99716 34.1401H8.3264C7.78595 34.1134 7.26021 33.9526 6.79525 33.6718C6.3303 33.3911 5.94033 32.9989 5.65953 32.5297ZM14.9681 46.5807L9.85033 45.5983L8.882 40.4093C8.75177 39.8754 8.75283 39.3173 8.88511 38.7839C9.01738 38.2506 9.2768 37.7584 9.64056 37.3506L10.8187 36.1531H19.1606V44.6159L17.9825 45.8111C17.5808 46.1803 17.0957 46.4437 16.57 46.5779C16.0443 46.7121 15.4942 46.713 14.9681 46.5807ZM31.3497 49.8498L27.041 52.8228L22.7362 49.8504C22.2732 49.5663 21.886 49.1712 21.6086 48.6999C21.3311 48.2286 21.1719 47.6955 21.1448 47.1472V45.4493L27.041 39.4637L32.9371 45.4493V47.1443C32.9108 47.6926 32.7523 48.226 32.4756 48.6976C32.1988 49.1693 31.8122 49.565 31.3497 49.8498ZM45.2 40.4093L44.2317 45.6006L39.1167 46.5807C38.5904 46.7131 38.0401 46.7122 37.5142 46.578C36.9883 46.4438 36.5031 46.1804 36.1012 45.8111L34.9214 44.6159V36.1531H43.2633L44.4414 37.3483C44.8055 37.7563 45.0652 38.2489 45.1975 38.7827C45.3297 39.3165 45.3306 39.8751 45.2 40.4093ZM48.423 32.5297C48.1429 32.9994 47.7535 33.3922 47.289 33.6736C46.8244 33.9551 46.2989 34.1167 45.7584 34.1441H44.0848L38.1847 28.1585L44.0848 22.1769H45.7556C46.2956 22.204 46.8209 22.3649 47.2854 22.6457C47.75 22.9264 48.1396 23.3184 48.4202 23.7873L51.3507 28.1585L48.423 32.5297Z" fill="url(#paint0_linear_3256_8890)"/>
</g>
<defs>
<linearGradient id="paint0_linear_3256_8890" x1="27.0429" y1="1.27197" x2="27.0429" y2="55.0492" gradientUnits="userSpaceOnUse">
<stop stop-color="#07689F"/>
<stop offset="0.557292" stop-color="#4DCCB5"/>
<stop offset="1" stop-color="#4DCCB5"/>
</linearGradient>
<clipPath id="clip0_3256_8890">
<rect width="53.8407" height="54.621" fill="white" transform="translate(0.120483 0.848389)"/>
</clipPath>
</defs>
</svg>
