<svg width="54" height="56" viewBox="0 0 54 56" fill="none" xmlns="http://www.w3.org/2000/svg">
<path d="M52.1692 34.4321C51.6358 34.1974 51.0384 34.3788 50.7183 34.8695C46.5791 41.3344 39.2287 45.1323 31.5476 44.7482C20.6554 44.2148 11.7155 35.2642 11.1821 24.3827C10.8087 16.7016 14.5959 9.35125 21.0608 5.212C21.5622 4.89196 21.7436 4.29454 21.5089 3.76113C21.2742 3.21706 20.6981 2.95035 20.122 3.11037C8.0243 6.39617 -0.211529 17.8751 0.524574 30.4209C1.31402 43.8841 12.0569 54.627 25.5094 55.4164C26.0322 55.4484 26.5442 55.4591 27.0563 55.4591C38.9833 55.4591 49.6728 47.4046 52.8199 35.819C52.98 35.2429 52.7133 34.6775 52.1692 34.4321ZM51.7318 35.5203C48.7234 46.6152 38.4926 54.3176 27.067 54.3176C26.5762 54.3176 26.0748 54.3069 25.5841 54.2749C12.697 53.5281 2.41284 43.244 1.6554 30.3569C0.951301 18.3445 8.84575 7.34564 20.41 4.2092L20.442 4.26254C13.6358 8.62582 9.64586 16.3602 10.0406 24.4467C10.606 35.915 20.026 45.335 31.4943 45.9004C39.5807 46.2951 47.3152 42.3159 51.7318 35.4989C51.7318 35.4883 51.7318 35.4989 51.7318 35.5203Z" fill="#4DCCB5" stroke="#4DCCB5" stroke-width="0.7803"/>
<path d="M22.6504 17.4053C21.7542 17.4053 21.0181 18.1414 21.0181 19.0376V34.101H20.4314C20.122 34.101 19.866 34.3571 19.866 34.6664C19.866 34.9758 20.122 35.2318 20.4314 35.2318H45.7149C46.0243 35.2318 46.2804 34.9758 46.2804 34.6664C46.2804 34.3571 46.0243 34.101 45.7149 34.101H43.848V5.76637H44.5521C44.8615 5.76637 45.1175 5.51033 45.1175 5.20095C45.1175 4.89158 44.8615 4.63554 44.5521 4.63554H44.1787C44.3387 3.3767 43.2719 2.50191 42.1624 1.91516V1.42442C42.1624 1.11504 41.9064 0.859009 41.597 0.859009C41.2876 0.859009 41.0316 1.11504 41.0316 1.42442V1.90449C39.9115 2.50191 38.8553 3.3767 39.0047 4.62487H38.6313C38.3219 4.62487 38.0659 4.88091 38.0659 5.19029C38.0659 5.49966 38.3219 5.7557 38.6313 5.7557H39.3354V20.4351H37.7992V19.0269C37.7992 18.1308 37.0631 17.3947 36.1669 17.3947H36.0389C36.2843 16.6692 36.4123 15.9118 36.4123 15.133C36.4123 11.7085 31.3556 8.99882 29.9687 8.32673V6.08641C29.9687 5.77703 29.7127 5.521 29.4033 5.521C29.0939 5.521 28.8379 5.77703 28.8379 6.08641V8.34806C27.4617 9.02016 22.3943 11.7299 22.3943 15.1544C22.3943 15.9331 22.5223 16.6906 22.7677 17.416L22.6504 17.4053ZM26.6296 34.0904V27.188C26.6296 26.0892 28.4965 24.9264 29.414 24.4677C30.3314 24.9264 32.1984 26.0892 32.1984 27.188V34.0904H26.6296ZM40.4769 34.0904V5.76637H42.7065V34.0904H40.4769ZM41.597 2.88596C42.3331 3.27001 43.2079 3.85676 43.0372 4.62487H40.1568C39.9861 3.8461 40.8716 3.27001 41.597 2.88596ZM39.346 21.5873V34.101H37.8098V21.5873H39.346ZM36.6683 19.0376V34.101H33.3292V27.1987C33.3292 25.0437 30.0221 23.4969 29.638 23.3262C29.4887 23.2622 29.318 23.2622 29.1686 23.3262C28.7952 23.4969 25.4774 25.0437 25.4774 27.1987V34.101H22.1383V19.0376C22.1383 18.7709 22.3623 18.5468 22.629 18.5468C22.6824 18.5468 37.0737 18.5468 36.1563 18.5468C36.455 18.5468 36.6683 18.7709 36.6683 19.0376ZM23.5358 15.1544C23.5358 12.658 27.5791 10.2043 29.414 9.3402C31.2489 10.215 35.2815 12.658 35.2815 15.1544C35.2815 15.9438 35.1321 16.7012 34.8334 17.416H23.9945C23.6958 16.7012 23.5358 15.9438 23.5358 15.1544Z" fill="#07689F" stroke="#07689F" stroke-width="0.39015"/>
</svg>
