<svg width="18" height="18" viewBox="0 0 18 18" fill="none" xmlns="http://www.w3.org/2000/svg">
<path d="M1.84062 5.95438C2.05158 5.74348 2.33768 5.625 2.63599 5.625C2.9343 5.625 3.2204 5.74348 3.43136 5.95438L9.00011 11.5231L14.5689 5.95438C14.781 5.74946 15.0652 5.63606 15.3602 5.63863C15.6552 5.64119 15.9373 5.7595 16.1459 5.96809C16.3545 6.17667 16.4728 6.45884 16.4754 6.75381C16.4779 7.04878 16.3645 7.33296 16.1596 7.54513L9.79549 13.9093C9.58452 14.1202 9.29842 14.2386 9.00011 14.2386C8.7018 14.2386 8.41571 14.1202 8.20474 13.9093L1.84062 7.54513C1.62971 7.33417 1.51123 7.04807 1.51123 6.74976C1.51123 6.45145 1.62971 6.16535 1.84062 5.95438Z" fill="#4DCCB5"/>
</svg>
