<svg width="21" height="20" viewBox="0 0 21 20" fill="none" xmlns="http://www.w3.org/2000/svg">
<g clip-path="url(#clip0_3256_9215)">
<path d="M20.0629 10.088C20.0629 15.0536 16.4197 19.1703 11.6638 19.9173V12.9833H13.9763L14.4165 10.1145H11.6638V8.25311C11.6638 7.46793 12.0486 6.70347 13.2806 6.70347H14.5318V4.26086C14.5318 4.26086 13.3959 4.06684 12.3106 4.06684C10.0437 4.06684 8.5629 5.44071 8.5629 7.92727V10.1137H6.04317V12.9825H8.5629V19.9165C3.80784 19.1686 0.163818 15.0528 0.163818 10.088C0.163818 4.59334 4.61873 0.138428 10.1134 0.138428C15.608 0.138428 20.0629 4.59251 20.0629 10.088Z" fill="white"/>
</g>
<defs>
<clipPath id="clip0_3256_9215">
<rect width="19.8991" height="19.8991" fill="white" transform="translate(0.163818 0.0776367)"/>
</clipPath>
</defs>
</svg>
