<svg width="16" height="14" viewBox="0 0 16 14" fill="none" xmlns="http://www.w3.org/2000/svg">
<path d="M8.90543 0.656949C8.62082 -0.218983 7.38161 -0.218983 7.097 0.65695L6.08011 3.78661C5.95283 4.17834 5.58779 4.44356 5.1759 4.44356H1.88518C0.964169 4.44356 0.581232 5.62212 1.32634 6.16348L3.98859 8.09772C4.32182 8.33982 4.46125 8.76896 4.33397 9.16068L3.31708 12.2903C3.03248 13.1663 4.03502 13.8947 4.78013 13.3533L7.44238 11.4191C7.77561 11.177 8.22683 11.177 8.56005 11.4191L11.2223 13.3533C11.9674 13.8947 12.97 13.1663 12.6854 12.2903L11.6685 9.16068C11.5412 8.76896 11.6806 8.33982 12.0138 8.09772L14.6761 6.16348C15.4212 5.62212 15.0383 4.44356 14.1173 4.44356H10.8265C10.4146 4.44356 10.0496 4.17834 9.92232 3.78661L8.90543 0.656949Z" fill="#FFC107"/>
</svg>
