<svg width="14" height="17" viewBox="0 0 14 17" fill="none" xmlns="http://www.w3.org/2000/svg">
<path d="M9.75484 13.024C8.76282 14.0405 7.76242 15.0486 6.75993 16.0546C6.55466 16.274 6.34058 16.4913 6.10892 16.686C5.97737 16.7954 5.83368 16.887 5.68161 16.9569H0.13501C1.10441 15.9778 7.62082 9.43038 8.59064 8.45386C8.84326 8.71059 9.22574 9.09784 9.68363 9.56771C10.5299 10.4348 10.7083 12.039 9.75484 13.024Z" fill="#DDDDDD"/>
<path d="M13.2183 9.05835C13.1307 9.30509 12.9994 9.5354 12.8301 9.73385C11.8364 10.7877 10.8223 11.8251 9.80031 12.8522C10.7485 11.8893 10.5709 10.3219 9.72859 9.47475C9.27241 9.01567 8.89212 8.63735 8.64068 8.38647C8.64068 8.38647 8.64068 8.38647 8.64068 8.38441C7.67328 7.43596 1.39145 1.19877 0.428223 0.244141H5.74515C5.81271 0.28064 5.88026 0.324849 5.94364 0.371629C6.08458 0.477013 6.22385 0.588052 6.3527 0.709371C8.46096 2.80677 10.5771 4.89798 12.6933 6.9851C12.9122 7.19744 13.0815 7.45654 13.1966 7.7377C13.368 8.15823 13.3718 8.63169 13.2183 9.05835Z" fill="white"/>
</svg>
