<svg width="119" height="24" viewBox="0 0 119 24" fill="none" xmlns="http://www.w3.org/2000/svg">
<g clip-path="url(#clip0_3256_9233)">
<path d="M113.854 18.3867C112.445 19.8292 111.024 21.2597 109.601 22.6874C109.309 22.9987 109.005 23.3071 108.676 23.5833C108.489 23.7387 108.285 23.8686 108.069 23.9679H100.191C101.568 22.5784 110.823 13.2871 112.201 11.9014C112.56 12.2657 113.103 12.8152 113.753 13.482C114.955 14.7125 115.208 16.9889 113.854 18.3867Z" fill="url(#paint0_linear_3256_9233)"/>
<path d="M118.733 12.8757C118.608 13.234 118.421 13.5685 118.179 13.8568C116.761 15.3874 115.314 16.8941 113.856 18.3859C115.209 16.9875 114.955 14.7109 113.754 13.4805C113.103 12.8137 112.56 12.2642 112.201 11.8998C112.201 11.8998 112.201 11.8998 112.201 11.8968C110.821 10.5193 101.857 1.46025 100.483 0.0737305H108.07C108.166 0.126742 108.262 0.190953 108.353 0.258898C108.554 0.411959 108.753 0.573235 108.936 0.74944C111.945 3.79575 114.964 6.83306 117.984 9.86444C118.296 10.1728 118.538 10.5492 118.702 10.9575C118.947 11.5683 118.952 12.256 118.733 12.8757Z" fill="#52D4BD"/>
<path fill-rule="evenodd" clip-rule="evenodd" d="M88.18 1.72437C91.1455 1.75414 94.086 2.85223 96.1316 5.06703C99.6641 8.70971 99.657 15.1293 96.1822 18.8114C94.0842 21.0977 91.0277 22.2129 87.9735 22.1951C84.917 22.2129 81.8605 21.0977 79.7649 18.8114C76.2901 15.1293 76.2818 8.70899 79.8155 5.06703C81.8575 2.85223 84.8004 1.75489 87.7665 1.72437H88.18ZM91.841 16.8423C93.178 15.6891 94.0175 14.0237 94.0961 12.2549C94.1514 10.9699 93.8563 9.67007 93.2072 8.56679L93.1964 8.57723C92.3242 7.40693 91.2068 6.33713 89.7615 5.96189C89.2248 5.79736 88.6667 5.711 88.1098 5.69313C88.0949 5.69313 88.0794 5.69289 88.0646 5.69264C88.0342 5.69214 88.0033 5.69164 87.9735 5.69313C87.9432 5.69164 87.9128 5.69214 87.8825 5.69264C87.867 5.69289 87.8522 5.69313 87.8373 5.69313C87.2768 5.711 86.7199 5.79736 86.185 5.96189C84.7397 6.33635 83.6205 7.40615 82.75 8.57723C82.7476 8.57579 82.7459 8.57393 82.7441 8.57213C82.7423 8.57003 82.7405 8.56799 82.7375 8.56679C81.557 10.5694 81.5469 13.2302 82.6893 15.2581L82.6977 15.2682C83.2594 15.9848 83.83 16.7129 84.5981 17.2175C85.5918 17.8712 86.78 18.1958 87.9723 18.2032C89.1629 18.1958 90.3535 17.8712 91.3466 17.2175C91.5209 17.1036 91.6845 16.9763 91.841 16.8423Z" fill="#1C1C1C"/>
<path fill-rule="evenodd" clip-rule="evenodd" d="M11.0436 1.72437C14.0089 1.75414 16.9498 2.85223 18.9951 5.06703C22.5278 8.70971 22.5204 15.1293 19.0454 18.8114C16.9476 21.0977 13.8911 22.2129 10.8369 22.1951C7.78045 22.2129 4.72405 21.0977 2.6284 18.8114C-0.84657 15.1293 -0.854716 8.70899 2.67877 5.06703C4.72109 2.85223 7.66419 1.75489 10.6303 1.72437H11.0436ZM14.7045 16.8423C16.0416 15.6891 16.8809 14.0237 16.9594 12.2549C17.015 10.9699 16.7201 9.67007 16.0705 8.56679L16.0601 8.57723C15.1875 7.40693 14.0704 6.33713 12.6251 5.96189C12.0881 5.79736 11.5303 5.711 10.9732 5.69313C10.9582 5.69313 10.9431 5.69289 10.9279 5.69264C10.8975 5.69214 10.8671 5.69164 10.8369 5.69313C10.8067 5.69164 10.7763 5.69214 10.7459 5.69264C10.7308 5.69289 10.7156 5.69313 10.7006 5.69313C10.1406 5.711 9.58354 5.79736 9.04869 5.96189C7.60344 6.33635 6.48413 7.40615 5.61372 8.57723C5.61129 8.57579 5.60952 8.57393 5.60778 8.57213C5.6058 8.57003 5.60388 8.56799 5.60112 8.56679C4.42033 10.5694 4.4107 13.2302 5.55297 15.2581L5.56092 15.2682C6.12284 15.9848 6.69368 16.7129 7.46195 17.2175C8.4553 17.8712 9.64352 18.1958 10.8362 18.2032C12.0266 18.1958 13.217 17.8712 14.2104 17.2175C14.3845 17.1036 14.5482 16.9763 14.7045 16.8423Z" fill="#1C1C1C"/>
<path d="M24.8827 21.8786C24.8672 15.2804 24.8487 8.68145 24.8887 2.08618C29.4363 2.11745 33.9875 2.08916 38.5359 2.09884C38.5359 2.11298 38.5359 2.12787 38.5359 2.14201C38.5359 4.15432 36.9121 5.78247 34.9098 5.7847C33.0994 5.78619 31.2882 5.79289 29.4777 5.77205C29.4903 7.49849 29.4718 9.22859 29.4874 10.955C32.5016 10.9707 35.5187 10.961 38.5366 10.9647V11.0168C38.5366 13.0254 36.9188 14.6543 34.9202 14.6588C33.1119 14.6625 31.3045 14.667 29.497 14.6349C29.477 15.8336 29.4785 17.0314 29.4799 18.23C29.4822 20.2341 27.871 21.863 25.8768 21.8734C25.545 21.8734 25.2138 21.8757 24.8827 21.8786Z" fill="#1C1C1C"/>
<path d="M42.7433 21.8782C42.7655 15.2829 42.7307 8.68396 42.7618 2.08872C47.3131 2.10138 51.8674 2.11105 56.421 2.08276C56.4202 2.11329 56.4202 2.14381 56.4202 2.17434C56.3995 4.17249 54.7994 5.79693 52.8112 5.79767C50.9889 5.79841 49.1651 5.75896 47.3442 5.77757C47.3628 7.501 47.3598 9.22744 47.3539 10.9509C50.3777 10.9695 53.4008 10.9695 56.4276 10.9509C56.4269 10.9874 56.4269 11.0231 56.4261 11.0596C56.3972 13.0533 54.7913 14.6621 52.8075 14.6613C50.9911 14.6613 49.1747 14.645 47.3598 14.6583C47.3398 15.8391 47.3583 17.0213 47.3672 18.2035C47.3813 20.2233 45.7553 21.8738 43.7456 21.87C43.4115 21.8685 43.0774 21.87 42.7433 21.8782Z" fill="#1C1C1C"/>
<path d="M62.4953 2.09211C66.8614 2.10179 71.8136 2.10253 75.7043 2.08765V2.12487C75.7192 4.14089 74.0978 5.78245 72.0915 5.78394C71.1912 5.78468 70.2916 5.78543 69.3914 5.78543C69.3699 9.93362 69.389 14.0833 69.383 18.2322C69.38 20.2326 67.7747 21.8585 65.7845 21.8712C65.4489 21.8734 65.1133 21.8764 64.7777 21.8794C64.7498 16.508 64.8033 11.1374 64.7498 5.76607C63.3753 5.79138 60.2355 5.7884 58.8643 5.77575L58.865 5.69758C58.885 3.69719 60.505 2.08765 62.4953 2.09211Z" fill="#1C1C1C"/>
</g>
<defs>
<linearGradient id="paint0_linear_3256_9233" x1="107.674" y1="9.61789" x2="98.8993" y2="21.9428" gradientUnits="userSpaceOnUse">
<stop stop-color="#267567"/>
<stop offset="0.0703653" stop-color="#329281"/>
<stop offset="0.1482" stop-color="#48B8A4"/>
<stop offset="0.250633" stop-color="#4DCCB5"/>
<stop offset="0.34412" stop-color="#52D4BD"/>
<stop offset="0.534338" stop-color="#52D4BD"/>
<stop offset="1" stop-color="#52D4BD"/>
</linearGradient>
<clipPath id="clip0_3256_9233">
<rect width="119" height="24" fill="white"/>
</clipPath>
</defs>
</svg>
