<svg width="56" height="56" viewBox="0 0 56 56" fill="none" xmlns="http://www.w3.org/2000/svg">
<g clip-path="url(#clip0_3256_8902)">
<path d="M45.0476 19.3805L32.5323 14.9841V10.4035C32.5323 7.38096 31.0998 4.47922 28.7004 2.64109C28.3176 2.34783 27.7857 2.34783 27.4029 2.64109C25.0036 4.47922 23.571 7.38096 23.571 10.4035V14.9842L11.0558 19.3806C10.6284 19.5307 10.3425 19.9343 10.3425 20.3872V23.919C10.3425 24.2264 10.4752 24.5189 10.7065 24.7215C10.9022 24.8929 11.1523 24.9858 11.4093 24.9858C11.4561 24.9858 11.5031 24.9827 11.55 24.9765L23.571 23.3768V32.0845L19.9003 35.1483C19.6575 35.3509 19.5171 35.651 19.5171 35.9673V40.2345C19.5171 40.6146 19.7193 40.9658 20.0478 41.1569C20.2134 41.2531 20.3986 41.3014 20.584 41.3014C20.7661 41.3014 20.9482 41.2547 21.1119 41.1615L28.0517 37.2096L34.9914 41.1615C35.1552 41.2547 35.3373 41.3014 35.5194 41.3014C35.7046 41.3014 35.8899 41.2531 36.0556 41.1569C36.384 40.9659 36.5862 40.6146 36.5862 40.2345V35.9673C36.5862 35.651 36.4458 35.351 36.203 35.1483L32.5323 32.0845V23.3768L44.5533 24.9764C44.6002 24.9827 44.6472 24.9857 44.694 24.9857C44.9509 24.9857 45.2011 24.8928 45.3968 24.7214C45.6281 24.5188 45.7608 24.2263 45.7608 23.9189V20.3871C45.7608 19.9342 45.4749 19.5306 45.0476 19.3805ZM12.4761 22.7008V21.1431L23.571 17.2455V21.2244L12.4761 22.7008ZM21.6508 38.3994V36.4664L24.5864 34.0161L26.3163 35.7425L21.6508 38.3994ZM25.7047 32.1177V10.4035C25.7047 8.32723 26.5693 6.32374 28.0517 4.89336C29.534 6.32374 30.3987 8.32723 30.3987 10.4035V32.1177L28.0517 34.4601L25.7047 32.1177ZM34.4526 36.4664V38.3994L29.7871 35.7425L31.5169 34.0161L34.4526 36.4664ZM43.6272 22.7008L32.5323 21.2244V17.2455L43.6272 21.1431V22.7008Z" fill="#07689F"/>
<path d="M35.8862 4.49163C35.7147 3.92792 35.1186 3.6098 34.5551 3.78134L34.5284 3.78945C33.9647 3.96089 33.6467 4.55681 33.8182 5.12052C33.9581 5.58085 34.381 5.87721 34.8385 5.87721C34.9412 5.87721 35.0457 5.86227 35.1492 5.8308L35.1759 5.8227C35.7396 5.65126 36.0576 5.05533 35.8862 4.49163Z" fill="#4DCCB5"/>
<path d="M39.0944 3.1162C38.5052 3.1162 38.0276 3.59381 38.0276 4.18301C38.0276 4.77222 38.5052 5.24983 39.0944 5.24983C46.8879 5.24983 53.2285 11.8509 53.2285 19.9646C53.2285 27.7923 46.2865 36.031 40.4627 41.5641C35.1584 46.6036 29.7885 50.3706 28.0517 51.5474C26.3148 50.3706 20.945 46.6036 15.6406 41.5641C9.81689 36.031 2.8748 27.7923 2.8748 19.9646C2.8748 11.8509 9.21542 5.24972 17.0089 5.24972C17.5982 5.24972 18.0758 4.77211 18.0758 4.18291C18.0758 3.5937 17.5982 3.11609 17.0089 3.11609C8.03883 3.1162 0.741165 10.6744 0.741165 19.9646C0.741165 23.7996 2.17785 27.9785 5.01121 32.3853C7.23403 35.8424 10.3241 39.4589 14.1953 43.134C20.7524 49.359 27.406 53.6829 27.4725 53.7258C27.6487 53.8396 27.8503 53.8967 28.0517 53.8967C28.2531 53.8967 28.4545 53.8397 28.6308 53.7258C28.6973 53.6829 35.3509 49.3589 41.908 43.134C45.7793 39.4589 48.8692 35.8424 51.0921 32.3853C53.9255 27.9785 55.3622 23.7996 55.3622 19.9646C55.3622 10.6744 48.0645 3.1162 39.0944 3.1162Z" fill="#4DCCB5"/>
<path d="M21.5936 3.79405L21.571 3.78722C21.0069 3.6161 20.4114 3.93455 20.2404 4.49836C20.0694 5.06217 20.3878 5.65788 20.9515 5.829L20.9741 5.83583C21.0774 5.86709 21.1817 5.88202 21.2843 5.88202C21.7419 5.88202 22.165 5.58523 22.3048 5.12469C22.4759 4.56088 22.1575 3.96517 21.5936 3.79405Z" fill="#4DCCB5"/>
<path d="M28.0654 39.1746C27.4762 39.1746 26.9986 39.6522 26.9986 40.2414V47.069C26.9986 47.6581 27.4762 48.1358 28.0654 48.1358C28.6546 48.1358 29.1322 47.6581 29.1322 47.069V40.2414C29.1322 39.6523 28.6546 39.1746 28.0654 39.1746Z" fill="#4DCCB5"/>
<path d="M31.7855 41.2014C31.1963 41.2014 30.7187 41.679 30.7187 42.2682V44.5085C30.7187 45.0976 31.1963 45.5754 31.7855 45.5754C32.3747 45.5754 32.8524 45.0976 32.8524 44.5085V42.2682C32.8524 41.6791 32.3747 41.2014 31.7855 41.2014Z" fill="#4DCCB5"/>
<path d="M24.3178 41.2014C23.7286 41.2014 23.251 41.679 23.251 42.2682V44.5085C23.251 45.0976 23.7286 45.5754 24.3178 45.5754C24.907 45.5754 25.3846 45.0976 25.3846 44.5085V42.2682C25.3846 41.6791 24.907 41.2014 24.3178 41.2014Z" fill="#4DCCB5"/>
</g>
<defs>
<clipPath id="clip0_3256_8902">
<rect width="54.621" height="54.621" fill="white" transform="translate(0.74115 0.848389)"/>
</clipPath>
</defs>
</svg>
