<svg width="70" height="46" viewBox="0 0 70 46" fill="none" xmlns="http://www.w3.org/2000/svg">
<g clip-path="url(#clip0_3256_9133)">
<path d="M33.5997 0.833374C32.5005 1.86476 31.5251 2.99732 30.7581 4.30299C30.6399 4.50423 30.5263 4.70872 30.41 4.91051C30.406 4.91754 30.396 4.92106 30.352 4.95271C29.4233 4.5824 28.5999 4.0095 27.795 3.32975C27.8924 3.2486 27.9691 3.17828 28.0514 3.11552C29.3694 2.10929 30.8404 1.43008 32.4535 1.05978C32.7411 0.993506 33.0339 0.949687 33.3237 0.891531C33.3639 0.883686 33.4 0.854202 33.438 0.834726L33.5997 0.833374Z" fill="white"/>
<path d="M47.7079 15.2169H69.147C69.1357 15.2632 69.1354 15.3081 69.1151 15.3405C68.6891 16.0233 68.207 16.6597 67.5845 17.1783C67.0697 17.6073 66.4953 17.8274 65.8065 17.8242C60.8995 17.8104 55.9926 17.8166 51.0856 17.8177C50.933 17.8152 50.7804 17.8231 50.6288 17.8412C50.5314 17.8541 50.4378 17.8873 50.3542 17.9389C50.1537 18.0671 50.1361 18.2984 50.3059 18.468C50.4394 18.6019 50.6113 18.6535 50.7937 18.6695C50.8919 18.6779 50.9914 18.6725 51.0905 18.6725H65.7488C65.734 18.7233 65.716 18.7732 65.6948 18.8218C65.306 19.5418 64.8225 20.1875 64.1782 20.6974C63.9712 20.8553 63.7505 20.9943 63.5188 21.1129C63.2204 21.2719 62.8937 21.3225 62.5548 21.3211C61.4486 21.3163 60.344 21.3195 59.2386 21.3195C55.9043 21.3195 52.5701 21.32 49.2358 21.3211C49.0925 21.3171 48.9493 21.3312 48.8095 21.3631C48.6979 21.3944 48.5948 21.4509 48.5084 21.5283C48.3735 21.6487 48.3697 21.8429 48.5097 21.9557C48.6223 22.0423 48.752 22.1038 48.8902 22.1361C49.0272 22.1691 49.1759 22.158 49.3194 22.158C53.5613 22.158 57.8032 22.158 62.0451 22.158H62.445C62.418 22.2424 62.4137 22.2957 62.3883 22.3371C61.9453 23.0574 61.4049 23.6896 60.7077 24.1765C60.0936 24.6052 59.4207 24.8224 58.6628 24.8205C54.9064 24.8111 51.1498 24.8111 47.393 24.8205C47.2236 24.8224 47.055 24.8463 46.8917 24.8916C46.7584 24.9273 46.6511 25.0226 46.6427 25.1786C46.6395 25.2427 46.6562 25.3062 46.6905 25.3604C46.7248 25.4145 46.7751 25.4567 46.8343 25.481C46.9892 25.5477 47.1503 25.5989 47.3153 25.6339C47.4006 25.6542 47.4942 25.6382 47.5851 25.6382H59.0306C59.0157 25.6972 59.0139 25.7334 58.9982 25.7624C58.4856 26.7139 57.7744 27.4681 56.7998 27.9552C56.2826 28.2138 55.7317 28.3069 55.1564 28.3069C52.658 28.3025 50.1596 28.3019 47.6612 28.305C46.3761 28.305 45.0905 28.2847 43.8059 28.3093C41.5725 28.3523 39.6426 26.7553 38.9071 25.1445C38.8469 25.015 38.8 24.8797 38.7368 24.7215C38.8555 24.6674 38.9581 24.619 39.0622 24.5735C40.5764 23.9154 42.012 23.1215 43.3149 22.1001C44.92 20.8407 46.1967 19.3195 47.0131 17.4325C47.3175 16.7287 47.5401 15.9986 47.7079 15.2169Z" fill="white"/>
<path d="M10.4467 25.6363H10.7902C14.529 25.6363 18.2677 25.6368 22.0063 25.6379C22.2168 25.6379 22.42 25.6208 22.6045 25.5137C22.7416 25.4339 22.8573 25.3317 22.8354 25.151C22.8149 24.9825 22.6884 24.9035 22.5449 24.87C22.397 24.8353 22.2456 24.8178 22.0938 24.8177C18.3631 24.8156 14.6341 24.8056 10.9046 24.8248C9.95381 24.8294 9.14924 24.5197 8.43399 23.9221C7.90409 23.4796 7.47375 22.9519 7.11436 22.3638C7.09561 22.3332 7.07867 22.3015 7.06364 22.2689C7.05657 22.2446 7.0517 22.2197 7.04907 22.1945C7.10412 22.1797 7.1601 22.1686 7.21662 22.1612C7.3062 22.1556 7.39631 22.1593 7.48643 22.1593C11.7285 22.1593 15.9706 22.1593 20.2127 22.1593C20.3742 22.1638 20.5358 22.1529 20.6953 22.1269C20.9328 22.0812 21.0944 21.9137 21.0966 21.7482C21.0987 21.5827 20.9487 21.4166 20.7018 21.3625C20.5526 21.3321 20.4005 21.3183 20.2483 21.3214C15.8804 21.3192 11.5125 21.3105 7.14458 21.3284C6.39533 21.3316 5.77693 21.0893 5.22518 20.617C4.64428 20.1196 4.18993 19.5199 3.82677 18.8491C3.80086 18.7916 3.77816 18.7327 3.75878 18.6727H4.10116C8.89131 18.6727 13.6815 18.6721 18.4719 18.6708C18.6238 18.6698 18.7752 18.6534 18.9238 18.6218C19.011 18.6003 19.0922 18.5595 19.1615 18.5023C19.3906 18.3202 19.3665 18.0446 19.1075 17.9102C19.0186 17.8679 18.9228 17.8422 18.8248 17.8342C18.6817 17.8208 18.5381 17.8153 18.3944 17.8177C13.5053 17.8177 8.61611 17.8096 3.72694 17.8255C2.99846 17.8277 2.3949 17.5959 1.85637 17.1341C1.25551 16.6202 0.782273 15.9994 0.370008 15.3291C0.359601 15.3073 0.351809 15.2843 0.346802 15.2607C0.35024 15.2499 0.354854 15.2394 0.360562 15.2296C0.365935 15.2228 0.373629 15.2183 0.382148 15.2169C7.4545 15.2115 14.5269 15.2066 21.5995 15.2023C21.6534 15.2023 21.7052 15.2128 21.7738 15.2201C21.8026 15.3354 21.832 15.4465 21.8582 15.5588C22.4124 17.9356 23.6532 19.8953 25.4615 21.5096C26.926 22.8166 28.6034 23.7799 30.3906 24.5662L30.7389 24.7166C30.6866 24.8518 30.6453 24.9757 30.59 25.0953C30.0066 26.346 29.0661 27.24 27.8361 27.8364C27.1948 28.1479 26.491 28.308 25.7785 28.3044C21.932 28.3033 18.0854 28.3033 14.2389 28.3044C13.5609 28.3074 12.8962 28.1159 12.3233 27.7523C11.55 27.27 10.9629 26.6127 10.5218 25.8197C10.4972 25.7739 10.4824 25.7234 10.4467 25.6363Z" fill="white"/>
<path d="M31.7406 45.1252H27.5381L27.2788 43.4752C27.1803 43.4695 27.0932 43.4603 27.0063 43.4603C25.6675 43.4603 24.329 43.4638 22.9905 43.4552C22.7984 43.4552 22.7037 43.5141 22.6327 43.6929C22.4439 44.1687 22.2329 44.6361 22.0246 45.1219H17.5043C19.812 40.4388 22.1127 35.7694 24.4065 31.1136H28.9068C29.8498 35.7775 30.7922 40.4365 31.7406 45.1252ZM26.8223 40.5471C26.5757 38.8451 26.3348 37.1816 26.0922 35.5184C26.089 35.497 26.0615 35.4791 26.0202 35.4296C25.7752 36.0109 25.5388 36.5703 25.3036 37.1302C25.0634 37.7026 24.8217 38.2739 24.5859 38.8481C24.356 39.4078 24.1027 39.9571 23.8876 40.5471H26.8223Z" fill="white"/>
<path d="M49.5088 45.1292H45.0073C45.05 45.0283 45.0802 44.9464 45.1185 44.8685C47.337 40.3563 49.5546 35.844 51.7711 31.3316C51.8445 31.1823 51.9127 31.0936 52.1057 31.0952C53.4547 31.1052 54.8016 31.1004 56.1495 31.1012C56.2194 31.1012 56.2893 31.1109 56.381 31.1177C57.3253 35.7851 58.2697 40.4542 59.214 45.1249H54.9834C54.9125 44.5839 54.8407 44.0353 54.7676 43.4749H50.2243C49.9901 44.0168 49.7516 44.5682 49.5088 45.1292ZM53.5591 35.4561L53.483 35.4537C52.7748 37.1386 52.0652 38.8227 51.3534 40.5427H54.2943C54.0475 38.8313 53.8033 37.1437 53.5591 35.4561Z" fill="white"/>
<path d="M42.0199 34.5529C41.5025 38.1004 40.9912 41.6049 40.4777 45.1235H36.0105C36.1614 43.9455 36.3524 42.7791 36.5232 41.6103C36.694 40.4415 36.8726 39.28 37.0453 38.1145C37.2193 36.9419 37.3903 35.769 37.5689 34.5543C37.2071 34.5518 36.8785 34.5489 36.5499 34.5478C36.2261 34.5478 35.9023 34.5478 35.5786 34.5478H33.5758C33.7844 33.3663 34.0169 32.2177 34.2414 31.0565H46.4998C46.2894 32.2326 46.0595 33.3814 45.8304 34.5532L42.0199 34.5529Z" fill="white"/>
<path d="M14.6571 45.1252H10.1008C11.0373 40.444 11.9698 35.7826 12.9039 31.1136H17.4342C17.2275 32.2898 16.9755 33.4448 16.7524 34.6046C16.5255 35.7791 16.2872 36.9514 16.0536 38.1246C15.8217 39.2891 15.5897 40.4534 15.3575 41.6174C15.1252 42.78 14.8929 43.9439 14.6571 45.1252Z" fill="white"/>
<path d="M27.171 19.2831C25.1944 17.2382 24.1438 14.8216 23.9603 11.9919H28.7238C28.8333 13.894 29.2537 15.722 30.0234 17.494C28.9919 17.9652 28.0541 18.5395 27.171 19.2831Z" fill="white"/>
<path d="M39.5137 17.4705C39.8822 16.5928 40.1909 15.7026 40.404 14.7815C40.6161 13.8684 40.7184 12.9403 40.7712 11.9919H45.5063C45.4767 13.0966 45.2608 14.1543 44.8936 15.1821C44.3405 16.7304 43.4801 18.0853 42.3232 19.2585C41.8645 18.9339 41.4293 18.602 40.9698 18.3096C40.5103 18.0172 40.0241 17.7621 39.5137 17.4705Z" fill="white"/>
<path d="M30.0031 5.6797C28.7941 9.06816 28.9972 9.00676 28.708 11.1136C28.5108 11.1631 24.3816 11.1799 23.9718 11.1282C24.0112 10.1217 24.2025 9.14228 24.5198 8.18717C25.0616 6.55556 25.9411 5.13195 27.1736 3.88904C28.027 4.61787 28.9797 5.22084 30.0031 5.6797Z" fill="white"/>
<path d="M39.5031 5.69066C40.524 5.19945 41.4497 4.61978 42.3053 3.8927C43.2283 4.81968 43.9665 5.8508 44.515 7.01743C45.1172 8.29733 45.4559 9.68586 45.5106 11.1C45.3109 11.1668 41.1227 11.1838 40.7709 11.1181C40.7188 10.1933 40.609 9.26685 40.3948 8.35583C40.1819 7.45347 39.8808 6.5795 39.5031 5.69066Z" fill="white"/>
<path d="M34.3397 12.0097V16.4279C33.7316 16.5104 33.1256 16.5648 32.532 16.6806C31.9452 16.7953 31.3718 16.9724 30.7858 17.1234C30.1979 16.2892 29.4727 13.1241 29.6213 12.0186C29.8169 11.9664 34.01 11.9548 34.3397 12.0097Z" fill="white"/>
<path d="M35.1888 11.9901H39.8551C40.0885 12.8327 39.3344 16.1828 38.6885 17.1476C37.5626 16.7457 36.3829 16.515 35.1888 16.4633V11.9901Z" fill="white"/>
<path d="M29.5975 11.1197C29.6323 9.32223 30.0381 7.62597 30.7723 5.97461C31.93 6.38414 33.1061 6.63732 34.3337 6.69033V11.1013C34.1551 11.1648 30.0397 11.1881 29.5975 11.1197Z" fill="white"/>
<path d="M39.9009 11.1403H35.1907V6.72774C35.7886 6.64037 36.3856 6.5787 36.9714 6.45996C37.5501 6.34256 38.117 6.16755 38.7281 6.00769C39.4501 7.61171 39.8858 9.30743 39.9009 11.1403Z" fill="white"/>
<path d="M35.9583 0.873901C38.11 1.17307 40.0035 1.95966 41.7022 3.32051C40.9235 4.00648 40.0852 4.5545 39.1155 4.96889C38.9693 4.72112 38.8295 4.47606 38.6814 4.2364C38.5303 3.99296 38.3763 3.74951 38.2133 3.51202C38.0503 3.27453 37.879 3.04407 37.702 2.81739C37.5307 2.59802 37.3513 2.3846 37.1686 2.17443C36.9797 1.95804 36.7806 1.75003 36.5845 1.53985C36.3883 1.32968 36.1935 1.12411 35.9583 0.873901Z" fill="white"/>
<path d="M39.1013 18.2119C40.0629 18.6155 40.9052 19.1489 41.7033 19.8295C40.0036 21.1849 38.0944 21.9664 35.9651 22.2536C37.2202 21.0837 38.2711 19.7608 39.1013 18.2119Z" fill="white"/>
<path d="M33.5013 22.2495C31.3912 21.9601 29.4845 21.1973 27.7858 19.8291C28.606 19.1983 29.4065 18.5895 30.3867 18.21C31.2056 19.7374 32.2524 21.0653 33.5013 22.2495Z" fill="white"/>
<path d="M34.3357 1.33411V5.88001C33.236 5.87731 32.208 5.60573 31.17 5.2522C31.955 3.74818 33.0312 2.41617 34.3357 1.33411Z" fill="white"/>
<path d="M34.3334 21.818C33.0192 20.7394 31.9421 19.3995 31.1699 17.8829C32.206 17.5213 33.2401 17.3149 34.3334 17.323V21.818Z" fill="white"/>
<path d="M38.2957 5.26195C37.2999 5.63333 36.2803 5.8692 35.217 5.88408C35.1557 5.65362 35.1325 2.19807 35.1819 1.40039C35.8375 1.62436 37.9115 4.18701 38.2957 5.26195Z" fill="white"/>
<path d="M35.1851 21.7966V17.325C36.2602 17.3126 37.2715 17.5569 38.2722 17.866C38.1176 18.6688 36.005 21.3551 35.1851 21.7966Z" fill="white"/>
</g>
<defs>
<clipPath id="clip0_3256_9133">
<rect width="68.7996" height="44.2956" fill="white" transform="translate(0.347168 0.833496)"/>
</clipPath>
</defs>
</svg>
