<svg width="20" height="20" viewBox="0 0 20 20" fill="none" xmlns="http://www.w3.org/2000/svg">
<g clip-path="url(#clip0_3256_9224)">
<path d="M14.9131 19.977H5.04652C4.98328 19.9658 4.92052 19.9507 4.85679 19.9439C4.31873 19.8884 3.79283 19.7692 3.30585 19.5391C1.19884 18.5446 0.0726085 16.8753 0.0463378 14.5434C0.00985068 11.5327 0.0361133 8.52112 0.0380593 5.50998C0.0380593 4.56709 0.243364 3.66798 0.723535 2.85401C1.79869 1.03098 3.40898 0.0978157 5.52378 0.0866255C8.49529 0.0710565 11.4668 0.078841 14.4383 0.0866255C14.8139 0.0802354 15.189 0.114491 15.5572 0.188796C17.7504 0.679219 19.1573 2.01767 19.7625 4.18273C19.8457 4.47854 19.8734 4.78992 19.9269 5.09448V14.9642C19.8948 15.1739 19.8754 15.3866 19.8296 15.5928C19.332 17.79 18.0004 19.2034 15.8302 19.8125C15.53 19.8957 15.2182 19.9215 14.9131 19.977ZM9.98251 15.4688C12.9725 15.4659 15.4205 13.0142 15.4176 10.0269C15.4147 7.03963 12.9637 4.58752 9.97812 4.59044C6.99251 4.59336 4.54009 7.04499 4.54301 10.0323C4.54592 13.0196 6.99592 15.4722 9.98251 15.4688ZM15.5407 5.87147C16.4135 5.87731 17.1437 5.15433 17.1554 4.27273C17.1666 3.40768 16.4383 2.67156 15.5563 2.65794C14.6927 2.64432 13.9508 3.38044 13.9426 4.25717C13.9343 5.13389 14.6626 5.86564 15.5407 5.87147Z" fill="white"/>
<path d="M14.2514 10.0281C14.2514 12.3771 12.3244 14.3057 9.97653 14.3023C7.62871 14.2989 5.70025 12.3673 5.70803 10.0208C5.71391 8.89137 6.16526 7.80988 6.96399 7.01137C7.76271 6.21287 8.84426 5.76186 9.97361 5.75636C12.32 5.75052 14.2499 7.67719 14.2514 10.0281Z" fill="white"/>
<path d="M15.5549 3.82727C15.6417 3.82875 15.7261 3.85599 15.7974 3.90553C15.8686 3.95507 15.9236 4.02468 15.9552 4.10552C15.9868 4.18635 15.9937 4.27476 15.975 4.35952C15.9563 4.44428 15.9128 4.52156 15.8501 4.58155C15.7873 4.64154 15.7082 4.68153 15.6227 4.69645C15.5372 4.71136 15.4492 4.70053 15.3699 4.66532C15.2905 4.63011 15.2234 4.57211 15.1771 4.49869C15.1308 4.42528 15.1074 4.33975 15.1098 4.25298C15.1157 4.13865 15.1651 4.0309 15.2479 3.95177C15.3306 3.87264 15.4404 3.82811 15.5549 3.82727Z" fill="white"/>
</g>
<defs>
<clipPath id="clip0_3256_9224">
<rect width="19.8991" height="19.8991" fill="white" transform="translate(0.0246582 0.0776367)"/>
</clipPath>
</defs>
</svg>
