<svg width="41" height="41" viewBox="0 0 41 41" fill="none" xmlns="http://www.w3.org/2000/svg">
<g clip-path="url(#clip0_411_8984)">
<path fill-rule="evenodd" clip-rule="evenodd" d="M35.875 38.4375C36.5546 38.4375 37.2064 38.1675 37.687 37.687C38.1675 37.2064 38.4375 36.5546 38.4375 35.875L38.4375 5.125C38.4375 4.44538 38.1675 3.7936 37.687 3.31304C37.2064 2.83248 36.5546 2.5625 35.875 2.5625L5.125 2.5625C4.44538 2.5625 3.7936 2.83248 3.31304 3.31304C2.83248 3.7936 2.5625 4.44538 2.5625 5.125L2.5625 35.875C2.5625 36.5546 2.83248 37.2064 3.31304 37.687C3.7936 38.1675 4.44538 38.4375 5.125 38.4375L35.875 38.4375ZM35.875 -2.24021e-07C37.2342 -1.64607e-07 38.5378 0.539954 39.4989 1.50108C40.46 2.4622 41 3.76577 41 5.125L41 35.875C41 37.2342 40.46 38.5378 39.4989 39.4989C38.5378 40.46 37.2342 41 35.875 41L5.125 41C3.76576 41 2.4622 40.46 1.50108 39.4989C0.539953 38.5378 -1.62756e-06 37.2342 -1.56815e-06 35.875L-2.24021e-07 5.125C-1.64607e-07 3.76576 0.539955 2.4622 1.50108 1.50108C2.4622 0.539952 3.76577 -1.62756e-06 5.125 -1.56815e-06L35.875 -2.24021e-07ZM29.4687 21.7812C29.8086 21.7812 30.1344 21.6463 30.3747 21.406C30.615 21.1657 30.75 20.8398 30.75 20.5C30.75 20.1602 30.615 19.8343 30.3747 19.594C30.1344 19.3537 29.8086 19.2187 29.4687 19.2187L14.6242 19.2187L20.1259 13.7196C20.3665 13.479 20.5016 13.1527 20.5016 12.8125C20.5016 12.4723 20.3665 12.146 20.1259 11.9054C19.8853 11.6648 19.559 11.5296 19.2187 11.5296C18.8785 11.5296 18.5522 11.6648 18.3116 11.9054L10.6241 19.5929C10.5048 19.7119 10.4101 19.8533 10.3455 20.0089C10.281 20.1646 10.2477 20.3315 10.2477 20.5C10.2477 20.6685 10.281 20.8354 10.3455 20.9911C10.4101 21.1467 10.5048 21.2881 10.6241 21.4071L18.3116 29.0946C18.5522 29.3352 18.8785 29.4704 19.2187 29.4704C19.559 29.4704 19.8853 29.3352 20.1259 29.0946C20.3665 28.854 20.5016 28.5277 20.5016 28.1875C20.5016 27.8473 20.3665 27.521 20.1259 27.2804L14.6242 21.7812L29.4687 21.7812Z" fill="white"/>
</g>
<defs>
<clipPath id="clip0_411_8984">
<rect width="41" height="41" fill="white" transform="translate(41) rotate(90)"/>
</clipPath>
</defs>
</svg>
