<svg width="88" height="88" viewBox="0 0 88 88" fill="none" xmlns="http://www.w3.org/2000/svg">
<path d="M34.7528 44.3958H25.0293C24.0259 44.3971 23.064 44.7962 22.3545 45.5057C21.645 46.2152 21.2459 47.1771 21.2446 48.1805V72.0613C21.2459 73.0646 21.6451 74.0265 22.3546 74.7358C23.0641 75.4452 24.026 75.8442 25.0293 75.8453H34.7528C35.7561 75.8442 36.7179 75.4452 37.4273 74.7358C38.1367 74.0264 38.5357 73.0646 38.5368 72.0613V48.1805C38.5357 47.1772 38.1367 46.2153 37.4273 45.5058C36.7179 44.7962 35.7561 44.3971 34.7528 44.3958ZM36.1401 72.06C36.1398 72.4278 35.9935 72.7805 35.7334 73.0405C35.4733 73.3006 35.1206 73.4469 34.7528 73.4473H25.0293C24.6614 73.4469 24.3087 73.3007 24.0485 73.0406C23.7883 72.7805 23.6418 72.4279 23.6413 72.06V48.1805C23.6416 47.8125 23.788 47.4596 24.0482 47.1994C24.3084 46.9392 24.6613 46.7928 25.0293 46.7925H34.7528C35.1207 46.793 35.4734 46.9394 35.7334 47.1996C35.9935 47.4598 36.1398 47.8126 36.1401 48.1805V72.06Z" fill="#07689F"/>
<path d="M59.8634 46.1883H51.341C52.0649 44.0101 52.4559 41.735 52.5009 39.4401C52.5845 37.1564 51.6525 34.8186 50.181 33.6196C49.7995 33.2857 49.3444 33.0466 48.853 32.9219C48.3615 32.7972 47.8475 32.7904 47.3529 32.902C46.8522 33.0343 46.3947 33.2952 46.0259 33.6589C45.6571 34.0227 45.3899 34.4765 45.2507 34.9754L44.6228 37.1393C43.7391 40.1963 42.2299 43.0364 40.1911 45.4796L36.4934 49.9216C36.3152 50.1374 36.2183 50.4087 36.2195 50.6885V70.7471C36.2194 70.9975 36.2977 71.2415 36.4435 71.4451C36.5893 71.6486 36.7952 71.8013 37.0323 71.8817L41.3189 73.3375C41.9686 73.5581 42.6501 73.6705 43.3362 73.6703H58.1803C59.3221 73.6793 60.4234 73.2475 61.2548 72.4648C62.0862 71.6821 62.5836 70.6089 62.6436 69.4687C62.6781 68.4609 62.3569 67.473 61.7363 66.6783C62.2586 66.3334 62.6999 65.8793 63.0299 65.3475C63.3598 64.8156 63.5706 64.2185 63.6476 63.5973C63.7246 62.9762 63.666 62.3457 63.4759 61.7493C63.2858 61.153 62.9686 60.605 62.5463 60.143C63.0221 59.773 63.4144 59.3066 63.6972 58.7744C63.9801 58.2422 64.1472 57.6561 64.1876 57.0548C64.228 56.4534 64.1408 55.8503 63.9317 55.285C63.7226 54.7197 63.3963 54.205 62.9743 53.7747C62.9346 53.7343 62.8949 53.6939 62.8538 53.6556C63.2787 53.2517 63.617 52.7655 63.8481 52.2267C64.0792 51.6879 64.1982 51.1077 64.198 50.5215C64.1963 49.3725 63.7391 48.2711 62.9265 47.4588C62.114 46.6465 61.0124 46.1896 59.8634 46.1883ZM59.8634 54.8573C60.123 54.8574 60.3798 54.9096 60.6188 55.0108C60.8578 55.112 61.074 55.2602 61.2546 55.4465C61.4352 55.6329 61.5765 55.8536 61.6702 56.0957C61.7639 56.3377 61.808 56.5961 61.7999 56.8555C61.7626 57.3743 61.5268 57.8589 61.1416 58.2085C60.7564 58.5582 60.2514 58.746 59.7313 58.7331H59.3458C59.028 58.7331 58.7232 58.8593 58.4984 59.084C58.2737 59.3088 58.1474 59.6136 58.1474 59.9314C58.1474 60.2492 58.2737 60.554 58.4984 60.7787C58.7232 61.0035 59.028 61.1297 59.3458 61.1297C59.8597 61.1297 60.3526 61.3339 60.716 61.6973C61.0795 62.0607 61.2836 62.5536 61.2836 63.0676C61.2836 63.5815 61.0795 64.0744 60.716 64.4378C60.3526 64.8013 59.8597 65.0054 59.3458 65.0054H58.3111C57.9933 65.0054 57.6885 65.1317 57.4638 65.3564C57.239 65.5811 57.1128 65.8859 57.1128 66.2037C57.1128 66.5216 57.239 66.8264 57.4638 67.0511C57.6885 67.2758 57.9933 67.4021 58.3111 67.4021C58.5707 67.4019 58.8277 67.454 59.0668 67.5551C59.3059 67.6563 59.5222 67.8044 59.7029 67.9908C59.8836 68.1772 60.025 68.398 60.1187 68.6401C60.2124 68.8822 60.2564 69.1407 60.2483 69.4002C60.2111 69.9189 59.9755 70.4034 59.5904 70.753C59.2052 71.1025 58.7002 71.2902 58.1803 71.2771H43.3327C42.9086 71.2776 42.4873 71.2082 42.0858 71.0717L38.6127 69.8925V51.1247L42.0331 47.0162C44.2837 44.3199 45.9494 41.1852 46.9243 37.811L47.5522 35.6479C47.5753 35.5527 47.6219 35.4647 47.6876 35.3921C47.7534 35.3195 47.8363 35.2646 47.9288 35.2322C48.0117 35.2117 48.2609 35.1494 48.669 35.4828C49.1643 35.9925 49.548 36.5997 49.7955 37.2658C50.0431 37.9319 50.1492 38.6423 50.107 39.3517C50.0716 41.4684 49.7042 43.5665 49.0183 45.5693L48.5068 46.9778C48.4409 47.1588 48.4197 47.3529 48.4449 47.5438C48.47 47.7347 48.5408 47.9167 48.6513 48.0744C48.7618 48.2321 48.9086 48.3609 49.0794 48.4498C49.2502 48.5386 49.44 48.585 49.6325 48.585H59.8634C60.3774 48.585 60.8703 48.7891 61.2337 49.1526C61.5971 49.516 61.8013 50.0089 61.8013 50.5228C61.8013 51.0368 61.5971 51.5297 61.2337 51.8931C60.8703 52.2565 60.3774 52.4607 59.8634 52.4607C59.5456 52.4607 59.2408 52.5869 59.0161 52.8117C58.7914 53.0364 58.6651 53.3412 58.6651 53.659C58.6651 53.9768 58.7914 54.2816 59.0161 54.5064C59.2408 54.7311 59.5456 54.8573 59.8634 54.8573Z" fill="#07689F"/>
<path d="M29.4792 21.1256L24.9112 20.4614L22.8706 16.322C22.7716 16.1216 22.6186 15.9529 22.4287 15.8349C22.2389 15.717 22.0198 15.6544 21.7963 15.6544C21.5727 15.6544 21.3537 15.717 21.1638 15.8349C20.974 15.9529 20.8209 16.1216 20.7219 16.322L18.6786 20.4614L14.1112 21.1256C13.8899 21.1576 13.682 21.2509 13.511 21.3949C13.34 21.539 13.2127 21.728 13.1436 21.9407C13.0745 22.1533 13.0663 22.3811 13.1199 22.5981C13.1735 22.8152 13.2868 23.0129 13.447 23.1689L16.753 26.3914L15.9724 30.9409C15.9346 31.1613 15.9592 31.3878 16.0434 31.595C16.1277 31.8021 16.2682 31.9815 16.449 32.113C16.6299 32.2444 16.844 32.3226 17.067 32.3387C17.29 32.3549 17.5131 32.3083 17.711 32.2043L21.7963 30.0562L25.8822 32.2043C26.0801 32.3083 26.3032 32.3549 26.5262 32.3387C26.7492 32.3226 26.9633 32.2444 27.1442 32.113C27.3251 31.9815 27.4656 31.8021 27.5498 31.595C27.634 31.3878 27.6586 31.1613 27.6208 30.9409L26.8402 26.3914L30.1462 23.1689C30.3061 23.0128 30.4192 22.8151 30.4727 22.5981C30.5261 22.3811 30.5178 22.1535 30.4488 21.9409C30.3797 21.7284 30.2525 21.5394 30.0817 21.3953C29.9108 21.2513 29.7031 21.1578 29.482 21.1256H29.4792ZM24.714 25.115C24.5752 25.2508 24.4716 25.4183 24.4119 25.6031C24.3523 25.7879 24.3384 25.9844 24.3716 26.1757L24.851 28.9531L22.3571 27.6411C22.1851 27.5507 21.9937 27.5034 21.7993 27.5034C21.605 27.5034 21.4136 27.5507 21.2416 27.6411L18.7422 28.9531L19.2216 26.1757C19.255 25.9844 19.2413 25.7878 19.1816 25.603C19.122 25.4182 19.0182 25.2507 18.8792 25.115L16.8612 23.1477L19.6495 22.7423C19.8419 22.7146 20.0246 22.6405 20.1818 22.5263C20.3391 22.4121 20.4662 22.2613 20.5521 22.087L21.799 19.5602L23.0459 22.087C23.1318 22.2613 23.2589 22.4121 23.4161 22.5263C23.5734 22.6405 23.7561 22.7146 23.9484 22.7423L26.7368 23.1477L24.714 25.115Z" fill="#F9C22D"/>
<path d="M52.4403 17.969L47.2293 17.2116L44.9012 12.4868C44.8024 12.2862 44.6493 12.1172 44.4595 11.9991C44.2696 11.881 44.0504 11.8184 43.8268 11.8184C43.6032 11.8184 43.384 11.881 43.1941 11.9991C43.0042 12.1172 42.8512 12.2862 42.7524 12.4868L40.4242 17.2116L35.2132 17.969C34.9921 18.0012 34.7844 18.0946 34.6135 18.2387C34.4427 18.3828 34.3155 18.5718 34.2464 18.7843C34.1774 18.9968 34.1691 19.2245 34.2225 19.4415C34.276 19.6585 34.3891 19.8562 34.549 20.0123L38.32 23.6887L37.4298 28.8785C37.392 29.0989 37.4166 29.3254 37.5008 29.5326C37.585 29.7397 37.7255 29.9191 37.9064 30.0506C38.0873 30.182 38.3014 30.2602 38.5244 30.2764C38.7474 30.2925 38.9705 30.2459 39.1684 30.1419L43.824 27.6918L48.4852 30.1419C48.6831 30.2459 48.9062 30.2925 49.1292 30.2764C49.3522 30.2602 49.5663 30.182 49.7472 30.0506C49.928 29.9191 50.0685 29.7397 50.1528 29.5326C50.237 29.3254 50.2616 29.0989 50.2238 28.8785L49.3336 23.6887L53.1046 20.0123C53.2645 19.8562 53.3776 19.6585 53.431 19.4415C53.4845 19.2245 53.4762 18.9968 53.4071 18.7843C53.338 18.5718 53.2109 18.3828 53.0401 18.2387C52.8692 18.0946 52.6615 18.0012 52.4403 17.969ZM47.2095 22.4123C47.0709 22.5483 46.9673 22.7158 46.9076 22.9005C46.848 23.0853 46.8341 23.2817 46.8671 23.473L47.4533 26.8907L44.3814 25.2767C44.2096 25.1863 44.0183 25.1391 43.824 25.1391C43.6298 25.1391 43.4385 25.1863 43.2667 25.2767L40.1948 26.8907L40.781 23.473C40.814 23.2817 40.8001 23.0853 40.7405 22.9005C40.6808 22.7158 40.5772 22.5483 40.4386 22.4123L37.9557 19.9917L41.387 19.4925C41.5793 19.4648 41.762 19.3907 41.9193 19.2765C42.0765 19.1623 42.2036 19.0116 42.2895 18.8372L43.824 15.7271L45.3586 18.84C45.4445 19.0143 45.5715 19.1651 45.7288 19.2792C45.8861 19.3934 46.0687 19.4676 46.2611 19.4953L49.6924 19.9945L47.2095 22.4123Z" fill="#F9C22D"/>
<path d="M73.5425 21.1256L68.9752 20.4614L66.9319 16.322C66.8329 16.1216 66.6798 15.9529 66.4899 15.8349C66.3001 15.717 66.081 15.6544 65.8575 15.6544C65.634 15.6544 65.4149 15.717 65.225 15.8349C65.0352 15.9529 64.8821 16.1216 64.7831 16.322L62.7371 20.4614L58.169 21.1256C57.9479 21.1578 57.7402 21.2513 57.5693 21.3953C57.3985 21.5394 57.2713 21.7284 57.2023 21.9409C57.1332 22.1535 57.1249 22.3811 57.1784 22.5981C57.2318 22.8151 57.3449 23.0128 57.5048 23.1689L60.8108 26.3914L60.0302 30.9409C59.9924 31.1613 60.017 31.3878 60.1012 31.595C60.1855 31.8021 60.326 31.9815 60.5068 32.113C60.6877 32.2444 60.9018 32.3226 61.1248 32.3387C61.3478 32.3549 61.5709 32.3083 61.7688 32.2043L65.8547 30.0562L69.94 32.2043C70.1379 32.3083 70.361 32.3549 70.584 32.3387C70.807 32.3226 71.0211 32.2444 71.202 32.113C71.3829 31.9815 71.5234 31.8021 71.6076 31.595C71.6918 31.3878 71.7164 31.1613 71.6786 30.9409L70.898 26.3914L74.204 23.1689C74.3642 23.0129 74.4775 22.8152 74.5311 22.5981C74.5847 22.3811 74.5765 22.1533 74.5074 21.9407C74.4383 21.728 74.311 21.539 74.14 21.3949C73.969 21.2509 73.7611 21.1576 73.5398 21.1256H73.5425ZM68.7773 25.115C68.6383 25.2507 68.5345 25.4182 68.4749 25.603C68.4152 25.7878 68.4015 25.9844 68.4349 26.1757L68.9142 28.9531L66.4204 27.6411C66.2482 27.551 66.0569 27.504 65.8626 27.504C65.6684 27.504 65.477 27.551 65.3049 27.6411L62.8028 28.9531L63.2821 26.1757C63.3153 25.9844 63.3015 25.7879 63.2418 25.6031C63.1822 25.4183 63.0785 25.2508 62.9397 25.115L60.9225 23.1477L63.7108 22.7423C63.9031 22.7146 64.0858 22.6405 64.2431 22.5263C64.4003 22.4121 64.5274 22.2613 64.6133 22.087L65.8602 19.5602L67.1072 22.087C67.1931 22.2613 67.3201 22.4121 67.4774 22.5263C67.6346 22.6405 67.8173 22.7146 68.0097 22.7423L70.798 23.1477L68.7773 25.115Z" fill="#F9C22D"/>
</svg>
