<svg width="24" height="24" viewBox="0 0 24 24" fill="none" xmlns="http://www.w3.org/2000/svg">
<path d="M3.98755 17.2308L4.67986 17.5192L3.98755 17.2308ZM3.15422 19.2308L3.84652 19.5192L3.15422 19.2308ZM20.8465 19.2308L20.1542 19.5192L20.8465 19.2308ZM20.0132 17.2308L20.7055 16.9423V16.9423L20.0132 17.2308ZM16.0004 15.25C15.5862 15.25 15.2504 15.5858 15.2504 16C15.2504 16.4142 15.5862 16.75 16.0004 16.75V15.25ZM8.00037 16.75C8.41458 16.75 8.75037 16.4142 8.75037 16C8.75037 15.5858 8.41458 15.25 8.00037 15.25V16.75ZM18.2504 9.11111C18.2504 10.8311 17.2715 12.8886 15.9052 14.5523C15.2311 15.373 14.4903 16.0632 13.7817 16.5419C13.057 17.0316 12.4408 17.25 12.0004 17.25V18.75C12.8724 18.75 13.7875 18.3483 14.6214 17.7849C15.4714 17.2106 16.3165 16.4149 17.0643 15.5043C18.5417 13.7054 19.7504 11.3185 19.7504 9.11111H18.2504ZM12.0004 17.25C11.5599 17.25 10.9438 17.0316 10.2191 16.5419C9.51048 16.0632 8.76959 15.373 8.09558 14.5523C6.72923 12.8886 5.75037 10.8311 5.75037 9.11111H4.25037C4.25037 11.3185 5.45901 13.7054 6.93641 15.5043C7.68427 16.4149 8.52932 17.2106 9.37933 17.7849C10.2132 18.3483 11.1283 18.75 12.0004 18.75V17.25ZM5.75037 9.11111C5.75037 5.58679 8.55968 2.75 12.0004 2.75V1.25C7.70907 1.25 4.25037 4.78072 4.25037 9.11111H5.75037ZM12.0004 2.75C15.4411 2.75 18.2504 5.58679 18.2504 9.11111H19.7504C19.7504 4.78072 16.2917 1.25 12.0004 1.25V2.75ZM13.7504 9C13.7504 9.9665 12.9669 10.75 12.0004 10.75V12.25C13.7953 12.25 15.2504 10.7949 15.2504 9H13.7504ZM12.0004 10.75C11.0339 10.75 10.2504 9.9665 10.2504 9H8.75037C8.75037 10.7949 10.2054 12.25 12.0004 12.25V10.75ZM10.2504 9C10.2504 8.0335 11.0339 7.25 12.0004 7.25V5.75C10.2054 5.75 8.75037 7.20507 8.75037 9H10.2504ZM12.0004 7.25C12.9669 7.25 13.7504 8.0335 13.7504 9H15.2504C15.2504 7.20507 13.7953 5.75 12.0004 5.75V7.25ZM3.29524 16.9423L2.46191 18.9423L3.84652 19.5192L4.67986 17.5192L3.29524 16.9423ZM5.00037 22.75H19.0004V21.25H5.00037V22.75ZM21.5388 18.9423L20.7055 16.9423L19.3209 17.5192L20.1542 19.5192L21.5388 18.9423ZM18.167 15.25H16.0004V16.75H18.167V15.25ZM5.8337 16.75H8.00037V15.25H5.8337V16.75ZM20.7055 16.9423C20.2785 15.9175 19.2772 15.25 18.167 15.25V16.75C18.6717 16.75 19.1268 17.0534 19.3209 17.5192L20.7055 16.9423ZM19.0004 22.75C20.9627 22.75 22.2936 20.7537 21.5388 18.9423L20.1542 19.5192C20.4973 20.3426 19.8923 21.25 19.0004 21.25V22.75ZM2.46191 18.9423C1.70716 20.7537 3.03803 22.75 5.00037 22.75V21.25C4.1084 21.25 3.50346 20.3426 3.84652 19.5192L2.46191 18.9423ZM4.67986 17.5192C4.87394 17.0534 5.32908 16.75 5.8337 16.75V15.25C4.72353 15.25 3.72223 15.9175 3.29524 16.9423L4.67986 17.5192Z" fill="#07689F"/>
</svg>
