<svg width="200" height="37" viewBox="0 0 185 37" fill="none" xmlns="http://www.w3.org/2000/svg">
<g clip-path="url(#clip0_411_8868)">
<path d="M177.001 28.3459C174.81 30.5698 172.601 32.7752 170.388 34.9761C169.934 35.4561 169.462 35.9314 168.95 36.3573C168.66 36.5968 168.343 36.7971 168.007 36.9501H155.76C157.9 34.808 172.289 20.484 174.43 18.3477C174.988 18.9093 175.832 19.7565 176.843 20.7845C178.712 22.6815 179.106 26.191 177.001 28.3459Z" fill="url(#paint0_linear_411_8868)"/>
<path d="M184.584 19.8496C184.39 20.4021 184.099 20.9178 183.723 21.3622C181.519 23.7218 179.269 26.0447 177.002 28.3445C179.106 26.1886 178.712 22.679 176.843 20.782C175.831 19.754 174.988 18.9069 174.43 18.3452C174.43 18.3452 174.43 18.3452 174.43 18.3405C172.284 16.2168 158.349 2.25083 156.212 0.113281H168.007C168.156 0.195008 168.306 0.293999 168.447 0.398747C168.76 0.634718 169.068 0.88335 169.354 1.155C174.031 5.85139 178.725 10.5339 183.42 15.2073C183.905 15.6827 184.281 16.2629 184.536 16.8925C184.916 17.8341 184.925 18.8943 184.584 19.8496Z" fill="#52D4BD"/>
<path fill-rule="evenodd" clip-rule="evenodd" d="M137.087 2.65625C141.697 2.70216 146.268 4.39505 149.449 7.80953C154.94 13.4253 154.929 23.3222 149.527 28.9988C146.266 32.5235 141.514 34.2427 136.766 34.2153C132.014 34.2427 127.262 32.5235 124.005 28.9988C118.603 23.3222 118.59 13.4242 124.083 7.80953C127.258 4.39505 131.833 2.7033 136.444 2.65625H137.087ZM142.778 25.963C144.857 24.1853 146.162 21.6178 146.284 18.8908C146.37 16.9098 145.911 14.9059 144.902 13.205L144.886 13.2211C143.529 11.4169 141.792 9.76759 139.546 9.1891C138.711 8.93545 137.844 8.80231 136.978 8.77476C136.955 8.77476 136.931 8.77438 136.907 8.77401C136.86 8.77324 136.812 8.77247 136.766 8.77476C136.719 8.77247 136.672 8.77324 136.624 8.77401C136.6 8.77438 136.577 8.77476 136.554 8.77476C135.683 8.80231 134.817 8.93545 133.985 9.1891C131.738 9.76639 129.999 11.4157 128.645 13.2211C128.642 13.2189 128.639 13.216 128.636 13.2132C128.633 13.21 128.63 13.2068 128.626 13.205C126.791 16.2924 126.775 20.3944 128.551 23.5208L128.564 23.5364C129.437 24.6411 130.324 25.7636 131.518 26.5415C133.063 27.5492 134.91 28.0497 136.764 28.0611C138.615 28.0497 140.466 27.5492 142.01 26.5415C142.281 26.366 142.535 26.1697 142.778 25.963Z" fill="#1C1C1C"/>
<path fill-rule="evenodd" clip-rule="evenodd" d="M17.1682 2.65625C21.7782 2.70216 26.3501 4.39505 29.5297 7.80953C35.0218 13.4253 35.0103 23.3222 29.608 28.9988C26.3466 32.5235 21.595 34.2427 16.8469 34.2153C12.0953 34.2427 7.3437 32.5235 4.08576 28.9988C-1.31651 23.3222 -1.32917 13.4242 4.16407 7.80953C7.3391 4.39505 11.9145 2.7033 16.5256 2.65625H17.1682ZM22.8595 25.963C24.9382 24.1853 26.2429 21.6178 26.365 18.8908C26.4514 16.9098 25.9931 14.9059 24.9831 13.205L24.967 13.2211C23.6104 11.4169 21.8737 9.76759 19.6269 9.1891C18.792 8.93545 17.9248 8.80231 17.0588 8.77476C17.0354 8.77476 17.0119 8.77438 16.9884 8.77401C16.9411 8.77324 16.8938 8.77247 16.8469 8.77476C16.8 8.77247 16.7526 8.77324 16.7055 8.77401C16.6819 8.77438 16.6584 8.77476 16.635 8.77476C15.7644 8.80231 14.8984 8.93545 14.0669 9.1891C11.8201 9.76639 10.08 11.4157 8.7268 13.2211C8.72303 13.2189 8.72027 13.216 8.71757 13.2132C8.7145 13.21 8.71151 13.2068 8.70722 13.205C6.87154 16.2924 6.85656 20.3944 8.63237 23.5208L8.64472 23.5364C9.51829 24.6411 10.4057 25.7636 11.6001 26.5415C13.1444 27.5492 14.9916 28.0497 16.8458 28.0611C18.6964 28.0497 20.5471 27.5492 22.0914 26.5415C22.362 26.366 22.6165 26.1697 22.8595 25.963Z" fill="#1C1C1C"/>
<path d="M38.6824 33.7282C38.6583 23.556 38.6295 13.3825 38.6917 3.21484C45.7615 3.26305 52.837 3.21943 59.9079 3.23435C59.9079 3.25615 59.9079 3.27911 59.9079 3.30092C59.9079 6.40322 57.3835 8.91329 54.2707 8.91673C51.4562 8.91902 48.6405 8.92936 45.8259 8.89722C45.8455 11.5588 45.8168 14.2261 45.8409 16.8876C50.5269 16.9118 55.2174 16.8968 59.909 16.9026V16.9829C59.909 20.0795 57.394 22.5907 54.2869 22.5976C51.4757 22.6033 48.6659 22.6103 45.8559 22.5609C45.8248 24.4087 45.8271 26.2554 45.8294 28.1032C45.8329 31.1929 43.3281 33.7041 40.2279 33.7202C39.7121 33.7202 39.1972 33.7237 38.6824 33.7282Z" fill="#1C1C1C"/>
<path d="M66.4492 33.7289C66.4838 23.5612 66.4297 13.3878 66.4781 3.22012C73.5536 3.23963 80.6338 3.25455 87.7128 3.21094C87.7116 3.258 87.7116 3.30506 87.7116 3.35211C87.6794 6.4326 85.1919 8.93694 82.101 8.93808C79.268 8.93923 76.4326 8.8784 73.602 8.9071C73.6308 11.5641 73.6262 14.2257 73.617 16.8826C78.3179 16.9113 83.0176 16.9113 87.7232 16.8826C87.722 16.9389 87.722 16.994 87.7209 17.0502C87.6759 20.1238 85.1793 22.604 82.0952 22.6029C79.2715 22.6029 76.4476 22.5777 73.6262 22.5983C73.5951 24.4186 73.6239 26.2412 73.6377 28.0637C73.6596 31.1776 71.1318 33.7221 68.0074 33.7163C67.488 33.714 66.9686 33.7163 66.4492 33.7289Z" fill="#1C1C1C"/>
<path d="M97.1566 3.22563C103.944 3.24055 111.643 3.2417 117.692 3.21875V3.27614C117.715 6.38417 115.194 8.91491 112.075 8.9172C110.676 8.91835 109.277 8.9195 107.877 8.9195C107.844 15.3146 107.874 21.712 107.864 28.1083C107.86 31.1923 105.364 33.6988 102.27 33.7183C101.748 33.7219 101.227 33.7264 100.705 33.731C100.661 25.4501 100.745 17.1705 100.661 8.88966C98.5247 8.92867 93.6435 8.92408 91.5117 8.90458L91.5128 8.78407C91.544 5.70013 94.0625 3.21875 97.1566 3.22563Z" fill="#1C1C1C"/>
</g>
<defs>
<linearGradient id="paint0_linear_411_8868" x1="167.393" y1="14.8273" x2="153.902" y2="33.9348" gradientUnits="userSpaceOnUse">
<stop stop-color="#267567"/>
<stop offset="0.0703653" stop-color="#329281"/>
<stop offset="0.1482" stop-color="#48B8A4"/>
<stop offset="0.250633" stop-color="#4DCCB5"/>
<stop offset="0.34412" stop-color="#52D4BD"/>
<stop offset="0.534338" stop-color="#52D4BD"/>
<stop offset="1" stop-color="#52D4BD"/>
</linearGradient>
<clipPath id="clip0_411_8868">
<rect width="185" height="37" fill="white"/>
</clipPath>
</defs>
</svg>
