<svg width="30" height="30" viewBox="0 0 30 30" fill="none" xmlns="http://www.w3.org/2000/svg">
<path d="M27.5 7.49375C27.5 6.80625 26.9425 6.25 26.2563 6.25H16.2437C15.9139 6.25 15.5975 6.38104 15.3643 6.61429C15.131 6.84753 15 7.16389 15 7.49375C15 7.82361 15.131 8.13997 15.3643 8.37321C15.5975 8.60646 15.9139 8.7375 16.2437 8.7375H26.2563C26.5861 8.7375 26.9025 8.60646 27.1357 8.37321C27.369 8.13997 27.5 7.82361 27.5 7.49375ZM27.5 15C27.5 14.3125 26.9425 13.7563 26.2563 13.7563H3.74375C3.41389 13.7563 3.09754 13.8873 2.86429 14.1205C2.63104 14.3538 2.5 14.6701 2.5 15C2.5 15.3299 2.63104 15.6462 2.86429 15.8795C3.09754 16.1127 3.41389 16.2437 3.74375 16.2437H26.2563C26.5861 16.2437 26.9025 16.1127 27.1357 15.8795C27.369 15.6462 27.5 15.3299 27.5 15ZM26.2563 21.2625C26.5861 21.2625 26.9025 21.3935 27.1357 21.6268C27.369 21.86 27.5 22.1764 27.5 22.5062C27.5 22.8361 27.369 23.1525 27.1357 23.3857C26.9025 23.619 26.5861 23.75 26.2563 23.75H11.2437C10.9139 23.75 10.5975 23.619 10.3643 23.3857C10.131 23.1525 10 22.8361 10 22.5062C10 22.1764 10.131 21.86 10.3643 21.6268C10.5975 21.3935 10.9139 21.2625 11.2437 21.2625H26.2563Z" fill="#4DCCB5"/>
</svg>
