<svg width="19" height="25" viewBox="0 0 19 25" fill="none" xmlns="http://www.w3.org/2000/svg">
<path d="M13.8821 18.451C12.4506 19.9044 11.0069 21.3458 9.56026 22.7842C9.26403 23.0979 8.95511 23.4086 8.6208 23.6869C8.43097 23.8434 8.22361 23.9743 8.00416 24.0744H0C1.39892 22.6744 10.8026 13.3128 12.2021 11.9165C12.5667 12.2836 13.1186 12.8373 13.7794 13.5091C15.0006 14.7489 15.2581 17.0426 13.8821 18.451Z" fill="url(#paint0_linear_502_582)"/>
<path d="M18.8391 12.8989C18.7121 13.26 18.5217 13.597 18.2762 13.8874C16.8356 15.4296 15.3654 16.9478 13.8836 18.4509C15.2584 17.0418 15.0008 14.7481 13.7797 13.5083C13.1183 12.8364 12.5669 12.2828 12.2024 11.9157C12.2024 11.9157 12.2024 11.9157 12.2024 11.9126C10.7998 10.5247 1.6924 1.39702 0.295898 0H8.00444C8.10237 0.0534133 8.20031 0.11811 8.2922 0.18657C8.49653 0.340791 8.69845 0.503288 8.88526 0.680828C11.9418 3.75021 15.0099 6.81053 18.078 9.86487C18.3953 10.1756 18.6408 10.5548 18.8076 10.9662C19.0561 11.5817 19.0615 12.2745 18.8391 12.8989Z" fill="#52D4BD"/>
<defs>
<linearGradient id="paint0_linear_502_582" x1="7.60275" y1="9.61573" x2="-1.21393" y2="22.1037" gradientUnits="userSpaceOnUse">
<stop stop-color="#267567"/>
<stop offset="0.0703653" stop-color="#329281"/>
<stop offset="0.1482" stop-color="#48B8A4"/>
<stop offset="0.250633" stop-color="#4DCCB5"/>
<stop offset="0.34412" stop-color="#52D4BD"/>
<stop offset="0.534338" stop-color="#52D4BD"/>
<stop offset="1" stop-color="#52D4BD"/>
</linearGradient>
</defs>
</svg>
