<svg width="15" height="14" viewBox="0 0 15 14" fill="none" xmlns="http://www.w3.org/2000/svg">
<path d="M7.49729 0.811458C7.36235 0.396181 6.77485 0.39618 6.63991 0.811458L5.62303 3.94112C5.42881 4.53886 4.87178 4.94356 4.24328 4.94356H0.952561C0.515914 4.94356 0.334363 5.50231 0.68762 5.75897L3.34987 7.69321C3.85834 8.06263 4.0711 8.71745 3.87688 9.31519L2.85999 12.4449C2.72506 12.8601 3.20037 13.2055 3.55362 12.9488L6.21587 11.0146C6.72434 10.6451 7.41286 10.6451 7.92133 11.0146L10.5836 12.9488C10.9368 13.2055 11.4121 12.8601 11.2772 12.4449L10.2603 9.31519C10.0661 8.71745 10.2789 8.06263 10.7873 7.69321L13.4496 5.75897C13.8028 5.50231 13.6213 4.94356 13.1846 4.94356H9.89392C9.26541 4.94356 8.70839 4.53886 8.51417 3.94112L7.49729 0.811458Z" stroke="#FFC107"/>
</svg>
