<svg width="24" height="24" viewBox="0 0 24 24" fill="none" xmlns="http://www.w3.org/2000/svg">
<g clip-path="url(#clip0_3654_730)">
<path d="M5 11C5.60205 10.7911 6.98145 10.5 8 10.5L10.5 10.5L9.08858 3.44292C9.04276 3.21378 9.21802 3 9.4517 3C10.1021 3 10.7047 3.34123 11.0393 3.89891L15 10.5L16 10.5L18.1115 10.5C19.3534 10.5 20.5783 10.7892 21.6892 11.3446L21.9267 11.4633C22.3689 11.6845 22.3689 12.3155 21.9267 12.5367L21.6892 12.6554C20.5783 13.2108 19.3534 13.5 18.1115 13.5L16 13.5L15 13.5L11.0393 20.1011C10.7047 20.6588 10.3227 21 9.67231 21C9.43863 21 9.04276 20.7862 9.08858 20.5571L10.5 13.5L8 13.5C6.98145 13.5 5.60205 13.2089 5 13L3.88065 14.8656C3.63502 15.275 3.25104 15.583 2.79812 15.734L2.69128 15.7696C2.39184 15.8694 2.10018 15.5993 2.17673 15.2931L3 12L2.17673 8.70691C2.10018 8.4007 2.39184 8.13061 2.69128 8.23042L2.79812 8.26604C3.25104 8.41701 3.63502 8.72503 3.88065 9.13441L5 11Z" fill="#D9DEE4"/>
</g>
<defs>
<clipPath id="clip0_3654_730">
<rect width="24" height="24" fill="white" transform="translate(24 24) rotate(-180)"/>
</clipPath>
</defs>
</svg>
