<svg width="63" height="54" viewBox="0 0 63 54" fill="none" xmlns="http://www.w3.org/2000/svg">
<path fill-rule="evenodd" clip-rule="evenodd" d="M10.1707 49.632C11.1187 50.9903 11.1187 50.9903 11.1187 50.9903C11.3661 51.3676 11.4897 51.7448 11.4897 52.1599C11.4897 52.6503 11.2835 53.0653 10.9126 53.4048C10.5416 53.7444 10.0881 53.9331 9.51099 53.9331C8.81028 53.9331 8.27437 53.6313 7.90341 53.0653C6.25463 50.613 6.25463 50.613 6.25463 50.613C6.25463 52.0844 6.25463 52.0844 6.25463 52.0844C6.25463 52.6126 6.04848 53.0275 5.71872 53.3671C5.34777 53.7444 4.89425 53.9331 4.31714 53.9331C3.65763 53.9331 3.12171 53.7066 2.79196 53.2539C2.4622 52.8766 2.29724 52.3485 2.29724 51.707C2.29724 44.9537 2.29724 44.9537 2.29724 44.9537C2.29724 43.5954 3.12171 42.8787 4.77049 42.8787C7.24374 42.8787 7.24374 42.8787 7.24374 42.8787C8.06821 42.8787 8.85131 43.1051 9.55219 43.5578C10.2529 43.9727 10.7888 44.5387 11.1186 45.2556C11.3659 45.7838 11.4483 46.2743 11.4483 46.8025C11.4487 47.8211 11.0363 48.7266 10.1707 49.632Z" fill="#07689F"/>
<path fill-rule="evenodd" clip-rule="evenodd" d="M16.7867 45.0663C16.7867 51.8197 16.7867 51.8197 16.7867 51.8197C16.7867 52.4233 16.6217 52.9137 16.292 53.2911C15.921 53.7062 15.4675 53.8947 14.808 53.8947C14.2309 53.8947 13.7362 53.706 13.3652 53.3287C13.0354 52.9891 12.8705 52.4986 12.8705 51.8195C12.8705 45.0661 12.8705 45.0661 12.8705 45.0661C12.8705 44.2739 13.0354 43.7457 13.3652 43.4061C13.7362 42.9912 14.2309 42.8025 14.808 42.8025C15.4263 42.8025 15.8798 42.9912 16.292 43.4061C16.6219 43.7458 16.7867 44.3118 16.7867 45.0663Z" fill="#07689F"/>
<path fill-rule="evenodd" clip-rule="evenodd" d="M24.454 49.2537C24.454 51.706 24.454 51.706 24.454 51.706C24.454 52.3096 24.3716 52.7625 24.1654 53.0643C23.7533 53.6303 23.2174 53.8943 22.4753 53.8943C21.7746 53.8943 21.2387 53.6303 20.8265 53.0643C20.6204 52.7625 20.4968 52.3098 20.4968 51.6685C20.4968 49.2539 20.4968 49.2539 20.4968 49.2539C17.8174 45.6697 17.8174 45.6697 17.8174 45.6697C17.57 45.3302 17.4464 44.9529 17.4464 44.5757C17.4464 44.1608 17.57 43.7834 17.8586 43.4816C18.2707 43.0289 18.7654 42.8025 19.3837 42.8025C20.1257 42.8025 20.7028 43.1043 21.1151 43.6703C22.5167 45.519 22.5167 45.519 22.5167 45.519C23.9594 43.5949 23.9594 43.5949 23.9594 43.5949C24.3716 43.0667 24.9487 42.8027 25.6496 42.8027C26.1855 42.8027 26.6389 42.9913 27.0512 43.3309C27.4221 43.6704 27.6283 44.1231 27.6283 44.6136C27.6283 44.9532 27.5047 45.3305 27.2573 45.6323L24.454 49.2537Z" fill="#07689F"/>
<path fill-rule="evenodd" clip-rule="evenodd" d="M30.637 52.4231C30.4308 52.838 30.266 53.14 30.0599 53.3285C29.6477 53.7058 29.1942 53.9321 28.6171 53.9321C27.9164 53.9321 27.3805 53.6681 27.0095 53.1398C26.7621 52.838 26.6385 52.4985 26.6385 52.1212C26.6385 51.8194 26.7209 51.4798 26.8859 51.178C30.637 43.8966 30.637 43.8966 30.637 43.8966C31.0079 43.1797 31.585 42.8025 32.4507 42.8025C33.3164 42.8025 33.9347 43.1798 34.3057 43.8966C38.0569 51.2535 38.0569 51.2535 38.0569 51.2535C38.2218 51.5553 38.3042 51.8195 38.3042 52.1213C38.3042 52.5362 38.1393 52.9513 37.8509 53.2531C37.4387 53.7058 36.944 53.9323 36.3257 53.9323C35.7898 53.9323 35.3776 53.7814 35.0479 53.4796C34.8005 53.2531 34.5532 52.9136 34.3058 52.4231H30.637Z" fill="#07689F"/>
<path fill-rule="evenodd" clip-rule="evenodd" d="M41.231 42.8787C43.6218 42.8787 43.6218 42.8787 43.6218 42.8787C45.3944 42.8787 46.8372 43.3691 47.9914 44.2745C49.3104 45.331 49.9701 46.6891 49.9701 48.3491C49.9701 49.1414 49.7639 49.9337 49.393 50.6883C48.7335 51.9711 47.6616 52.8766 46.2601 53.4047C45.5181 53.7065 44.4875 53.8196 43.2097 53.8196C41.5196 53.8196 41.5196 53.8196 41.5196 53.8196C40.7363 53.8196 40.1593 53.7441 39.8294 53.5556C39.4585 53.2915 39.1699 52.9896 39.0461 52.6124C39.0049 52.386 38.9637 51.9711 38.9637 51.3675C38.9637 45.3687 38.9637 45.3688 38.9637 45.3688C38.9637 44.8405 38.9637 44.501 38.9637 44.3878C39.0461 44.0483 39.1699 43.7842 39.3759 43.5578C39.7884 43.1051 40.4067 42.8787 41.231 42.8787Z" fill="#07689F"/>
<path fill-rule="evenodd" clip-rule="evenodd" d="M55.0893 50.0087C55.0893 51.5932 55.0893 51.5932 55.0893 51.5932C55.0893 52.0459 55.0893 52.3101 55.0893 52.3855C55.048 52.6495 54.9241 52.876 54.7589 53.1024C54.3872 53.6306 53.8503 53.8947 53.1481 53.8947C52.4459 53.8947 51.8676 53.6306 51.4959 53.1024C51.2894 52.7628 51.1655 52.2724 51.1655 51.5932C51.1655 44.9908 51.1655 44.9908 51.1655 44.9908C51.1655 44.3494 51.2894 43.8589 51.5784 43.5194C51.9502 43.0289 52.4871 42.8025 53.1479 42.8025C53.8087 42.8025 54.3458 43.0289 54.7174 43.5194C54.9239 43.7458 55.0478 43.9721 55.0892 44.2363C55.0892 44.3494 55.0892 44.6136 55.0892 45.0663C55.0892 46.6508 55.0892 46.6508 55.0892 46.6508C57.5261 46.6508 57.5261 46.6508 57.5261 46.6508C57.5261 45.1039 57.5261 45.1039 57.5261 45.1039C57.5261 44.387 57.6914 43.8589 57.9391 43.5194C58.3109 43.0289 58.8478 42.8025 59.5086 42.8025C60.1694 42.8025 60.7065 43.0289 61.0369 43.4438C61.3259 43.8588 61.4912 44.3492 61.4912 44.9908C61.4912 51.6308 61.4912 51.6308 61.4912 51.6308C61.4912 52.2344 61.3673 52.7249 61.1608 53.0645C60.789 53.6305 60.2108 53.8945 59.5086 53.8945C58.8478 53.8945 58.3107 53.6681 57.9391 53.1776C57.6501 52.8758 57.5261 52.3476 57.5261 51.5931C57.5261 50.0086 57.5261 50.0086 57.5261 50.0086H55.0893V50.0087Z" fill="#07689F"/>
<path fill-rule="evenodd" clip-rule="evenodd" d="M20.7852 18.9972C20.6199 19.1483 13.9286 40.7851 13.9286 40.7851C10.583 40.7851 10.583 40.7851 10.583 40.7851C10.8722 25.0767 10.8722 25.0767 10.8722 25.0767L20.7852 18.9972Z" fill="#4DCCB5"/>
<path fill-rule="evenodd" clip-rule="evenodd" d="M9.51095 40.7842V24.5611L13.4888 22.4862L12.1286 18.1285H8.23313L2.50336 40.7842H9.51095Z" fill="#4DCCB5"/>
<path fill-rule="evenodd" clip-rule="evenodd" d="M6.66699 17.1857H13.2005L12.0256 13.9033L7.69746 13.6769L6.66699 17.1857Z" fill="#4DCCB5"/>
<path fill-rule="evenodd" clip-rule="evenodd" d="M39.8295 11.2256C41.0661 10.3951 41.0661 10.3951 41.0661 10.3951C40.7775 10.3195 36.6554 9.71562 32.1622 9.67786C32.0798 9.67786 31.9973 9.67786 31.9561 9.67786C31.8737 9.67786 31.7911 9.67786 31.7499 9.67786C27.2568 9.71562 23.0934 10.3195 22.846 10.3951C24.0414 11.2256 24.0414 11.2256 24.0414 11.2256C15.4675 40.7846 15.4675 40.7846 15.4675 40.7846C31.7499 40.7846 31.7499 40.7846 31.7499 40.7846C32.1621 40.7846 32.1621 40.7846 32.1621 40.7846C48.3621 40.7846 48.3621 40.7846 48.3621 40.7846L39.8295 11.2256Z" fill="#4DCCB5"/>
<path fill-rule="evenodd" clip-rule="evenodd" d="M43.0858 18.9972C43.2511 19.1483 49.9423 40.7851 49.9423 40.7851C53.288 40.7851 53.288 40.7851 53.288 40.7851C53.0401 25.0767 53.0401 25.0767 53.0401 25.0767L43.0858 18.9972Z" fill="#4DCCB5"/>
<path fill-rule="evenodd" clip-rule="evenodd" d="M54.4011 40.7842V24.5611L50.4233 22.4862L51.7629 18.1285H55.6789L61.3675 40.7842H54.4011Z" fill="#4DCCB5"/>
<path fill-rule="evenodd" clip-rule="evenodd" d="M57.2454 17.1857H50.6705L51.8454 13.9033L56.1735 13.6769L57.2454 17.1857Z" fill="#4DCCB5"/>
<path fill-rule="evenodd" clip-rule="evenodd" d="M33.3987 7.67856C31.5025 7.79169 31.5025 7.79169 31.5025 7.79169C31.7087 5.98073 31.7087 5.98073 31.7087 5.98073C33.1515 5.9052 33.1515 5.9052 33.1515 5.9052L33.3987 7.67856ZM30.843 4.92444C29.9362 8.65949 29.9362 8.65949 29.9362 8.65949C30.5133 8.62172 31.0904 8.62172 31.7499 8.62172C32.162 8.62172 32.162 8.62172 32.162 8.62172C33.2339 8.62172 34.2231 8.62172 35.0888 8.69725C33.8522 5.07534 33.8522 5.07534 33.8522 5.07534L30.843 4.92444Z" fill="#4DCCB5"/>
<path fill-rule="evenodd" clip-rule="evenodd" d="M34.6767 4.42339C35.7898 8.73326 35.7898 8.73326 35.7898 8.73326C39.1699 8.92225 41.0248 9.37593 41.0248 9.37593C38.8401 1.13433 38.8401 1.13433 38.8401 1.13433C37.6035 2.76006 37.6035 2.76006 37.6035 2.76006C36.573 0.756349 36.573 0.756349 36.573 0.756349C35.1303 2.30638 35.1303 2.30638 35.1303 2.30638C33.9759 0.189209 33.9759 0.189209 33.9759 0.189209C32.4507 2.34415 32.4507 2.34415 32.4507 2.34415C31.0491 0.605123 31.0491 0.605122 31.0491 0.605122C29.6065 2.60883 29.6065 2.60883 29.6065 2.60883C27.9163 0.83188 27.9163 0.831881 27.9163 0.831881C26.8859 3.02458 26.8859 3.02458 26.8859 3.02458C25.3195 1.47455 25.3195 1.47455 25.3195 1.47455C22.9286 9.26247 22.9286 9.26247 22.9286 9.26247C22.9286 9.26247 25.1545 8.88449 28.947 8.69533C30.1836 4.12077 30.1836 4.12077 30.1836 4.12077L34.6767 4.42339Z" fill="#4DCCB5"/>
<path fill-rule="evenodd" clip-rule="evenodd" d="M4.44732 7.30036C9.97992 6.88543 13.2005 12.2428 13.2005 12.5823C13.2005 12.7332 10.5994 8.77176 4.07588 10.2431C2.218 10.6958 0.772764 10.6581 0.607641 9.26222C0.442354 7.79083 2.50672 7.45126 4.44732 7.30036Z" fill="#4DCCB5"/>
<path fill-rule="evenodd" clip-rule="evenodd" d="M14.3868 5.56549C20.002 10.2061 17.1944 18.0911 16.8641 18.3931C16.6576 18.5818 18.5569 12.5075 10.836 8.01781C8.6477 6.73509 7.32639 5.37683 8.64771 3.9432C10.0928 2.39627 12.4048 3.9432 14.3868 5.56549Z" fill="#4DCCB5"/>
<path fill-rule="evenodd" clip-rule="evenodd" d="M19.5899 4.96142C21.486 7.90421 18.9304 11.2243 18.7242 11.2997C18.6006 11.3752 20.4556 8.77184 17.57 5.64055C16.7455 4.73516 16.3334 3.94273 17.1991 3.41466C18.1059 2.88643 18.9302 3.94289 19.5899 4.96142Z" fill="#4DCCB5"/>
<path fill-rule="evenodd" clip-rule="evenodd" d="M58.6404 7.82957C53.0661 7.98047 50.4648 13.602 50.506 13.9416C50.5474 14.1302 52.6531 9.90472 59.301 10.7348C61.2416 10.9988 62.6869 10.8103 62.6869 9.41426C62.6869 7.9427 60.581 7.7918 58.6404 7.82957Z" fill="#4DCCB5"/>
<path fill-rule="evenodd" clip-rule="evenodd" d="M48.5356 7.11283C43.498 12.2439 47.1729 19.8271 47.5859 20.0913C47.7924 20.2422 45.1909 14.3944 52.3344 9.18799C54.3989 7.67883 55.5551 6.20744 54.0273 4.92471C52.4171 3.52868 50.3112 5.30188 48.5356 7.11283Z" fill="#4DCCB5"/>
<path fill-rule="evenodd" clip-rule="evenodd" d="M43.2508 6.99938C41.7256 10.0931 44.6524 13.149 44.8996 13.2245C45.0232 13.3 42.8797 10.8853 45.3943 7.48985C46.095 6.50892 46.4248 5.64112 45.4767 5.26396C44.5287 4.81109 43.8279 5.90532 43.2508 6.99938Z" fill="#4DCCB5"/>
</svg>
