<svg width="28" height="28" viewBox="0 0 28 28" fill="none" xmlns="http://www.w3.org/2000/svg">
<circle cx="14" cy="14" r="14" fill="#D9F4F2"/>
<path d="M16.038 19.4657C16.2138 19.2899 16.3125 19.0515 16.3125 18.8029C16.3125 18.5543 16.2138 18.3159 16.038 18.1401L11.3974 13.4995L16.038 8.85887C16.2088 8.68206 16.3033 8.44524 16.3011 8.19943C16.299 7.95362 16.2004 7.71849 16.0266 7.54467C15.8528 7.37085 15.6176 7.27225 15.3718 7.27012C15.126 7.26798 14.8892 7.36248 14.7124 7.53325L9.40895 12.8367C9.2332 13.0125 9.13446 13.2509 9.13446 13.4995C9.13446 13.7481 9.2332 13.9865 9.40895 14.1623L14.7124 19.4657C14.8882 19.6415 15.1266 19.7402 15.3752 19.7402C15.6238 19.7402 15.8622 19.6415 16.038 19.4657Z" fill="white"/>
</svg>
