<svg width="28" height="28" viewBox="0 0 28 28" fill="none" xmlns="http://www.w3.org/2000/svg">
<circle cx="14" cy="14" r="14" fill="#4DCCB5"/>
<path d="M11.962 19.4657C11.7862 19.2899 11.6875 19.0515 11.6875 18.8029C11.6875 18.5543 11.7862 18.3159 11.962 18.1401L16.6026 13.4995L11.962 8.85887C11.7912 8.68206 11.6967 8.44524 11.6989 8.19943C11.701 7.95362 11.7996 7.71849 11.9734 7.54467C12.1472 7.37085 12.3824 7.27225 12.6282 7.27012C12.874 7.26798 13.1108 7.36248 13.2876 7.53325L18.5911 12.8367C18.7668 13.0125 18.8655 13.2509 18.8655 13.4995C18.8655 13.7481 18.7668 13.9865 18.5911 14.1623L13.2876 19.4657C13.1118 19.6415 12.8734 19.7402 12.6248 19.7402C12.3762 19.7402 12.1378 19.6415 11.962 19.4657Z" fill="white"/>
</svg>
