<svg width="13" height="17" viewBox="0 0 13 17" fill="none" xmlns="http://www.w3.org/2000/svg">
<path d="M9.49839 12.625C8.51889 13.6195 7.53112 14.6057 6.54129 15.5899C6.3386 15.8045 6.12723 16.0171 5.89849 16.2075C5.76861 16.3146 5.62673 16.4042 5.47658 16.4726H0C0.957161 15.5147 7.39131 9.10936 8.34889 8.15402C8.59831 8.40518 8.97597 8.78404 9.42807 9.24371C10.2636 10.092 10.4398 11.6614 9.49839 12.625Z" fill="#9F9D9D"/>
<path d="M12.8897 8.82563C12.8028 9.0727 12.6725 9.30331 12.5046 9.50202C11.5189 10.5572 10.5129 11.5959 9.4991 12.6244C10.4397 11.6603 10.2635 10.0909 9.42795 9.24258C8.97543 8.78291 8.59819 8.4041 8.34877 8.15289C8.34877 8.15289 8.34877 8.15289 8.34877 8.15082C7.38912 7.20115 1.15765 0.955864 0.202148 0H5.47646C5.54347 0.0365463 5.61047 0.0808131 5.67335 0.127654C5.81316 0.233175 5.95131 0.344358 6.07913 0.465833C8.17049 2.56595 10.2697 4.65987 12.3689 6.7497C12.5861 6.96231 12.754 7.22175 12.8682 7.50327C13.0382 7.92436 13.0419 8.39843 12.8897 8.82563Z" fill="#808080"/>
</svg>
