<svg width="15" height="18" viewBox="0 0 15 18" fill="none" xmlns="http://www.w3.org/2000/svg">
<g clip-path="url(#clip0_3654_819)">
<path d="M11.6999 11.0137C10.9582 11.0137 10.2764 11.2736 9.73828 11.7083L6.37589 9.57914C6.47546 9.1228 6.47546 8.64994 6.37589 8.1936L9.73828 6.06445C10.2764 6.49913 10.9582 6.75903 11.6999 6.75903C13.4393 6.75903 14.8495 5.33034 14.8495 3.56799C14.8495 1.80564 13.4393 0.376953 11.6999 0.376953C9.96042 0.376953 8.55029 1.80564 8.55029 3.56799C8.55029 3.80592 8.57621 4.03767 8.62496 4.26075L5.26257 6.3899C4.72442 5.95525 4.04269 5.69535 3.30096 5.69535C1.5615 5.69535 0.151367 7.12404 0.151367 8.88639C0.151367 10.6487 1.5615 12.0774 3.30096 12.0774C4.04269 12.0774 4.72442 11.8175 5.26257 11.3829L8.62496 13.512C8.57526 13.7395 8.55022 13.9718 8.55029 14.2048C8.55029 15.9671 9.96042 17.3958 11.6999 17.3958C13.4393 17.3958 14.8495 15.9671 14.8495 14.2048C14.8495 12.4424 13.4393 11.0137 11.6999 11.0137Z" fill="#2B679B"/>
</g>
<defs>
<clipPath id="clip0_3654_819">
<rect width="14.6981" height="17.0189" fill="white" transform="translate(0.151367 0.376953)"/>
</clipPath>
</defs>
</svg>
