<svg width="23" height="23" viewBox="0 0 23 23" fill="none" xmlns="http://www.w3.org/2000/svg">
<g clip-path="url(#clip0_416_9240)">
<path d="M21.8174 4.37577C21.4672 4.2299 21.0816 4.19155 20.7095 4.26562C20.3375 4.33969 19.9959 4.52282 19.7283 4.79168L17.25 7.26993L12.8551 2.87502C12.4957 2.5157 12.0082 2.31384 11.5 2.31384C10.9918 2.31384 10.5043 2.5157 10.1449 2.87502L5.75 7.26993L3.27175 4.79168C3.0037 4.52372 2.66222 4.34124 2.29048 4.26732C1.91873 4.19339 1.53342 4.23135 1.18325 4.37638C0.833071 4.52142 0.533758 4.76702 0.323147 5.08214C0.112535 5.39726 8.093e-05 5.76775 0 6.14677L0 16.2917C0.0015217 17.562 0.506845 18.7799 1.40513 19.6782C2.30341 20.5765 3.5213 21.0818 4.79167 21.0834H18.2083C19.4787 21.0818 20.6966 20.5765 21.5949 19.6782C22.4932 18.7799 22.9985 17.562 23 16.2917V6.14677C23.0001 5.76772 22.8878 5.39715 22.6773 5.08192C22.4668 4.76668 22.1676 4.52094 21.8174 4.37577Z" fill="#F9C22D"/>
</g>
<defs>
<clipPath id="clip0_416_9240">
<rect width="23" height="23" fill="white"/>
</clipPath>
</defs>
</svg>
