<svg width="61" height="56" viewBox="0 0 61 56" fill="none" xmlns="http://www.w3.org/2000/svg">
<path d="M11.0245 44.8581C15.7747 36.585 18.7552 27.4153 19.777 17.9304L28.2376 26.3407C28.4068 26.5092 28.6354 26.6042 28.8744 26.6053C28.9235 26.6057 28.9731 26.6017 29.0215 26.5936C29.31 26.5466 29.5581 26.3639 29.6884 26.1025C31.4034 22.6795 30.7318 18.5425 28.0218 15.8381L27.2779 15.0938H33.6767C34.1791 15.0941 34.5869 14.6871 34.5869 14.1847C34.5872 14.0863 34.5711 13.9887 34.5402 13.8958C33.3321 10.2625 29.9321 7.81232 26.1031 7.81599H24.9206L29.4638 3.24637C29.8183 2.89037 29.8168 2.31453 29.4608 1.96C29.3918 1.89137 29.3126 1.83412 29.2256 1.79081C25.801 0.0739455 21.6619 0.745204 18.9556 3.45666L18.0869 4.32537C17.8036 4.61054 17.5404 4.91442 17.2982 5.23518C17.0589 4.91442 16.7976 4.61054 16.5165 4.32537L15.6477 3.45666C12.9436 0.747039 8.8067 0.0757806 5.38435 1.79081C4.93476 2.01542 4.75236 2.56189 4.97697 3.01111C5.02027 3.09809 5.07753 3.17737 5.14616 3.24637L9.6945 7.81599H8.50025C4.67125 7.81232 1.27092 10.2625 0.0630899 13.8958C-0.0961918 14.3722 0.161081 14.8875 0.637825 15.0468C0.730678 15.078 0.828303 15.0938 0.926661 15.0938H7.31922L6.57529 15.8381C3.8653 18.5425 3.19367 22.6795 4.90834 26.1025C5.03899 26.3639 5.28709 26.5466 5.57519 26.5936C5.624 26.6017 5.67318 26.6057 5.72273 26.6053C5.96312 26.6053 6.1936 26.5103 6.36389 26.3407L14.2425 18.5088C13.267 27.2263 9.9837 35.5258 4.73107 42.5511C3.5082 42.23 2.26844 41.9771 1.01768 41.7943L0.449183 41.7371L0.267147 43.5483L0.797474 43.6C1.70729 43.7303 2.61123 43.9142 3.5104 44.1223C3.32836 44.3506 3.14633 44.5825 2.95805 44.8075L4.35342 45.9746C11.3446 37.6626 15.5123 27.3434 16.2548 16.5075L17.3018 15.467L18.0858 16.2465C17.1294 27.8348 13.1517 38.9702 6.5496 48.5418L8.03965 49.5845C8.75495 48.5635 9.43722 47.5039 10.0986 46.4242C14.354 48.4596 18.1115 51.4034 21.1063 55.0481L22.5134 53.8954C20.7426 51.7425 18.7137 49.8153 16.472 48.1579H60.9363V46.3383H13.7767C12.8849 45.7999 11.9644 45.3121 11.0245 44.8581ZM28.5404 24.0745L18.9284 14.5179C21.387 13.7839 24.05 14.45 25.8733 16.2553L26.742 17.1244C28.562 18.9411 29.2505 21.603 28.5404 24.0745ZM32.2886 13.2745H24.7562C23.0019 12.4396 21.0226 12.2032 19.1211 12.6021C20.4449 10.7407 22.5875 9.63525 24.8718 9.63561H26.0998C28.6714 9.63158 31.0419 11.0255 32.2886 13.2745ZM19.3703 5.61173L20.2394 4.74303C22.0575 2.92266 24.7206 2.23379 27.1931 2.94432L21.8003 8.36907C20.05 9.01317 18.5475 10.1927 17.5055 11.7397C17.0824 9.51413 17.7804 7.22253 19.3732 5.61173H19.3703ZM14.3588 4.74303L15.2275 5.61173C15.6327 6.02535 15.9843 6.48852 16.2739 6.98985C15.8617 7.94811 15.6265 8.97243 15.5787 10.014C14.7621 9.30053 13.8215 8.74342 12.8042 8.36907L7.41023 2.94432C9.88204 2.23416 12.5443 2.92303 14.3614 4.74303H14.3588ZM8.49731 9.63561H9.72569C12.0114 9.63341 14.157 10.7385 15.4822 12.601C13.5819 12.2036 11.6033 12.4399 9.85011 13.2745H2.31469C3.56105 11.0266 5.92972 9.63304 8.50025 9.63561H8.49731ZM6.06295 24.0745C5.35278 21.603 6.04166 18.9411 7.86165 17.1244L8.73036 16.2553C10.0391 14.9499 11.814 14.2192 13.663 14.2251C14.3452 14.2254 15.0238 14.3227 15.6789 14.5143L6.06295 24.0745Z" fill="#4DCCB5"/>
</svg>
