<svg width="21" height="20" viewBox="0 0 21 20" fill="none" xmlns="http://www.w3.org/2000/svg">
<g clip-path="url(#clip0_3256_9220)">
<path d="M18.4559 5.96726C18.4675 6.1422 18.4675 6.31798 18.4675 6.49458C18.4675 11.8897 14.36 18.1107 6.85143 18.1107V18.1074C4.63351 18.1107 2.46119 17.4756 0.593994 16.2775C0.916525 16.3164 1.24071 16.3355 1.56573 16.3363C3.40474 16.338 5.19069 15.7211 6.63586 14.5852C4.88888 14.5521 3.35665 13.4128 2.82186 11.7496C3.43376 11.8673 4.0639 11.8433 4.66502 11.68C2.75968 11.2952 1.38996 9.62123 1.38996 7.67775C1.38996 7.66034 1.38996 7.64293 1.38996 7.62634C1.95791 7.94307 2.59302 8.11802 3.24306 8.13709C1.44883 6.93899 0.894968 4.55276 1.97864 2.68722C4.05146 5.23762 7.11012 6.78809 10.3926 6.95309C10.0635 5.53528 10.5137 4.04948 11.5733 3.05204C13.2175 1.50571 15.8035 1.58531 17.3499 3.22947C18.2644 3.04955 19.1408 2.71376 19.9426 2.23866C19.6374 3.18387 18.9998 3.98647 18.1475 4.49721C18.9575 4.4002 19.7477 4.1838 20.4931 3.85381C19.945 4.67382 19.2552 5.38935 18.4559 5.96726Z" fill="white"/>
</g>
<defs>
<clipPath id="clip0_3256_9220">
<rect width="19.8991" height="19.8991" fill="white" transform="translate(0.593994 0.0776367)"/>
</clipPath>
</defs>
</svg>
