<svg width="64" height="62" viewBox="0 0 64 62" fill="none" xmlns="http://www.w3.org/2000/svg">
<g clip-path="url(#clip0_411_8993)">
<path fill-rule="evenodd" clip-rule="evenodd" d="M55.9771 56.5004C54.7886 60.0022 50.6629 61.9541 46.7429 61.0011L10.3086 52.1259C10.2286 52.103 10.16 52.08 10.0914 52.057H7.62286C3.41714 52.057 0 48.6356 0 44.3989V16.8433C0 12.6181 3.40571 9.18518 7.62286 9.18518H56.3886C60.5943 9.18518 64.0114 12.6067 64.0114 16.8433V44.3989C64.0114 48.2452 61.1886 51.4256 57.5086 51.9767L55.9771 56.5004ZM7.62286 12.2507C5.09714 12.2507 3.05143 14.3059 3.05143 16.8433V44.3989C3.05143 46.9363 5.09714 48.9915 7.62286 48.9915H56.3886C58.9143 48.9915 60.96 46.9363 60.96 44.3989V16.8433C60.96 14.3059 58.9143 12.2507 56.3886 12.2507H7.62286ZM23.2914 52.1374L47.4514 58.0274C49.9086 58.6244 52.4343 57.4418 53.0857 55.5244L54.2514 52.0685L23.2914 52.1489V52.1374Z" fill="white"/>
<path d="M49.669 33.6752C50.5148 33.6752 51.189 34.3641 51.189 35.2022C51.189 36.0519 50.5033 36.7293 49.669 36.7293H32.0005C31.1548 36.7293 30.4805 36.0404 30.4805 35.2022C30.4805 34.3526 31.1662 33.6752 32.0005 33.6752H49.669ZM49.669 21.4244C50.5148 21.4244 51.189 22.1133 51.189 22.9515C51.189 23.8011 50.5033 24.4785 49.669 24.4785H38.1033C37.2576 24.4785 36.5833 23.7896 36.5833 22.9515C36.5833 22.1019 37.269 21.4244 38.1033 21.4244H49.669Z" fill="white"/>
<path d="M25.9083 16.2004C26.754 16.2004 27.4283 16.8893 27.4283 17.7274V22.963C27.4283 27.1881 24.0226 30.6211 19.8055 30.6211C15.5998 30.6211 12.1826 27.1996 12.1826 22.963V7.65815C12.1826 3.43296 15.5883 0 19.8055 0C20.6512 0 21.3255 0.688889 21.3255 1.52704C21.3255 2.37667 20.6398 3.05407 19.8055 3.05407C17.2798 3.05407 15.234 5.10926 15.234 7.64667V22.9515C15.234 25.4889 17.2798 27.5441 19.8055 27.5441C22.3312 27.5441 24.3769 25.4889 24.3769 22.9515V17.7159C24.3769 16.8663 25.0626 16.1889 25.8969 16.1889L25.9083 16.2004Z" fill="white"/>
<path d="M18.2861 1.52704C18.2861 0.677407 18.9718 0 19.8061 0H22.709C26.9947 0 30.469 3.42148 30.469 7.65815V10.7237C30.469 11.5733 29.7833 12.2507 28.949 12.2507C28.1033 12.2507 27.429 11.5619 27.429 10.7237V7.65815C27.429 5.13222 25.3261 3.06556 22.709 3.06556H19.8061C18.9604 3.06556 18.2861 2.37667 18.2861 1.53852V1.52704Z" fill="white"/>
</g>
<defs>
<clipPath id="clip0_411_8993">
<rect width="64" height="62" fill="white"/>
</clipPath>
</defs>
</svg>
