<svg width="21" height="20" viewBox="0 0 21 20" fill="none" xmlns="http://www.w3.org/2000/svg">
<g clip-path="url(#clip0_3256_9230)">
<path d="M19.9382 5.20623C19.7094 4.34477 19.0353 3.66571 18.1788 3.43521C16.6275 3.01733 10.4049 3.01733 10.4049 3.01733C10.4049 3.01733 4.18226 3.01733 2.63013 3.43521C1.77447 3.66571 1.10038 4.34394 0.871545 5.20623C0.455322 6.76831 0.455322 10.0268 0.455322 10.0268C0.455322 10.0268 0.455322 13.2853 0.871545 14.8473C1.10038 15.7088 1.77447 16.3879 2.63096 16.6184C4.18226 17.0362 10.4049 17.0362 10.4049 17.0362C10.4049 17.0362 16.6275 17.0362 18.1796 16.6184C19.0353 16.3879 19.7094 15.7096 19.939 14.8473C20.3544 13.2853 20.3544 10.0268 20.3544 10.0268C20.3544 10.0268 20.3544 6.76831 19.9382 5.20623ZM8.37019 12.9859V7.06763L13.5705 10.0268L8.37019 12.9859Z" fill="white"/>
</g>
<defs>
<clipPath id="clip0_3256_9230">
<rect width="19.8991" height="19.8991" fill="white" transform="translate(0.455322 0.0776367)"/>
</clipPath>
</defs>
</svg>
