<svg width="21" height="22" viewBox="0 0 21 22" fill="none" xmlns="http://www.w3.org/2000/svg">
<g clip-path="url(#clip0_3342_5392)">
<path d="M6.25078 11.0056L10.4574 15.2122L9.19544 16.4742C8.92088 16.7578 8.59263 16.984 8.2298 17.1395C7.86698 17.295 7.47683 17.3767 7.08211 17.3799C6.68738 17.3831 6.29596 17.3077 5.93066 17.1581C5.56535 17.0086 5.23347 16.7878 4.95435 16.5087C4.67523 16.2295 4.45444 15.8977 4.30486 15.5324C4.15528 15.1671 4.0799 14.7756 4.08311 14.3809C4.08631 13.9862 4.16804 13.5961 4.32353 13.2332C4.47902 12.8704 4.70516 12.5422 4.98878 12.2676L6.25078 11.0056Z" stroke="#21C8AA" stroke-width="1.26199" stroke-linecap="round" stroke-linejoin="round"/>
<path d="M14.6637 11.0055L10.457 6.79886L11.719 5.53687C11.9936 5.25325 12.3218 5.02711 12.6847 4.87162C13.0475 4.71613 13.4376 4.63441 13.8324 4.6312C14.2271 4.628 14.6185 4.70338 14.9838 4.85296C15.3491 5.00254 15.681 5.22332 15.9601 5.50244C16.2392 5.78156 16.46 6.11344 16.6096 6.47874C16.7592 6.84404 16.8346 7.23545 16.8314 7.63018C16.8282 8.0249 16.7464 8.41504 16.5909 8.77786C16.4354 9.14069 16.2093 9.46894 15.9257 9.74349L14.6637 11.0055Z" stroke="#21C8AA" stroke-width="1.26199" stroke-linecap="round" stroke-linejoin="round"/>
<path d="M2.88574 18.5774L4.98907 16.4741" stroke="#21C8AA" stroke-width="1.26199" stroke-linecap="round" stroke-linejoin="round"/>
<path d="M15.9258 5.53691L18.0291 3.43359" stroke="#21C8AA" stroke-width="1.26199" stroke-linecap="round" stroke-linejoin="round"/>
<path d="M8.77348 10.1643L7.09082 11.847" stroke="#21C8AA" stroke-width="1.26199" stroke-linecap="round" stroke-linejoin="round"/>
<path d="M11.2998 12.6882L9.61719 14.3709" stroke="#21C8AA" stroke-width="1.26199" stroke-linecap="round" stroke-linejoin="round"/>
</g>
<defs>
<clipPath id="clip0_3342_5392">
<rect width="20.1919" height="20.1918" fill="white" transform="translate(0.362305 0.909668)"/>
</clipPath>
</defs>
</svg>
