<svg width="20" height="20" viewBox="0 0 20 20" fill="none" xmlns="http://www.w3.org/2000/svg">
<path d="M17.8249 9.66701C18.0538 9.43301 18.2132 9.14001 18.2853 8.8207C18.3574 8.50139 18.3394 8.16833 18.2332 7.85867C18.1336 7.5481 17.9488 7.27174 17.6998 7.06106C17.4508 6.85038 17.1476 6.71385 16.8249 6.66701L13.2499 6.11701C13.2332 6.11218 13.2178 6.10368 13.2048 6.09215C13.1919 6.08062 13.1816 6.06633 13.1749 6.05034L11.6082 2.71701C11.4708 2.40487 11.2456 2.13943 10.9601 1.953C10.6745 1.76657 10.3409 1.6672 9.99987 1.66701C9.66278 1.66561 9.33247 1.7616 9.04863 1.94344C8.76479 2.12527 8.53951 2.38521 8.39987 2.69201L6.8332 6.02534C6.82465 6.04159 6.81283 6.0559 6.79849 6.06738C6.78415 6.07885 6.7676 6.08723 6.74987 6.09201L3.1832 6.66701C2.85995 6.71517 2.55639 6.85205 2.30628 7.06243C2.05618 7.27281 1.86934 7.54844 1.76653 7.85867C1.66428 8.16941 1.64905 8.50221 1.7225 8.82099C1.79596 9.13976 1.95528 9.43235 2.1832 9.66701L4.81653 12.3753C4.82411 12.3924 4.82803 12.4108 4.82803 12.4295C4.82803 12.4482 4.82411 12.4666 4.81653 12.4837L4.19987 16.267C4.14254 16.5965 4.17991 16.9355 4.30764 17.2446C4.43536 17.5536 4.6482 17.8201 4.9214 18.013C5.19459 18.2059 5.51693 18.3173 5.85094 18.3342C6.18494 18.3512 6.51689 18.273 6.8082 18.1087L9.91653 16.3837C9.93197 16.3756 9.94913 16.3714 9.96653 16.3714C9.98394 16.3714 10.0011 16.3756 10.0165 16.3837L13.1249 18.1087C13.4166 18.2694 13.7476 18.3449 14.0801 18.3264C14.4127 18.3079 14.7333 18.1962 15.0054 18.0041C15.2774 17.812 15.49 17.5472 15.6187 17.24C15.7474 16.9329 15.7871 16.5957 15.7332 16.267L15.1582 12.5003C15.1494 12.4851 15.1448 12.4679 15.1448 12.4503C15.1448 12.4328 15.1494 12.4155 15.1582 12.4003L17.8249 9.66701Z" fill="#FFC107"/>
</svg>
