<svg width="21" height="22" viewBox="0 0 21 22" fill="none" xmlns="http://www.w3.org/2000/svg">
<g clip-path="url(#clip0_3342_5402)">
<path d="M18.2045 11.0055V13.5295C18.2045 13.7526 18.1159 13.9666 17.9581 14.1244C17.8003 14.2822 17.5863 14.3708 17.3632 14.3708H3.90188C3.67874 14.3708 3.46475 14.2822 3.30697 14.1244C3.14919 13.9666 3.06055 13.7526 3.06055 13.5295V5.11623C3.06055 4.89309 3.14919 4.6791 3.30697 4.52132C3.46475 4.36354 3.67874 4.2749 3.90188 4.2749H11.4739" stroke="#21C8AA" stroke-width="1.26199" stroke-linecap="round" stroke-linejoin="round"/>
<path d="M6.42676 17.7361H14.8401" stroke="#21C8AA" stroke-width="1.26199" stroke-linecap="round" stroke-linejoin="round"/>
<path d="M8.11035 14.3706V17.7359" stroke="#21C8AA" stroke-width="1.26199" stroke-linecap="round" stroke-linejoin="round"/>
<path d="M13.1572 14.3708V17.7361" stroke="#21C8AA" stroke-width="1.26199" stroke-linecap="round" stroke-linejoin="round"/>
<path d="M14.8398 4.2749H18.2052V7.6402" stroke="#21C8AA" stroke-width="1.26199" stroke-linecap="round" stroke-linejoin="round"/>
<path d="M14 8.48152L18.2067 4.2749" stroke="#21C8AA" stroke-width="1.26199" stroke-linecap="round" stroke-linejoin="round"/>
</g>
<defs>
<clipPath id="clip0_3342_5402">
<rect width="20.1919" height="20.1918" fill="white" transform="translate(0.537109 0.909668)"/>
</clipPath>
</defs>
</svg>
