<svg width="151" height="10" viewBox="0 0 151 10" fill="none" xmlns="http://www.w3.org/2000/svg">
<path d="M15.5844 5.49501C15.8161 5.36784 16.0722 5.26998 16.3432 5.20505C17.5806 4.99108 18.869 5.0378 20.0753 5.34037C20.4848 5.41189 20.9097 5.41189 21.3193 5.34037C21.77 5.30973 22.2184 5.26134 22.6628 5.19538C22.837 4.3255 23.9068 4.80877 24.4666 4.50915C25.2503 4.09354 25.7106 5.03108 26.4819 4.72178L26.0838 4.39316H28.0245L27.5518 4.96342C28.8687 4.79407 30.134 4.43688 31.2838 3.90989C31.968 4.36416 32.5278 4.05487 33.0627 3.64893C33.3736 3.38851 33.7892 3.21795 34.2413 3.16526C34.6934 3.11257 35.1552 3.18087 35.5507 3.35897C35.899 3.45562 36.3593 3.30097 36.7947 3.25265C37.4062 3.14713 38.0251 3.06968 38.6483 3.02068C40.054 3.02068 41.4598 3.02068 43.0521 3.02068C43.6368 2.49875 43.7238 2.49875 45.4779 3.26231C46.3238 3.10767 47.0205 2.98202 47.7171 2.83704C47.9908 2.77904 48.4137 2.92403 48.4884 2.51809C48.4884 2.46976 48.8243 2.39243 48.9736 2.43109C49.7452 2.5556 50.5447 2.52903 51.2999 2.35377C52.3832 2.21316 53.4753 2.11638 54.5716 2.06381L55.2185 2.00582C55.5419 2.26678 55.7285 2.97235 56.2759 2.16047C57.0098 2.39243 57.607 1.88984 58.3409 1.91883C59.5251 2.04957 60.7271 2.04957 61.9112 1.91883C63.1552 1.69653 64.3122 2.06381 65.5064 1.91883C65.9667 1.8705 66.4892 1.91883 66.7504 1.46456C66.8375 1.30025 67.4222 1.21326 67.7581 1.22293C69.0892 1.22293 70.358 0.556016 71.714 1.04895C72.1743 0.614008 72.8461 0.845981 73.4183 0.758992C74.0381 0.701255 74.6645 0.701255 75.2843 0.758992C75.757 0.758992 76.2298 0.845977 76.7025 0.845977C77.1617 0.827959 77.6189 0.785984 78.0709 0.72033C78.1704 0.72033 78.2948 0.59468 78.357 0.614011C79.2651 0.923302 80.1359 0.391706 81.0689 0.536686C81.787 0.574853 82.5082 0.555422 83.2211 0.478696C84.3034 0.478696 85.3981 0.478696 86.4928 0.478696C88.222 0.478696 89.9387 0.478697 91.6679 0.585016C92.1406 0.585016 92.6258 0.923299 93.0736 0.874972C93.5215 0.826645 93.8325 0.478691 94.243 0.31438C94.4851 0.244241 94.7446 0.217806 95.0018 0.237063C96.9798 0.237063 98.9578 0.237062 100.923 0.30472C102.267 0.30472 103.61 0.527023 104.941 0.652673C105.053 0.652673 105.178 0.72033 105.265 0.652673C106.584 0.266059 107.915 0.652673 109.246 0.652673C110.179 0.652673 111.124 0.652673 112.082 0.652673C114.06 0.594681 116.038 0.652667 118.016 0.72999C121.151 0.87497 124.236 1.03928 127.433 1.29058C129.722 1.47422 131.999 1.78351 134.275 2.08314C137.92 2.57607 141.565 3.04968 145.198 3.63926C146.703 3.86157 148.183 4.20952 149.664 4.51881C149.954 4.59538 150.234 4.69582 150.497 4.81844L150.733 6.75151C150.908 7.16712 149.9 7.31209 150.36 7.88235L149.489 8.20131L149.688 9.16784C148.758 9.32101 147.791 9.26399 146.902 9.00353C146.173 8.7251 145.357 8.61442 144.551 8.68458C143.353 8.77107 142.149 8.60057 141.067 8.19164C140.379 7.90174 139.648 7.67781 138.89 7.52474C137.32 7.29011 135.725 7.16717 134.126 7.15745C132.625 7.21532 131.129 6.98285 129.772 6.48088C129.67 6.45574 129.583 6.40464 129.523 6.3359C128.478 4.99241 126.799 5.25338 125.219 5.36936C124.883 5.36936 124.584 5.70765 124.124 5.97828L123.514 5.22438C122.955 5.47568 122.519 5.7753 121.984 5.3307C121.824 5.26112 121.647 5.21984 121.464 5.20982C121.281 5.19979 121.098 5.22127 120.927 5.27271C119.932 5.57233 118.974 5.19538 118.004 5.21471C117.788 5.20744 117.58 5.15022 117.406 5.0504C116.237 4.47048 116.237 4.46082 115.142 5.12773L115.69 5.99761C114.414 5.92592 113.146 5.7838 111.895 5.57233C111.172 5.31832 110.418 5.12081 109.644 4.98275C108.624 4.91509 107.616 4.75078 106.584 4.68312C106.263 4.67615 105.947 4.74343 105.675 4.87643C104.767 5.25793 103.722 5.39716 102.702 5.27271C101.472 5.04271 100.187 5.06268 98.9702 5.3307C98.4975 5.04074 97.9874 5.24371 97.4774 5.24371C96.6242 5.18429 95.7659 5.30098 94.9894 5.582C94.6416 5.67439 94.2695 5.69765 93.9071 5.64966C92.9673 5.64853 92.0284 5.60334 91.0956 5.51434C90.6392 5.37246 90.2182 5.16965 89.8516 4.91509C89.7272 5.14706 89.6402 5.34036 89.5282 5.54334L85.7962 5.81397V5.67865L88.6201 5.21471C88.2593 4.64446 87.5502 4.78944 87.0899 4.72178C86.5146 4.69099 85.9411 4.79901 85.4479 5.03108C84.5541 5.35112 83.5645 5.4748 82.5866 5.38869C81.8325 5.41361 81.0807 5.47169 80.335 5.56266C79.7752 5.56266 79.091 5.89129 78.9168 5.0794C78.9168 4.97308 78.3695 4.87643 78.0709 4.86677C77.697 4.90102 77.3296 4.96914 76.9762 5.06974L77.9714 5.29204V5.46601L76.802 5.553L76.491 4.79911H76.3168C76.2298 5.0794 76.1427 5.35003 76.0929 5.553C75.3963 5.553 74.8489 5.48535 74.2145 5.47568C73.801 5.44056 73.3839 5.44056 72.9705 5.47568C72.5818 5.56331 72.2065 5.68321 71.8509 5.8333C70.6068 5.8333 69.3628 5.29204 68.1188 5.7753C67.7288 5.95908 67.2916 6.07422 66.8381 6.11263C66.3846 6.15104 65.9258 6.11178 65.494 5.99761C65.0337 5.87196 64.4117 6.15225 63.8643 6.18125C62.7023 6.30792 61.5257 6.33386 60.3562 6.25857C58.5787 6.16142 56.7927 6.21978 55.0319 6.43255C53.0663 6.50987 51.1381 6.76117 49.1975 6.86749C48.981 6.8832 48.7635 6.84604 48.5755 6.76117C48.1972 6.59151 47.7682 6.50219 47.3315 6.50219C46.8947 6.50219 46.4657 6.59151 46.0875 6.76117L47.3315 7.0318C47.1376 7.12445 46.9283 7.196 46.7095 7.24444C44.8186 7.37976 42.9774 7.5054 41.0243 7.61172C40.1535 7.61172 39.2827 7.66971 38.3995 7.61172C38.0512 7.61172 37.6904 7.48607 37.3297 7.48607C36.9455 7.46147 36.5597 7.51475 36.21 7.64072C35.2024 8.13365 34.1326 7.91135 33.1 8.01766V7.84369L33.6598 7.57306C32.9756 7.66971 32.2043 7.57306 31.968 7.85336C31.234 8.61692 30.2264 8.12399 29.3929 8.34629C28.7182 8.48615 28.0256 8.56719 27.3278 8.58792C26.6436 8.63625 25.9594 8.64591 25.2752 8.68458C24.5163 8.6868 23.7589 8.73853 23.0111 8.83922C21.6542 9.09451 20.2646 9.23069 18.8686 9.24517C16.8533 9.24517 14.838 9.50613 12.8351 9.55446C10.8323 9.60279 9.10312 9.55446 7.32419 9.43847C5.71942 9.36115 4.12709 9.17751 2.52232 9.03253C2.35234 9.00292 2.18887 8.95407 2.03716 8.88755C2.13668 7.96934 2.13668 7.979 0.967314 7.5344C0.755299 7.44528 0.595101 7.29661 0.51947 7.11879C0.51947 7.02213 0.743391 6.82883 0.917552 6.76117C1.36553 6.56537 1.85376 6.43129 2.3606 6.36489C2.823 6.37805 3.27661 6.46699 3.69169 6.62586C3.93657 6.72726 4.16256 6.85408 4.36345 7.00281C4.7418 6.57701 5.28303 6.25452 5.91044 6.08104C6.53785 5.90756 7.21961 5.8919 7.85912 6.03627C8.47772 6.14373 9.12209 6.12037 9.72513 5.96862C10.3608 5.80654 11.0328 5.74863 11.6987 5.79854C12.3646 5.84845 13.0099 6.00509 13.594 6.25857C13.6383 6.13478 13.714 6.01909 13.8165 5.91829C13.9191 5.81748 14.0465 5.73357 14.1913 5.67148C14.3361 5.60938 14.4954 5.57034 14.6598 5.55663C14.8242 5.54293 14.9906 5.55484 15.149 5.59167C15.4048 5.59679 15.6602 5.57401 15.9078 5.52401L14.8131 6.36489C15.1508 6.32501 15.4836 6.26359 15.8083 6.18125C16.0322 5.96861 15.9576 5.73664 15.5844 5.49501ZM102.205 4.64446C101.11 3.99688 100.028 4.33517 99.02 4.33517C98.0123 4.33517 97.0171 4.39316 96.0095 4.42215V4.64446H102.205ZM79.3647 5.1084C80.7206 5.32104 81.9646 4.63479 83.333 4.84743C82.6931 4.64268 81.9998 4.55871 81.31 4.60239C80.6202 4.64607 79.9535 4.81617 79.3647 5.09873V5.1084ZM36.7325 4.05487L36.8694 4.23852L38.1134 3.79391C37.3421 3.55228 36.9938 3.67792 36.7325 4.05487ZM41.3229 3.56194L41.0368 3.6586L41.1488 4.55748L41.9822 4.02588L41.3229 3.56194ZM76.8144 4.1322C76.068 3.71659 76.068 3.71659 75.7695 4.19985L76.8144 4.1322ZM35.078 5.76564L35.1651 5.94928C35.3225 5.93519 35.4772 5.90597 35.6254 5.8623C35.7844 5.779 35.9305 5.6817 36.0608 5.57233L35.9612 5.44669L35.078 5.76564Z" fill="#2B679B"/>
</svg>
